<svg width="128" height="128" viewBox="0 0 128 128" fill="none" xmlns="http://www.w3.org/2000/svg">
<path d="M15.9905 35.76L11.7305 36.74C11.7305 36.74 5.82048 45.86 4.53048 55.56C3.72048 61.65 3.69048 69.6 4.25048 73.56C4.82048 77.52 6.86048 85.95 10.0705 91.89C13.1605 97.61 16.1705 99.86 19.4605 101.85C20.8705 102.7 22.1305 105.61 24.3305 107.02C26.3905 108.34 29.1105 108.6 29.1105 108.6C29.1105 108.6 36.6305 120.41 52.9005 122.46C71.9905 124.86 81.3305 116.24 81.3305 116.24C81.3305 116.24 88.9705 116.22 96.1805 113.13C104.27 109.66 108.59 102.44 108.59 102.44C108.59 102.44 118.72 93.72 121.93 83.28C124.51 74.9 124.58 58.97 122.6 51.47C120.62 43.97 116.79 37.62 113.75 33.55C111.33 30.31 84.3105 15.95 81.0505 14.67C77.8005 13.4 47.5305 11.42 46.4005 12.27C45.2705 13.13 15.9905 35.76 15.9905 35.76Z" fill="#AC5811"/>
<path d="M26.53 19.75C19.48 25.49 15.83 28.49 12.17 35.67C8.51004 42.85 9.69004 52.38 10.35 55.9C11 59.42 12.18 66.21 12.83 69.6C13.48 73 15.21 81.06 20 86.05C26.71 93.04 32.79 95.45 32.79 95.45C32.79 95.45 37.72 103.09 49.63 107.46C65.29 113.2 72.34 104.85 78.34 102.63C84.34 100.41 91.52 100.28 97.66 95.97C103.79 91.66 110.58 86.44 115.02 75.48C119.46 64.52 118.54 59.69 118.67 56.95C118.8 54.21 118.41 41.03 113.32 32.94C108.23 24.85 102.11 19.99 99.75 18.45C94.53 15.06 75.89 6.94998 71.2 6.03998C66.5 5.12998 49.74 6.54998 43.09 9.28998C36.44 12.03 26.53 19.75 26.53 19.75Z" fill="url(#paint0_radial_521_2)"/>
<path d="M56.2797 71.46C55.1697 71.11 53.9997 69.46 53.7197 65.93C53.3297 60.9 57.0397 59.51 57.0397 59.51C57.0397 59.51 61.4597 58.34 64.5697 57.23C67.4597 56.2 69.5397 54.88 69.5397 54.88C69.5397 54.88 69.8197 49.49 71.6097 47.9C73.4097 46.31 76.5797 46.45 80.1097 46.86C83.6297 47.27 89.2997 49.62 88.4697 51.76C87.6397 53.9 86.6697 56.04 83.2897 57.98C79.9097 59.91 77.4897 61.71 75.7597 63.23C74.0297 64.76 70.8597 66.68 65.6097 68.62C60.3597 70.56 57.8797 71.96 56.2797 71.46ZM26.5497 26.47C23.2297 25.79 18.5397 32.98 17.6697 35.36C16.7897 37.74 15.8897 43.54 15.7897 46.19C15.6597 49.48 15.5997 52.57 16.9797 55.08C18.0397 57.02 20.6097 58.11 22.9197 56.11C25.2297 54.11 29.2397 48.63 30.2997 47.86C31.3597 47.09 34.4597 46.07 33.2397 41.03C32.7397 38.97 27.6697 34.71 27.4197 34.13C27.1797 33.56 28.4297 26.86 26.5497 26.47ZM50.0197 17.44C50.1497 19.37 51.7297 22.46 53.4397 24.13C55.9997 26.62 67.7397 35.04 70.7797 34.56C73.8197 34.08 77.1297 28.62 78.0997 27.1C79.0697 25.58 80.9997 23.44 81.7597 22.47C82.5197 21.5 84.5197 19.29 82.8697 17.08C81.2097 14.87 77.0697 13.42 74.3097 13.21C71.5497 13 67.2597 11.21 63.5997 11.35C59.9397 11.49 49.6797 12.46 50.0197 17.44ZM98.3397 43.19C98.5697 45.29 101.52 45.75 103.87 47.27C106.22 48.79 107.81 50.38 109.19 49.96C110.57 49.55 112.45 47.34 112.02 43.47C111.47 38.5 108.36 32.14 104.01 32.35C101.38 32.48 101.74 37.05 101.74 37.05C101.74 37.05 98.1997 41.95 98.3397 43.19Z" fill="#FFC86E"/>
<path d="M41.4704 30.23C41.4704 30.23 32.0404 30.17 32.2104 31.11C32.3904 32.05 33.2104 35.15 35.6704 35.27C38.1304 35.39 41.3004 35.62 42.8204 35.15C44.3404 34.68 48.5604 31.28 48.5604 29.76C48.5604 28.24 46.8604 26.01 46.8604 26.01L41.4704 30.23ZM54.9404 47.52C54.9404 47.52 54.8304 47.59 54.6704 47.72C54.2004 48.11 53.3004 49.02 53.6504 50.04C54.1204 51.39 56.8704 53.91 59.5704 53.91C62.2704 53.91 63.7304 51.39 64.2004 49.75C64.6704 48.11 64.4304 47.11 64.4304 47.11L54.9404 47.52ZM33.9104 55.2C33.9104 55.2 32.2704 55.79 32.3304 56.84C32.3904 57.89 32.8004 59.83 34.9104 61.88C37.0404 63.95 40.1304 64.52 42.9404 63.76C45.7504 63 47.8004 60.89 47.5704 58.08C47.3404 55.27 44.6404 53.1 44.6404 53.1L33.9104 55.2ZM21.7804 70.73C21.7804 70.73 20.0204 71.14 20.2004 72.31C20.3804 73.48 22.3704 77.17 25.5304 76.76C28.6904 76.35 33.6804 72.72 33.6804 71.31C33.6804 69.9 31.1604 68.03 31.1604 68.03L21.7804 70.73ZM43.3404 85.38C43.3404 85.38 42.6904 89.16 47.7904 90.54C56.2904 92.83 57.1704 87.67 57.1704 87.67L43.3404 85.38ZM76.7304 87.13C76.7304 87.13 74.4504 89.41 77.0404 91.2C79.6304 92.99 82.5804 93.6 85.3604 93.29C88.1404 92.98 90.0404 90.76 90.0404 90.76L76.7304 87.13ZM98.0104 61.81C98.0104 61.81 93.7104 63.98 97.0404 67.73C99.5704 70.59 105.36 70.01 107.73 68.4C109.28 67.35 109.74 65.49 109.16 64.55C108.57 63.61 98.0104 61.81 98.0104 61.81ZM81.3704 36.97C81.3704 36.97 81.1404 41.88 87.7604 41.72C97.0204 41.49 95.8504 35.74 95.8504 35.74L81.3704 36.97Z" fill="#CF701E"/>
<path d="M85.6498 30.8199C85.6498 30.8199 81.3097 33.5199 80.8397 34.6299C80.3697 35.7399 79.3698 39.2599 84.4098 39.0299C89.4498 38.7999 94.4898 38.6199 96.1898 36.5699C97.8898 34.5199 97.4798 32.6399 96.7798 31.1199C96.0798 29.5999 92.1398 23.8499 89.0098 23.9199C86.9598 23.9599 85.6498 30.8199 85.6498 30.8199Z" fill="#593329"/>
<path d="M88.9896 23.9C88.9896 23.9 86.2396 23.55 83.8296 27.83C81.4296 32.11 80.8096 34.66 80.8096 34.66C80.8096 34.66 85.6996 34.68 88.6296 34.33C91.5596 33.98 93.5496 32.16 93.5496 32.16C93.5496 32.16 91.1596 24.43 88.9896 23.9Z" fill="#925849"/>
<path d="M55.7099 43.89C55.7099 43.89 53.3099 43.73 53.1299 44.66C52.9499 45.6 53.4799 47.99 54.2999 49.04C55.1199 50.09 57.5799 52.44 60.0399 51.97C62.4999 51.5 63.9599 49.09 64.3699 48.26C64.7399 47.48 65.1399 46.64 64.4399 45.59C63.7299 44.53 55.7099 43.89 55.7099 43.89Z" fill="#593329"/>
<path d="M59.28 40.14C57.24 39.92 52.32 43.83 53.2 45.17C54.18 46.64 54.35 45.71 57.05 47.06C59.28 48.17 60.25 49.2 61.65 49.02C63.05 48.84 64.72 46.53 64.43 45.59C64.14 44.65 62.04 40.43 59.28 40.14Z" fill="#925849"/>
<path d="M36.1896 24.3101L31.3896 27.6301C31.3896 27.6301 31.2096 29.8801 32.2096 31.1101C33.2096 32.3401 33.4996 33.1001 38.1896 33.1001C42.8796 33.1001 47.2696 32.4601 48.0896 29.1201C48.9096 25.7801 47.4696 23.6401 46.5896 22.4101C45.7096 21.1801 36.1896 24.3101 36.1896 24.3101Z" fill="#593329"/>
<path d="M36.2495 19.1C35.1695 19.56 32.6195 23.03 32.0295 24.55C31.4395 26.07 31.3095 27.69 31.3895 27.71C32.3595 27.95 38.0695 28.48 40.5895 28.07C43.1095 27.66 45.1595 26.55 45.9795 25.08C46.6295 23.91 46.5795 22.36 46.5795 22.36C46.5795 22.36 44.8695 19.28 42.5195 18.34C40.1795 17.4 36.6595 18.92 36.2495 19.1Z" fill="#925949"/>
<path d="M32.2302 55.42C32.2302 55.42 31.8302 56.03 32.5902 57.2C33.3502 58.37 34.8402 59.77 37.0702 60.42C39.3002 61.06 40.8802 61.94 42.3402 61.77C43.8102 61.59 46.6802 60.42 46.7902 56.38C46.9102 52.34 46.0902 50.46 44.3302 48.7C42.5702 46.94 41.3002 47.24 41.3002 47.24L32.2302 55.42Z" fill="#593329"/>
<path d="M32.7397 51.68C32.1197 52.72 31.6597 56.1 32.4197 56.86C33.1797 57.62 37.7497 57.67 38.9497 57.54C40.1597 57.41 44.1097 55.55 44.1697 54.14C44.2297 52.73 43.4697 50.86 43.4697 50.16C43.4697 49.46 44.3497 47.82 41.9497 47.23C39.5497 46.64 34.0197 49.51 32.7397 51.68Z" fill="#925849"/>
<path d="M24.8204 66.86C24.8204 66.86 21.0504 67.79 20.8104 69.08C20.5804 70.37 21.1204 71.67 22.4104 72.9C23.7004 74.13 24.6404 75.42 25.6304 75.3C26.6304 75.18 29.2604 72.84 30.0804 72.08C30.9004 71.32 32.0704 69.97 31.9604 68.86C31.8504 67.75 31.3704 66.63 30.3204 65.75C29.2804 64.87 24.8204 66.86 24.8204 66.86Z" fill="#593329"/>
<path d="M25.7604 63.52C24.0004 63.56 22.6504 65.6899 22.0704 66.4499C21.4804 67.2099 20.4904 69.03 20.9004 69.32C21.3104 69.61 23.0104 69.79 23.8304 70.32C24.6504 70.85 25.8804 71.67 26.8204 70.91C27.7604 70.15 28.5804 68.0399 29.0504 67.3399C29.5204 66.6399 30.3404 65.76 30.3404 65.76C30.3404 65.76 28.5704 63.46 25.7604 63.52Z" fill="#925849"/>
<path d="M47.2704 77.64C46.9204 78.05 41.9404 82.09 41.9404 82.09C41.9404 82.09 42.1204 85.61 43.2304 86.43C44.3404 87.25 47.8004 88.42 50.0304 88.89C52.2604 89.36 56.2404 89.89 57.2404 89.48C58.2404 89.07 59.2904 86.9 59.3504 84.09C59.4104 81.28 58.4104 79.18 57.3004 77.89C56.1904 76.6 55.3004 76.12 55.3004 76.12L47.2704 77.64Z" fill="#593329"/>
<path d="M53.8896 82.91C54.5396 82.18 55.2996 76.11 55.2996 76.11C55.2996 76.11 50.7896 72.65 48.9096 72.42C47.0296 72.19 44.8096 72.36 44.1596 73.06C43.5196 73.76 40.9996 76.28 41.2296 77.92C41.4596 79.56 41.9296 82.08 41.9296 82.08C41.9296 82.08 52.5396 84.44 53.8896 82.91Z" fill="#925849"/>
<path d="M75.7498 85.8C75.7498 85.8 75.1798 89.6 79.3598 90.32C83.5398 91.03 87.0098 91.98 88.8198 91.6C90.6298 91.22 92.4298 88.8 92.6198 87.04C92.8098 85.28 92.9098 82.74 92.6198 82.05C91.8598 80.22 88.3398 75.21 86.6298 74.68C85.6698 74.39 84.7598 74.55 84.7598 74.55L75.7498 85.8Z" fill="#593329"/>
<path d="M78.4597 79.14C76.5897 81.21 75.6297 84.2 75.7297 85.78C75.8297 87.27 82.9197 86.62 83.7597 86.11C84.5997 85.6 86.4297 83.32 86.4897 82.56C86.5497 81.8 85.9697 79.42 85.8697 77.95C85.7697 76.48 85.7297 74.48 84.9197 74.53C84.1097 74.58 81.1197 76.2 78.4597 79.14Z" fill="#925849"/>
<path d="M102.44 53.34C102.44 53.34 104.09 53.58 106.12 54.8C108.49 56.22 110.97 59.84 110.78 62.79C110.59 65.74 108.02 67.07 104.89 67.12C101.76 67.17 98.7003 67 98.1303 65.38C97.5603 63.76 102.44 53.34 102.44 53.34Z" fill="#593329"/>
<path d="M99.9399 54.33C99.4499 55.01 98.1799 57.09 97.7499 59.75C97.3199 62.41 97.6099 65.45 98.5599 65.98C99.5099 66.5 104.74 61.99 105.02 61.51C105.31 61.03 103.35 53.76 102.73 53.43C102.11 53.1 100.56 53.48 99.9399 54.33Z" fill="#925849"/>
<defs>
<radialGradient id="paint0_radial_521_2" cx="0" cy="0" r="1" gradientUnits="userSpaceOnUse" gradientTransform="translate(64.164 57.596) scale(53.202 53.202)">
<stop offset="0.507" stop-color="#F29F58"/>
<stop offset="0.715" stop-color="#F09D56"/>
<stop offset="0.826" stop-color="#EB9550"/>
<stop offset="0.914" stop-color="#E18745"/>
<stop offset="0.99" stop-color="#D47436"/>
<stop offset="1" stop-color="#D27133"/>
</radialGradient>
</defs>
</svg>
