<svg width="265" height="200" viewBox="0 0 265 200" fill="none" xmlns="http://www.w3.org/2000/svg">
<path d="M175.703 4.58598L260.606 89.5642C263.419 92.3812 265 96.2013 265 100.185C265 104.168 263.419 107.988 260.606 110.805L175.703 195.783C172.873 198.52 169.082 200.034 165.146 199.999C161.211 199.965 157.447 198.385 154.664 195.6C151.882 192.815 150.303 189.047 150.269 185.109C150.235 181.17 151.748 177.376 154.481 174.542L213.765 115.206H15.0084C11.0279 115.206 7.21048 113.624 4.39586 110.807C1.58124 107.989 0 104.169 0 100.185C0 96.2006 1.58124 92.3797 4.39586 89.5626C7.21048 86.7455 11.0279 85.1628 15.0084 85.1628H213.765L154.481 25.8268C153.048 24.4411 151.905 22.7835 151.118 20.9508C150.331 19.118 149.917 17.1469 149.9 15.1523C149.883 13.1577 150.263 11.1797 151.017 9.33355C151.772 7.48742 152.886 5.81022 154.295 4.39978C155.705 2.98935 157.38 1.87393 159.225 1.11862C161.069 0.363315 163.046 -0.0167652 165.038 0.000567168C167.031 0.0178995 169.001 0.432295 170.832 1.21957C172.663 2.00685 174.319 3.15124 175.703 4.58598Z" fill="black"/>
</svg>
