<svg width="200" height="200" viewBox="0 0 200 200" fill="none" xmlns="http://www.w3.org/2000/svg">
<path d="M29.8203 4.90874L100 75.0855L169.816 5.27235C171.358 3.63097 173.216 2.31792 175.278 1.41194C177.34 0.505961 179.564 0.0257135 181.816 0C186.638 0 191.262 1.91544 194.672 5.32495C198.082 8.73445 199.997 13.3587 199.997 18.1805C200.039 20.4095 199.626 22.6236 198.782 24.687C197.938 26.7504 196.681 28.6195 195.088 30.1797L124.363 99.9928L195.088 170.715C198.085 173.646 199.842 177.616 199.997 181.805C199.997 186.627 198.082 191.251 194.672 194.661C191.262 198.07 186.638 199.986 181.816 199.986C179.499 200.082 177.187 199.695 175.027 198.85C172.868 198.005 170.907 196.72 169.271 195.077L100 124.9L30.0021 194.895C28.4659 196.482 26.6306 197.748 24.6023 198.622C22.5739 199.496 20.3926 199.959 18.1842 199.986C13.3623 199.986 8.73778 198.07 5.32813 194.661C1.91848 191.251 0.00295822 186.627 0.00295822 181.805C-0.0394313 179.576 0.374137 177.362 1.21828 175.299C2.06243 173.235 3.31935 171.366 4.9119 169.806L75.6371 99.9928L4.9119 29.2706C1.91536 26.3392 0.158219 22.3695 0.00295822 18.1805C0.00295822 13.3587 1.91848 8.73445 5.32813 5.32495C8.73778 1.91544 13.3623 0 18.1842 0C22.5477 0.0545415 26.7294 1.81805 29.8203 4.90874Z" fill="black"/>
</svg>
