<svg width="200" height="200" viewBox="0 0 200 200" fill="none" xmlns="http://www.w3.org/2000/svg">
<path d="M177.778 111.111V177.778C177.778 183.671 175.437 189.324 171.269 193.491C167.102 197.659 161.449 200 155.556 200H22.2222C16.3285 200 10.6762 197.659 6.50874 193.491C2.34126 189.324 0 183.671 0 177.778V44.4444C0 38.5507 2.34126 32.8984 6.50874 28.731C10.6762 24.5635 16.3285 22.2222 22.2222 22.2222H88.8889V44.4444H22.2222V177.778H155.556V111.111H177.778ZM111.111 0V22.2222H162.067L75.4778 108.811L91.1889 124.522L177.778 37.9333V88.8889H200V0H111.111Z" fill="black"/>
</svg>
