<svg width="218" height="218" viewBox="0 0 218 218" fill="none" xmlns="http://www.w3.org/2000/svg">
<path d="M88.9184 129.082L209 9M88.9184 129.082L127.126 205.497C127.605 206.542 128.374 207.428 129.342 208.049C130.309 208.67 131.435 209 132.584 209C133.734 209 134.86 208.67 135.827 208.049C136.795 207.428 137.564 206.542 138.043 205.497L209 9M88.9184 129.082L12.5028 90.8738C11.4576 90.3949 10.572 89.6259 9.95102 88.6583C9.33008 87.6908 9 86.5653 9 85.4156C9 84.2659 9.33008 83.1404 9.95102 82.1728C10.572 81.2052 11.4576 80.4363 12.5028 79.9573L209 9" stroke="black" stroke-width="16.6667" stroke-linecap="round" stroke-linejoin="round"/>
</svg>
