<svg width="200" height="200" viewBox="0 0 200 200" fill="none" xmlns="http://www.w3.org/2000/svg">
<g clip-path="url(#clip0_961_87)">
<path d="M80.3457 100C80.3457 88.9733 89.1457 80 99.9857 80C110.826 80 119.626 88.9733 119.626 100C119.626 111.027 110.826 120 99.9857 120C89.1457 120 80.3457 111.027 80.3457 100Z" fill="black"/>
<path fill-rule="evenodd" clip-rule="evenodd" d="M74.24 0H125.707L127.893 11.16V11.2L131.493 29C136.6 31.2933 141.36 34.1467 145.733 37.36L163.667 31.2533L174.28 27.9067L179.84 37.6L194.333 62.32L200 72.2267L191.56 79.7333L178.107 91.3867C178.533 94.0133 178.92 96.96 178.92 100C178.92 103.04 178.52 106 178.12 108.613L191.613 120.32L200 127.773L194.293 137.747L179.84 162.4L174.28 172.133L163.52 168.693L145.733 162.64C141.288 165.91 136.516 168.712 131.493 171L127.893 188.8V188.84L125.733 200H74.2667L72.0933 188.813L68.4933 171C63.471 168.712 58.6989 165.91 54.2533 162.64L36.3467 168.733L25.6933 172.133L20.16 162.4L5.65333 137.667L0 127.773L8.42667 120.267L21.8667 108.6C21.3679 105.76 21.1004 102.884 21.0667 100C21.0667 96.9733 21.4667 94 21.88 91.4L8.36 79.6667L0 72.24L5.68 62.2667L20.1467 37.6L25.68 27.8933L36.4533 31.3067L54.24 37.36C58.6856 34.0896 63.4577 31.288 68.48 29L72.08 11.1733L74.24 0ZM100 66.6667C81.92 66.6667 67.2667 81.6 67.2667 100C67.2667 118.4 81.9333 133.333 99.9867 133.333C118.04 133.333 132.707 118.4 132.707 100C132.707 81.6 118.04 66.6667 100 66.6667Z" fill="black"/>
</g>
<defs>
<clipPath id="clip0_961_87">
<rect width="200" height="200" fill="white"/>
</clipPath>
</defs>
</svg>
