<svg width="210" height="200" viewBox="0 0 210 200" fill="none" xmlns="http://www.w3.org/2000/svg">
<path d="M21 200C15.225 200 10.283 197.94 6.174 193.821C2.065 189.702 0.007 184.744 0 178.947V63.1579C0 57.3684 2.058 52.414 6.174 48.2947C10.29 44.1754 15.232 42.1123 21 42.1053H63V21.0526C63 15.2632 65.058 10.3088 69.174 6.18947C73.29 2.07018 78.232 0.00701754 84 0H126C131.775 0 136.72 2.06316 140.836 6.18947C144.952 10.3158 147.007 15.2702 147 21.0526V42.1053H189C194.775 42.1053 199.72 44.1684 203.836 48.2947C207.952 52.421 210.007 57.3754 210 63.1579V178.947C210 184.737 207.945 189.695 203.836 193.821C199.727 197.947 194.782 200.007 189 200H21ZM21 178.947H189V63.1579H21V178.947ZM84 42.1053H126V21.0526H84V42.1053Z" fill="black"/>
</svg>
