<svg width="573" height="182" viewBox="0 0 573 182" fill="none" xmlns="http://www.w3.org/2000/svg">
<path d="M144.28 180.622L127.753 141.553C127.572 141.124 127.892 140.651 128.364 140.651H137.522C137.807 140.651 138.059 140.83 138.15 141.095L147.997 170.005C148.199 170.598 149.05 170.598 149.252 170.005L159.099 141.095C159.19 140.83 159.442 140.651 159.727 140.651H167.771C168.236 140.651 168.556 141.111 168.388 141.538L152.963 180.608C152.864 180.858 152.619 181.023 152.346 181.023H144.891C144.624 181.023 144.383 180.865 144.28 180.622Z" fill="#F1F2FB"/>
<path d="M76.3081 175.063C80.1869 171.247 82.366 166.071 82.366 160.674V141.302C82.366 140.943 82.0697 140.651 81.7041 140.651H75.1086C74.743 140.651 74.4467 140.943 74.4467 141.302V160.674C74.4467 164.005 73.102 167.199 70.7083 169.554C68.3146 171.909 65.0681 173.232 61.683 173.232C58.2978 173.232 55.0513 171.909 52.6577 169.554C50.264 167.199 48.9193 164.005 48.9193 160.674V141.302C48.9193 140.943 48.623 140.651 48.2574 140.651H41.6619C41.2963 140.651 41 140.943 41 141.302V160.674C41 166.071 43.1791 171.247 47.0579 175.063C50.9367 178.879 56.1975 181.023 61.683 181.023C67.1685 181.023 72.4293 178.879 76.3081 175.063Z" fill="#F1F2FB"/>
<path d="M234.924 180.372V141.302C234.924 140.943 235.22 140.651 235.586 140.651H243.955C244.321 140.651 244.617 140.943 244.617 141.302V171.931C244.617 172.29 244.913 172.582 245.279 172.582H263.714C264.08 172.582 264.376 172.873 264.376 173.233V180.372C264.376 180.732 264.08 181.023 263.714 181.023H235.586C235.22 181.023 234.924 180.732 234.924 180.372Z" fill="#F1F2FB"/>
<path d="M173.702 180.372V141.302C173.702 140.943 173.998 140.651 174.364 140.651H182.348C182.713 140.651 183.009 140.943 183.009 141.302V180.372C183.009 180.732 182.713 181.023 182.348 181.023H174.364C173.998 181.023 173.702 180.732 173.702 180.372Z" fill="#F1F2FB"/>
<path d="M286.879 180.983V141.914C286.879 141.554 287.176 141.262 287.541 141.262H295.525C295.89 141.262 296.187 141.554 296.187 141.914V180.983C296.187 181.343 295.89 181.635 295.525 181.635H287.541C287.176 181.635 286.879 181.343 286.879 180.983Z" fill="#F1F2FB"/>
<path d="M306.073 180.983V141.914C306.073 141.554 306.37 141.262 306.735 141.262H314.719C315.084 141.262 315.381 141.554 315.381 141.914V180.983C315.381 181.343 315.084 181.635 314.719 181.635H306.735C306.37 181.635 306.073 181.343 306.073 180.983Z" fill="#F1F2FB"/>
<path d="M306.095 181.19L288.158 145.894C287.998 145.58 288.121 145.198 288.435 145.03L295.215 141.419C295.543 141.244 295.953 141.37 296.121 141.698L314.158 176.868C314.318 177.18 314.199 177.562 313.887 177.731L307.007 181.468C306.678 181.647 306.263 181.521 306.095 181.19Z" fill="#F1F2FB"/>
<path d="M361.338 161.651C361.704 161.651 362.001 161.943 361.989 162.302C361.848 166.64 360.3 170.827 357.563 174.245C354.689 177.834 350.67 180.367 346.155 181.435C341.64 182.504 336.89 182.047 332.671 180.137C328.452 178.227 325.01 174.976 322.897 170.907C320.785 166.837 320.126 162.187 321.027 157.705C321.927 153.223 324.335 149.169 327.862 146.197C331.389 143.224 335.83 141.506 340.471 141.319C344.89 141.141 349.245 142.362 352.9 144.793C353.203 144.994 353.269 145.402 353.054 145.693L349.188 150.95C348.973 151.242 348.56 151.305 348.254 151.11C346.043 149.702 343.437 148.998 340.795 149.104C337.931 149.22 335.19 150.28 333.014 152.114C330.837 153.948 329.351 156.45 328.796 159.216C328.24 161.982 328.646 164.852 329.95 167.363C331.254 169.874 333.378 171.88 335.982 173.059C338.585 174.238 341.516 174.52 344.303 173.86C347.089 173.201 349.569 171.638 351.342 169.423C352.979 167.379 353.927 164.89 354.064 162.302C354.083 161.943 354.377 161.651 354.743 161.651H361.338Z" fill="#F1F2FB"/>
<path d="M342.144 157.582H361.338C361.704 157.582 362 157.873 362 158.233V162.091C362 162.123 361.998 162.156 361.993 162.188L361.588 164.843C361.539 165.161 361.262 165.396 360.936 165.397L353.491 165.423L342.143 165.397C341.778 165.397 341.482 165.105 341.482 164.746V158.233C341.482 157.873 341.779 157.582 342.144 157.582Z" fill="#F1F2FB"/>
<path d="M270.995 180.698V141.628C270.995 141.268 271.291 140.977 271.657 140.977H279.64C280.006 140.977 280.302 141.268 280.302 141.628V180.698C280.302 181.057 280.006 181.349 279.64 181.349H271.657C271.291 181.349 270.995 181.057 270.995 180.698Z" fill="#F1F2FB"/>
<path d="M189.587 180.047V140.977C189.587 140.617 189.883 140.326 190.248 140.326H198.232C198.598 140.326 198.894 140.617 198.894 140.977V180.047C198.894 180.406 198.598 180.698 198.232 180.698H190.248C189.883 180.698 189.587 180.406 189.587 180.047Z" fill="#F1F2FB"/>
<path d="M194.688 159.928L214.749 140.191C214.873 140.069 215.041 140 215.217 140L225.747 140C226.332 140 226.63 140.692 226.222 141.105L201.269 166.389C201.012 166.65 200.587 166.653 200.326 166.396L194.688 160.849C194.429 160.594 194.429 160.182 194.688 159.928Z" fill="#F1F2FB"/>
<path d="M214.857 180.707L194.688 160.864C194.429 160.61 194.429 160.197 194.688 159.943L200.329 154.392C200.589 154.137 201.011 154.138 201.269 154.396L226.699 179.79C227.111 180.202 226.815 180.898 226.227 180.898H215.325C215.149 180.898 214.981 180.83 214.857 180.707Z" fill="#F1F2FB"/>
<path d="M100.567 180.372V149.744C100.567 149.384 100.271 149.093 99.9052 149.093H89.3155C88.9499 149.093 88.6536 148.801 88.6536 148.441V141.302C88.6536 140.943 88.9499 140.651 89.3155 140.651H120.754C121.119 140.651 121.415 140.943 121.415 141.302V148.441C121.415 148.801 121.119 149.093 120.754 149.093H110.536C110.171 149.093 109.874 149.384 109.874 149.744V180.372C109.874 180.732 109.578 181.023 109.213 181.023H101.229C100.863 181.023 100.567 180.732 100.567 180.372Z" fill="#F1F2FB"/>
<path d="M573 62.5C573 97.0178 545.018 125 510.5 125C475.982 125 448 97.0178 448 62.5C448 27.9822 475.982 0 510.5 0C545.018 0 573 27.9822 573 62.5ZM471.931 62.5C471.931 83.8013 489.199 101.069 510.5 101.069C531.801 101.069 549.069 83.8013 549.069 62.5C549.069 41.1987 531.801 23.9305 510.5 23.9305C489.199 23.9305 471.931 41.1987 471.931 62.5Z" fill="#F1F2FB"/>
<path d="M212 123V3C212 1.89543 212.895 1 214 1H239.291C240.396 1 241.291 1.89543 241.291 3V97.0727C241.291 98.1773 242.187 99.0727 243.291 99.0727H299C300.105 99.0727 301 99.9682 301 101.073V123C301 124.105 300.105 125 299 125H214C212.895 125 212 124.105 212 123Z" fill="#F1F2FB"/>
<path d="M330 123V3C330 1.89543 330.895 1 332 1H357.291C358.396 1 359.291 1.89543 359.291 3V97.0727C359.291 98.1773 360.187 99.0727 361.291 99.0727H417C418.105 99.0727 419 99.9682 419 101.073V123C419 124.105 418.105 125 417 125H332C330.895 125 330 124.105 330 123Z" fill="#F1F2FB"/>
<path d="M148 123V3C148 1.89543 148.895 1 150 1H174.125C175.23 1 176.125 1.89543 176.125 3V123C176.125 124.105 175.23 125 174.125 125H150C148.895 125 148 124.105 148 123Z" fill="#F1F2FB"/>
<path d="M50.2712 123.758L1.12942 3.75794C0.590552 2.44208 1.55831 1 2.98024 1H30.1499C31.0131 1 31.779 1.55385 32.0493 2.37367L61.2933 91.0581C61.8972 92.8897 64.4881 92.8897 65.0921 91.0581L94.336 2.37367C94.6064 1.55385 95.3722 1 96.2354 1H120.094C121.496 1 122.463 2.40465 121.963 3.71405L76.097 123.714C75.801 124.488 75.0579 125 74.2288 125H52.122C51.3101 125 50.5788 124.509 50.2712 123.758Z" fill="#F1F2FB"/>
</svg>
