<svg width="239" height="239" viewBox="0 0 239 239" fill="none" xmlns="http://www.w3.org/2000/svg">
<path d="M53.8804 219.374C74.6027 232.99 99.0472 239.823 123.826 238.925C144.771 238.167 147.055 231.058 147.26 228.876C147.3 228.456 147.202 228.046 147.018 227.665C145.905 225.347 140.618 216.88 123.051 217.516C102.714 218.252 82.652 212.644 65.6446 201.47C48.6372 190.295 7.97039 141.374 83.8029 74.1575C159.635 6.94083 200.405 60.4412 208.814 78.9725C217.224 97.5038 219.66 118.192 215.787 138.17C211.913 158.148 222.233 160.823 222.233 160.823C222.233 160.823 232.099 166.59 236.819 142.248C241.538 117.906 238.569 92.6987 228.323 70.1196C218.077 47.5405 201.061 28.7076 179.633 16.231C158.206 3.75445 133.428 -1.74801 108.734 0.486231C84.0394 2.72047 60.6515 12.5808 41.8114 28.7006C22.9712 44.8204 9.61173 66.4015 3.58444 90.4529C-2.44286 114.504 -0.839504 139.835 8.1723 162.935C17.1841 186.034 33.1581 205.759 53.8804 219.374Z" fill="#571DFF"/>
</svg>
