<svg width="239" height="239" viewBox="0 0 239 239" fill="none" xmlns="http://www.w3.org/2000/svg">
<path d="M185.123 19.6293C164.401 6.0137 139.956 -0.818966 115.177 0.0783001C94.2325 0.836728 91.9484 7.94545 91.7431 10.1271C91.7035 10.548 91.8019 10.9577 91.9851 11.3387C93.099 13.6566 98.3853 22.1239 115.953 21.4878C136.289 20.7514 156.352 26.3591 173.359 37.5338C190.366 48.7086 231.033 97.6295 155.201 164.846C79.3682 232.063 38.5987 178.562 30.1894 160.031C21.78 141.5 19.3432 120.812 23.2167 100.834C27.0901 80.8556 16.771 78.1809 16.771 78.1809C16.771 78.1809 6.90431 72.414 2.18479 96.7559C-2.53473 121.098 0.434357 146.305 10.6806 168.884C20.9268 191.463 37.9428 210.296 59.3702 222.773C80.7977 235.249 105.576 240.752 130.27 238.517C154.964 236.283 178.352 226.423 197.192 210.303C216.032 194.183 229.392 172.602 235.419 148.551C241.446 124.499 239.843 99.1684 230.831 76.0689C221.819 52.9694 205.846 33.245 185.123 19.6293Z" fill="oklch(67.37% 0.1213 287.84)"/>
</svg>
