<svg width="521" height="212" viewBox="0 0 521 212" fill="none" xmlns="http://www.w3.org/2000/svg">
<path d="M404.554 38.6493C440.331 43.6947 459.595 82.1554 465.099 106.384C461.764 64.2755 392.971 -13.6097 322.452 34.3698C315.877 38.498 300.068 51.4364 289.427 73.8195C258.987 152.375 327.404 236.076 398.592 189.866C358.818 200.735 320.617 192.612 312.361 157.294C305.143 126.418 328.873 92.1627 368.319 51.7994C382.524 38.1628 398.938 37.7812 404.554 38.6493Z" fill="#858ee0"/>
<path d="M383.509 180.277C348.343 171.985 332.671 131.926 329.403 107.296C328.879 149.533 390.271 233.375 464.878 192.037C471.802 188.526 488.727 177.086 501.367 155.768C538.375 81.2847 479.898 -6.99069 406.13 28.7838L407.583 29.5394C446.474 23.9017 481.335 35.9029 486.153 70.5473C490.521 101.954 463.761 133.899 420.794 170.491C405.403 182.773 389.023 181.654 383.509 180.277Z" fill="#858ee0"/>
<path d="M51.2914 156C46.2247 156 42.3581 154.8 39.6914 152.4C37.0247 149.867 34.8247 146.067 33.0914 141L7.09141 64H23.4914L45.6914 134.6C46.7581 137.8 48.1581 140 49.8914 141.2C51.6247 142.4 53.4247 143 55.2914 143H58.2914L84.4914 64H96.2914L63.8914 156H51.2914ZM116.924 156C116.924 141.733 116.924 127.467 116.924 113.2C116.924 98.9333 116.924 84.6667 116.924 70.4C116.924 68.9333 116.991 67.8 117.124 67C117.391 66.0667 117.858 65.3333 118.524 64.8C119.324 64.2667 120.591 64 122.324 64H132.324V156H116.924ZM179.757 64V147.2H241.157V156H164.557V70.6C164.557 69.1333 164.624 67.9333 164.757 67C164.89 66.0667 165.357 65.3333 166.157 64.8C166.957 64.2667 168.224 64 169.957 64H179.757ZM274.07 64V147.2H335.47V156H258.87V70.6C258.87 69.1333 258.936 67.9333 259.07 67C259.203 66.0667 259.67 65.3333 260.47 64.8C261.27 64.2667 262.536 64 264.27 64H274.07ZM395.782 157.4C387.782 157.4 380.715 156.8 374.582 155.6C368.449 154.4 363.182 152.2 358.782 149C354.515 145.667 351.249 140.867 348.982 134.6C346.715 128.333 345.582 120.067 345.582 109.8C345.582 99.4 346.782 91.0667 349.182 84.8C351.715 78.4 355.249 73.6 359.782 70.4C364.315 67.2 369.715 65.0667 375.982 64C382.382 62.9333 389.515 62.4 397.382 62.4C405.249 62.4 412.249 63 418.382 64.2C424.515 65.2667 429.715 67.4667 433.982 70.8C438.382 74 441.715 78.7333 443.982 85C446.249 91.2667 447.382 99.5333 447.382 109.8C447.382 120.333 446.115 128.733 443.582 135C441.182 141.267 437.715 146.067 433.182 149.4C428.782 152.6 423.382 154.733 416.982 155.8C410.715 156.867 403.649 157.4 395.782 157.4ZM396.382 148.8C401.982 148.8 406.982 148.333 411.382 147.4C415.782 146.333 419.449 144.467 422.382 141.8C425.449 139.133 427.715 135.267 429.182 130.2C430.782 125 431.582 118.2 431.582 109.8C431.582 101.533 430.782 94.8667 429.182 89.8C427.715 84.6 425.449 80.6667 422.382 78C419.449 75.2 415.782 73.3333 411.382 72.4C406.982 71.4667 401.982 71 396.382 71C390.649 71 385.582 71.4667 381.182 72.4C376.915 73.3333 373.315 75.2 370.382 78C367.449 80.6667 365.182 84.6 363.582 89.8C362.115 94.8667 361.382 101.533 361.382 109.8C361.382 118.2 362.115 125 363.582 130.2C365.182 135.267 367.449 139.133 370.382 141.8C373.315 144.467 376.915 146.333 381.182 147.4C385.582 148.333 390.649 148.8 396.382 148.8Z" fill="url(#paint0_linear_403_20)"/>
<path d="M115.354 189.15C115.354 190.583 115.287 191.917 115.154 193.15C115.02 194.35 114.604 195.4 113.904 196.3C113.237 197.2 112.137 197.9 110.604 198.4C109.104 198.9 106.97 199.15 104.204 199.15C102.004 199.15 100.204 199 98.8035 198.7C97.4368 198.367 96.3702 197.9 95.6035 197.3C94.8702 196.7 94.3368 196 94.0035 195.2C93.6702 194.4 93.4535 193.517 93.3535 192.55C93.2868 191.55 93.2535 190.517 93.2535 189.45V178C93.2535 177.467 93.2702 177.05 93.3035 176.75C93.3368 176.45 93.4702 176.25 93.7035 176.15C93.9368 176.05 94.2868 176 94.7535 176H97.1035V191.15C97.1035 192.65 97.3368 193.817 97.8035 194.65C98.3035 195.45 99.0702 196.017 100.104 196.35C101.17 196.683 102.537 196.85 104.204 196.85C106.804 196.85 108.67 196.417 109.804 195.55C110.97 194.65 111.554 193.183 111.554 191.15V176H113.804C114.304 176 114.67 176.05 114.904 176.15C115.137 176.25 115.27 176.45 115.304 176.75C115.337 177.05 115.354 177.467 115.354 178V189.15ZM119.848 176H142.598V178.25H133.148V197.35C133.148 197.983 133.065 198.417 132.898 198.65C132.765 198.883 132.398 199 131.798 199H129.348V178.25H119.848V176ZM155.599 199C154.333 199 153.366 198.7 152.699 198.1C152.033 197.467 151.483 196.517 151.049 195.25L144.549 176H148.649L154.199 193.65C154.466 194.45 154.816 195 155.249 195.3C155.683 195.6 156.133 195.75 156.599 195.75H157.349L163.899 176H166.849L158.749 199H155.599ZM172.007 199C172.007 195.433 172.007 191.867 172.007 188.3C172.007 184.733 172.007 181.167 172.007 177.6C172.007 177.233 172.024 176.95 172.057 176.75C172.124 176.517 172.241 176.333 172.407 176.2C172.607 176.067 172.924 176 173.357 176H175.857V199H172.007ZM202.616 199.25C202.116 199.25 201.649 199.183 201.216 199.05C200.782 198.917 200.349 198.683 199.916 198.35C199.716 198.15 199.366 197.783 198.866 197.25C198.399 196.717 197.849 196.117 197.216 195.45C196.616 194.75 195.999 194.05 195.366 193.35C194.732 192.617 194.166 191.967 193.666 191.4C193.166 190.833 192.799 190.417 192.566 190.15C192.199 189.75 191.882 189.467 191.616 189.3C191.349 189.133 190.932 188.983 190.366 188.85L187.716 188.75V199H183.916V177.4C183.916 177.067 183.932 176.8 183.966 176.6C184.032 176.4 184.149 176.25 184.316 176.15C184.516 176.05 184.816 176 185.216 176C185.649 176 186.066 176 186.466 176C186.899 176 187.316 176 187.716 176C187.716 176.467 187.716 177.15 187.716 178.05C187.716 178.917 187.716 179.85 187.716 180.85C187.716 181.817 187.716 182.75 187.716 183.65C187.716 184.517 187.716 185.183 187.716 185.65L190.366 185.5C190.832 185.467 191.182 185.367 191.416 185.2C191.649 185.033 191.916 184.783 192.216 184.45C192.949 183.65 193.716 182.817 194.516 181.95C195.349 181.083 196.199 180.2 197.066 179.3C197.932 178.4 198.749 177.533 199.516 176.7C199.916 176.4 200.332 176.183 200.766 176.05C201.199 175.917 201.699 175.85 202.266 175.85C202.732 175.85 203.116 175.883 203.416 175.95C203.716 176.017 204.016 176.1 204.316 176.2C204.249 176.233 204.016 176.467 203.616 176.9C203.249 177.3 202.816 177.767 202.316 178.3C201.816 178.8 201.382 179.25 201.016 179.65C200.149 180.45 199.232 181.283 198.266 182.15C197.299 183.017 196.366 183.883 195.466 184.75C194.599 185.583 193.782 186.367 193.016 187.1L193.166 186.3C193.632 186.667 194.282 187.283 195.116 188.15C195.982 188.983 196.966 189.983 198.066 191.15C199.166 192.283 200.316 193.483 201.516 194.75C202.716 196.017 203.882 197.2 205.016 198.3C204.949 198.4 204.799 198.533 204.566 198.7C204.332 198.833 204.066 198.95 203.766 199.05C203.466 199.183 203.082 199.25 202.616 199.25ZM213.638 176V196.8H228.988V199H209.838V177.65C209.838 177.283 209.854 176.983 209.888 176.75C209.921 176.517 210.038 176.333 210.238 176.2C210.438 176.067 210.754 176 211.188 176H213.638ZM233.416 199C233.416 195.433 233.416 191.867 233.416 188.3C233.416 184.733 233.416 181.167 233.416 177.6C233.416 177.233 233.432 176.95 233.466 176.75C233.532 176.517 233.649 176.333 233.816 176.2C234.016 176.067 234.332 176 234.766 176H237.266V199H233.416ZM245.324 199V178.05C245.324 177.15 245.39 176.583 245.524 176.35C245.69 176.117 246.14 176 246.874 176H250.224L265.124 195.05L265.274 195.15V176H268.224C268.19 176.033 268.157 176.167 268.124 176.4C268.09 176.6 268.074 176.833 268.074 177.1C268.074 177.333 268.074 177.567 268.074 177.8V197.1C268.074 197.967 267.957 198.5 267.724 198.7C267.524 198.9 267.074 199 266.374 199H263.274L248.224 179.8L248.174 179.6V199H245.324ZM286.675 199.35C284.375 199.35 282.442 199.167 280.875 198.8C279.308 198.433 278.042 197.8 277.075 196.9C276.142 195.967 275.458 194.75 275.025 193.25C274.592 191.717 274.375 189.817 274.375 187.55C274.375 185.05 274.658 183.033 275.225 181.5C275.792 179.933 276.608 178.733 277.675 177.9C278.775 177.067 280.108 176.5 281.675 176.2C283.242 175.867 285.042 175.7 287.075 175.7C288.742 175.7 290.275 175.75 291.675 175.85C293.108 175.917 294.342 176.067 295.375 176.3C296.042 176.4 296.525 176.55 296.825 176.75C297.158 176.95 297.358 177.183 297.425 177.45C297.525 177.683 297.575 177.933 297.575 178.2V179.2C297.342 179 296.925 178.833 296.325 178.7C295.725 178.567 295.025 178.45 294.225 178.35C293.458 178.25 292.658 178.167 291.825 178.1C290.992 178 290.192 177.95 289.425 177.95C288.692 177.917 288.075 177.9 287.575 177.9C285.242 177.9 283.408 178.183 282.075 178.75C280.742 179.317 279.775 180.3 279.175 181.7C278.608 183.067 278.325 185.017 278.325 187.55C278.325 189.983 278.575 191.9 279.075 193.3C279.608 194.7 280.492 195.7 281.725 196.3C282.992 196.867 284.692 197.15 286.825 197.15C288.758 197.15 290.292 196.967 291.425 196.6C292.558 196.233 293.392 195.533 293.925 194.5C294.458 193.467 294.742 192.017 294.775 190.15C294.808 189.717 294.808 189.35 294.775 189.05C294.775 188.717 294.775 188.467 294.775 188.3H285.325C285.325 187.7 285.358 187.25 285.425 186.95C285.525 186.65 285.708 186.433 285.975 186.3C286.275 186.167 286.725 186.1 287.325 186.1H298.525V190.05C298.525 191.85 298.308 193.35 297.875 194.55C297.475 195.717 296.808 196.667 295.875 197.4C294.975 198.1 293.758 198.6 292.225 198.9C290.725 199.2 288.875 199.35 286.675 199.35Z" fill="url(#paint1_linear_403_20)"/>
<defs>
<linearGradient id="paint0_linear_403_20" x1="-1.32802" y1="96.3471" x2="458.17" y2="96.3471" gradientUnits="userSpaceOnUse">
<stop stop-color="#fbfbfe"/>
<stop offset="1" stop-color="#f3f4fc"/>
</linearGradient>
<linearGradient id="paint1_linear_403_20" x1="1.88898" y1="184.101" x2="386.306" y2="184.101" gradientUnits="userSpaceOnUse">
<stop stop-color="#f3f4fc"/>
<stop offset="1" stop-color="#fbfbfe"/>
</linearGradient>
</defs>
</svg>
