<svg width="672" height="246" viewBox="0 0 672 246" fill="none"   shape-rendering="geometricPrecision" xmlns="http://www.w3.org/2000/svg">
<g filter="url(#filter0_d_824_106)">
<path d="M144.28 242.622L127.753 203.553C127.572 203.124 127.892 202.651 128.364 202.651H137.522C137.807 202.651 138.059 202.83 138.15 203.095L147.997 232.005C148.199 232.598 149.05 232.598 149.252 232.005L159.099 203.095C159.19 202.83 159.442 202.651 159.727 202.651H167.771C168.236 202.651 168.556 203.111 168.388 203.538L152.963 242.608C152.864 242.858 152.619 243.023 152.346 243.023H144.891C144.624 243.023 144.383 242.865 144.28 242.622Z" fill="#2D333E"/>
<path d="M76.3081 237.063C80.1869 233.247 82.366 228.071 82.366 222.674V203.302C82.366 202.943 82.0697 202.651 81.7041 202.651H75.1086C74.743 202.651 74.4467 202.943 74.4467 203.302V222.674C74.4467 226.005 73.102 229.199 70.7083 231.554C68.3146 233.909 65.0681 235.232 61.683 235.232C58.2978 235.232 55.0513 233.909 52.6577 231.554C50.264 229.199 48.9193 226.005 48.9193 222.674V203.302C48.9193 202.943 48.623 202.651 48.2574 202.651H41.6619C41.2963 202.651 41 202.943 41 203.302V222.674C41 228.071 43.1791 233.247 47.0579 237.063C50.9367 240.879 56.1975 243.023 61.683 243.023C67.1685 243.023 72.4293 240.879 76.3081 237.063Z" fill="#2D333E"/>
<path d="M234.924 242.372V203.302C234.924 202.943 235.22 202.651 235.586 202.651H243.955C244.321 202.651 244.617 202.943 244.617 203.302V233.931C244.617 234.29 244.913 234.582 245.279 234.582H263.714C264.08 234.582 264.376 234.873 264.376 235.233V242.372C264.376 242.732 264.08 243.023 263.714 243.023H235.586C235.22 243.023 234.924 242.732 234.924 242.372Z" fill="#2D333E"/>
<path d="M173.702 242.372V203.302C173.702 202.943 173.998 202.651 174.364 202.651H182.348C182.713 202.651 183.009 202.943 183.009 203.302V242.372C183.009 242.732 182.713 243.023 182.348 243.023H174.364C173.998 243.023 173.702 242.732 173.702 242.372Z" fill="#2D333E"/>
<path d="M286.879 242.983V203.914C286.879 203.554 287.176 203.262 287.541 203.262H295.525C295.89 203.262 296.187 203.554 296.187 203.914V242.983C296.187 243.343 295.89 243.635 295.525 243.635H287.541C287.176 243.635 286.879 243.343 286.879 242.983Z" fill="#2D333E"/>
<path d="M306.073 242.983V203.914C306.073 203.554 306.37 203.262 306.735 203.262H314.719C315.084 203.262 315.381 203.554 315.381 203.914V242.983C315.381 243.343 315.084 243.635 314.719 243.635H306.735C306.37 243.635 306.073 243.343 306.073 242.983Z" fill="#2D333E"/>
<path d="M306.095 243.19L288.158 207.894C287.998 207.58 288.121 207.198 288.435 207.03L295.215 203.419C295.543 203.244 295.953 203.37 296.121 203.698L314.158 238.868C314.318 239.18 314.199 239.562 313.887 239.731L307.007 243.468C306.678 243.647 306.263 243.521 306.095 243.19Z" fill="#2D333E"/>
<path d="M361.338 223.651C361.704 223.651 362.001 223.943 361.989 224.302C361.848 228.64 360.3 232.827 357.563 236.245C354.689 239.834 350.67 242.367 346.155 243.435C341.64 244.504 336.89 244.047 332.671 242.137C328.452 240.227 325.01 236.976 322.897 232.907C320.785 228.837 320.126 224.187 321.027 219.705C321.927 215.223 324.335 211.169 327.862 208.197C331.389 205.224 335.83 203.506 340.471 203.319C344.89 203.141 349.245 204.362 352.9 206.793C353.203 206.994 353.269 207.402 353.054 207.693L349.188 212.95C348.973 213.242 348.56 213.305 348.254 213.11C346.043 211.702 343.437 210.998 340.795 211.104C337.931 211.22 335.19 212.28 333.014 214.114C330.837 215.948 329.351 218.45 328.796 221.216C328.24 223.982 328.646 226.852 329.95 229.363C331.254 231.874 333.378 233.88 335.982 235.059C338.585 236.238 341.516 236.52 344.303 235.86C347.089 235.201 349.569 233.638 351.342 231.423C352.979 229.379 353.927 226.89 354.064 224.302C354.083 223.943 354.377 223.651 354.743 223.651H361.338Z" fill="#2D333E"/>
<path d="M342.144 219.582H361.338C361.704 219.582 362 219.873 362 220.233V224.091C362 224.123 361.998 224.156 361.993 224.188L361.588 226.843C361.539 227.161 361.262 227.396 360.936 227.397L353.491 227.423L342.143 227.397C341.778 227.397 341.482 227.105 341.482 226.746V220.233C341.482 219.873 341.779 219.582 342.144 219.582Z" fill="#2D333E"/>
<path d="M270.995 242.698V203.628C270.995 203.268 271.291 202.977 271.657 202.977H279.64C280.006 202.977 280.302 203.268 280.302 203.628V242.698C280.302 243.057 280.006 243.349 279.64 243.349H271.657C271.291 243.349 270.995 243.057 270.995 242.698Z" fill="#2D333E"/>
<path d="M189.587 242.047V202.977C189.587 202.617 189.883 202.326 190.248 202.326H198.232C198.598 202.326 198.894 202.617 198.894 202.977V242.047C198.894 242.406 198.598 242.698 198.232 242.698H190.248C189.883 242.698 189.587 242.406 189.587 242.047Z" fill="#2D333E"/>
<path d="M194.688 221.928L214.749 202.191C214.873 202.069 215.041 202 215.217 202L225.747 202C226.332 202 226.63 202.692 226.222 203.105L201.269 228.389C201.012 228.65 200.587 228.653 200.326 228.396L194.688 222.849C194.429 222.594 194.429 222.182 194.688 221.928Z" fill="#2D333E"/>
<path d="M214.857 242.707L194.688 222.864C194.429 222.61 194.429 222.197 194.688 221.943L200.329 216.392C200.589 216.137 201.011 216.138 201.269 216.396L226.699 241.79C227.111 242.202 226.815 242.898 226.227 242.898H215.325C215.149 242.898 214.981 242.83 214.857 242.707Z" fill="#2D333E"/>
<path d="M100.567 242.372V211.744C100.567 211.384 100.271 211.093 99.9052 211.093H89.3155C88.9499 211.093 88.6536 210.801 88.6536 210.441V203.302C88.6536 202.943 88.9499 202.651 89.3155 202.651H120.754C121.119 202.651 121.415 202.943 121.415 203.302V210.441C121.415 210.801 121.119 211.093 120.754 211.093H110.536C110.171 211.093 109.874 211.384 109.874 211.744V242.372C109.874 242.732 109.578 243.023 109.213 243.023H101.229C100.863 243.023 100.567 242.732 100.567 242.372Z" fill="#2D333E"/>
</g>
<g filter="url(#filter1_d_824_106)">
<path d="M616.123 19.6293C595.401 6.0137 570.956 -0.818966 546.177 0.0783001C525.232 0.836728 522.948 7.94545 522.743 10.1271C522.703 10.548 522.802 10.9577 522.985 11.3387C524.099 13.6566 529.385 22.1239 546.953 21.4878C567.289 20.7514 587.352 26.3591 604.359 37.5338C621.366 48.7086 662.033 97.6295 586.201 164.846C510.368 232.063 469.599 178.562 461.189 160.031C452.78 141.5 450.343 120.812 454.217 100.834C458.09 80.8556 447.771 78.1809 447.771 78.1809C447.771 78.1809 437.904 72.414 433.185 96.7559C428.465 121.098 431.434 146.305 441.681 168.884C451.927 191.463 468.943 210.296 490.37 222.773C511.798 235.249 536.576 240.752 561.27 238.517C585.964 236.283 609.352 226.423 628.192 210.303C647.032 194.183 660.392 172.602 666.419 148.551C672.446 124.499 670.843 99.1684 661.831 76.0689C652.819 52.9693 636.846 33.245 616.123 19.6293Z" fill="#571DFF"/>
<path d="M573 124.5C573 159.018 545.018 187 510.5 187C475.982 187 448 159.018 448 124.5C448 89.9822 475.982 62 510.5 62C545.018 62 573 89.9822 573 124.5ZM471.931 124.5C471.931 145.801 489.199 163.069 510.5 163.069C531.801 163.069 549.069 145.801 549.069 124.5C549.069 103.199 531.801 85.9305 510.5 85.9305C489.199 85.9305 471.931 103.199 471.931 124.5Z" fill="#2D333E"/>
<path d="M405.88 224.374C426.603 237.99 451.047 244.823 475.826 243.925C496.771 243.167 499.055 236.058 499.26 233.876C499.3 233.456 499.202 233.046 499.018 232.665C497.905 230.347 492.618 221.88 475.051 222.516C454.714 223.252 434.652 217.644 417.645 206.47C400.637 195.295 359.97 146.374 435.803 79.1575C511.635 11.9408 552.405 65.4412 560.814 83.9725C569.224 102.504 571.66 123.192 567.787 143.17C563.913 163.148 574.233 165.823 574.233 165.823C574.233 165.823 584.099 171.59 588.819 147.248C593.538 122.906 590.569 97.6987 580.323 75.1196C570.077 52.5405 553.061 33.7076 531.633 21.231C510.206 8.75445 485.428 3.25199 460.734 5.48623C436.039 7.72047 412.652 17.5808 393.811 33.7006C374.971 49.8204 361.612 71.4015 355.584 95.4529C349.557 119.504 351.16 144.835 360.172 167.935C369.184 191.034 385.158 210.759 405.88 224.374Z" fill="#571DFF"/>
<path d="M212 185V65C212 63.8954 212.895 63 214 63H239.291C240.396 63 241.291 63.8954 241.291 65V159.073C241.291 160.177 242.187 161.073 243.291 161.073H299C300.105 161.073 301 161.968 301 163.073V185C301 186.105 300.105 187 299 187H214C212.895 187 212 186.105 212 185Z" fill="#2D333E"/>
<path d="M330 185V65C330 63.8954 330.895 63 332 63H357.291C358.396 63 359.291 63.8954 359.291 65V159.073C359.291 160.177 360.187 161.073 361.291 161.073H417C418.105 161.073 419 161.968 419 163.073V185C419 186.105 418.105 187 417 187H332C330.895 187 330 186.105 330 185Z" fill="#2D333E"/>
<path d="M148 185V65C148 63.8954 148.895 63 150 63H174.125C175.23 63 176.125 63.8954 176.125 65V185C176.125 186.105 175.23 187 174.125 187H150C148.895 187 148 186.105 148 185Z" fill="#2D333E"/>
<path d="M50.2712 185.758L1.12942 65.7579C0.590552 64.4421 1.55831 63 2.98024 63H30.1499C31.0131 63 31.779 63.5539 32.0493 64.3737L61.2933 153.058C61.8972 154.89 64.4881 154.89 65.0921 153.058L94.336 64.3737C94.6064 63.5539 95.3722 63 96.2354 63H120.094C121.496 63 122.463 64.4047 121.963 65.714L76.097 185.714C75.801 186.488 75.0579 187 74.2288 187H52.122C51.3101 187 50.5788 186.509 50.2712 185.758Z" fill="#2D333E"/>
</g>
<defs>
<filter id="filter0_d_824_106" x="41" y="202" width="323" height="44" filterUnits="userSpaceOnUse" color-interpolation-filters="sRGB">
<feFlood flood-opacity="0" result="BackgroundImageFix"/>
<feColorMatrix in="SourceAlpha" type="matrix" values="0 0 0 0 0 0 0 0 0 0 0 0 0 0 0 0 0 0 127 0" result="hardAlpha"/>
<feOffset dx="2" dy="2"/>
<feComposite in2="hardAlpha" operator="out"/>
<feColorMatrix type="matrix" values="0 0 0 0 0.521569 0 0 0 0 0.556863 0 0 0 0 0.878431 0 0 0 1 0"/>
<feBlend mode="normal" in2="BackgroundImageFix" result="effect1_dropShadow_824_106"/>
<feBlend mode="normal" in="SourceGraphic" in2="effect1_dropShadow_824_106" result="shape"/>
</filter>
<filter id="filter1_d_824_106" x="0.978027" y="0" width="671.025" height="246.004" filterUnits="userSpaceOnUse" color-interpolation-filters="sRGB">
<feFlood flood-opacity="0" result="BackgroundImageFix"/>
<feColorMatrix in="SourceAlpha" type="matrix" values="0 0 0 0 0 0 0 0 0 0 0 0 0 0 0 0 0 0 127 0" result="hardAlpha"/>
<feOffset dx="2" dy="2"/>
<feComposite in2="hardAlpha" operator="out"/>
<feColorMatrix type="matrix" values="0 0 0 0 0.521569 0 0 0 0 0.556863 0 0 0 0 0.878431 0 0 0 1 0"/>
<feBlend mode="normal" in2="BackgroundImageFix" result="effect1_dropShadow_824_106"/>
<feBlend mode="normal" in="SourceGraphic" in2="effect1_dropShadow_824_106" result="shape"/>
</filter>
</defs>
</svg>
