<svg width="318" height="244" viewBox="0 0 318 244" fill="none"   shape-rendering="geometricPrecision" xmlns="http://www.w3.org/2000/svg">
<path d="M264.123 19.6293C243.401 6.0137 218.956 -0.818966 194.177 0.0783001C173.232 0.836728 170.948 7.94545 170.743 10.1271C170.703 10.548 170.802 10.9577 170.985 11.3387C172.099 13.6566 177.385 22.1239 194.953 21.4878C215.289 20.7514 235.352 26.3591 252.359 37.5338C269.366 48.7086 310.033 97.6295 234.201 164.846C158.368 232.063 117.599 178.562 109.189 160.031C100.78 141.5 98.3432 120.812 102.217 100.834C106.09 80.8556 95.771 78.1809 95.771 78.1809C95.771 78.1809 85.9043 72.414 81.1848 96.7559C76.4653 121.098 79.4344 146.305 89.6806 168.884C99.9268 191.463 116.943 210.296 138.37 222.773C159.798 235.249 184.576 240.752 209.27 238.517C233.964 236.283 257.352 226.423 276.192 210.303C295.032 194.183 308.392 172.602 314.419 148.551C320.446 124.499 318.843 99.1684 309.831 76.0689C300.819 52.9694 284.846 33.245 264.123 19.6293Z" fill="#571DFF"/>
<path d="M53.8804 224.374C74.6027 237.99 99.0472 244.823 123.826 243.925C144.771 243.167 147.055 236.058 147.26 233.876C147.3 233.456 147.202 233.046 147.018 232.665C145.905 230.347 140.618 221.88 123.051 222.516C102.714 223.252 82.652 217.644 65.6446 206.47C48.6372 195.295 7.97039 146.374 83.8029 79.1575C159.635 11.9408 200.405 65.4412 208.814 83.9725C217.224 102.504 219.66 123.192 215.787 143.17C211.913 163.148 222.233 165.823 222.233 165.823C222.233 165.823 232.099 171.59 236.819 147.248C241.538 122.906 238.569 97.6987 228.323 75.1196C218.077 52.5405 201.061 33.7076 179.633 21.231C158.206 8.75445 133.428 3.25199 108.734 5.48623C84.0394 7.72047 60.6515 17.5808 41.8114 33.7006C22.9712 49.8204 9.61173 71.4015 3.58444 95.4529C-2.44286 119.504 -0.839504 144.835 8.1723 167.935C17.1841 191.034 33.1581 210.759 53.8804 224.374Z" fill="#571DFF"/>
</svg>
