<svg width="167" height="167" viewBox="0 0 167 167" fill="none" xmlns="http://www.w3.org/2000/svg">
<path d="M149.167 2.56277C148.872 1.80773 148.357 1.15915 147.688 0.701891C147.019 0.244635 146.227 0 145.417 0C144.606 0 143.815 0.244635 143.146 0.701891C142.477 1.15915 141.961 1.80773 141.667 2.56277L138.083 11.6878C137.882 12.2035 137.578 12.6724 137.188 13.0652C136.798 13.4581 136.331 13.7664 135.817 13.9711L126.725 17.5711C125.972 17.871 125.327 18.3899 124.872 19.0606C124.417 19.7314 124.174 20.5232 124.174 21.3336C124.174 22.144 124.417 22.9358 124.872 23.6066C125.327 24.2773 125.972 24.7962 126.725 25.0961L135.817 28.6961C136.331 28.8981 136.798 29.2046 137.188 29.5961C137.579 29.9877 137.883 30.4559 138.083 30.9711L141.667 40.0878C143.017 43.5044 147.833 43.5044 149.167 40.0878L152.75 30.9628C152.953 30.4478 153.26 29.98 153.651 29.5886C154.042 29.1972 154.51 28.8906 155.025 28.6878L164.117 25.0878C164.87 24.7879 165.515 24.269 165.97 23.5982C166.425 22.9275 166.668 22.1357 166.668 21.3253C166.668 20.5148 166.425 19.7231 165.97 19.0523C165.515 18.3815 164.87 17.8627 164.117 17.5628L155.025 13.9628C154.509 13.759 154.041 13.4511 153.65 13.0582C153.258 12.6654 152.952 12.196 152.75 11.6794L149.167 2.56277ZM116.942 51.0878C116.647 50.3327 116.132 49.6841 115.463 49.2269C114.794 48.7696 114.002 48.525 113.192 48.525C112.381 48.525 111.59 48.7696 110.921 49.2269C110.252 49.6841 109.736 50.3327 109.442 51.0878L108.133 54.4128C107.932 54.927 107.626 55.3942 107.236 55.7856C106.846 56.1769 106.38 56.484 105.867 56.6878L102.55 58.0044C101.797 58.3043 101.152 58.8232 100.697 59.494C100.242 60.1647 99.9988 60.9565 99.9988 61.7669C99.9988 62.5774 100.242 63.3691 100.697 64.0399C101.152 64.7107 101.797 65.2295 102.55 65.5294L105.867 66.8378C106.908 67.2544 107.725 68.0711 108.133 69.1211L109.442 72.4461C110.783 75.8628 115.6 75.8628 116.942 72.4461L118.25 69.1128C118.452 68.5985 118.757 68.1313 119.147 67.7399C119.537 67.3486 120.003 67.0415 120.517 66.8378L123.833 65.5294C124.586 65.2295 125.232 64.7107 125.687 64.0399C126.142 63.3691 126.385 62.5774 126.385 61.7669C126.385 60.9565 126.142 60.1647 125.687 59.494C125.232 58.8232 124.586 58.3043 123.833 58.0044L120.517 56.6878C120.003 56.484 119.537 56.1769 119.147 55.7856C118.757 55.3942 118.452 54.927 118.25 54.4128L116.942 51.0794V51.0878Z" fill="#858ee0"/>
<path d="M83.3333 166.671C129.358 166.671 166.667 129.363 166.667 83.3377C166.667 79.4794 160.883 78.8377 158.892 82.1461C154.644 89.1822 148.85 95.1594 141.95 99.625C135.05 104.09 127.224 106.927 119.065 107.92C110.906 108.913 102.629 108.037 94.8587 105.357C87.0889 102.677 80.0308 98.2638 74.219 92.452C68.4073 86.6403 63.9943 79.5822 61.3144 71.8123C58.6344 64.0425 57.7577 55.7646 58.7508 47.6058C59.7439 39.447 62.5806 31.6211 67.0461 24.7209C71.5116 17.8208 77.4888 12.0274 84.525 7.77939C87.8333 5.7794 87.1917 0.00439453 83.3333 0.00439453C37.3083 0.00439453 0 37.3127 0 83.3377C0 129.363 37.3083 166.671 83.3333 166.671Z" fill="#858ee0"/>
</svg>
