<svg width="239" height="200" viewBox="0 0 239 200" fill="none" xmlns="http://www.w3.org/2000/svg">
<path d="M122.554 27.6493C158.331 32.6947 177.595 71.1554 183.099 95.3843C179.764 53.2755 110.971 -24.6097 40.4516 23.3698C33.8772 27.498 18.0681 40.4364 7.42693 62.8195C-23.0129 141.375 45.4037 225.076 116.592 178.866C76.818 189.735 38.6169 181.612 30.3607 146.294C23.1429 115.418 46.873 81.1627 86.319 40.7994C100.524 27.1628 116.938 26.7812 122.554 27.6493Z" fill="#571dff"/>
<path d="M101.509 169.277C66.343 160.985 50.6714 120.926 47.4031 96.2956C46.8788 138.533 108.271 222.375 182.878 181.037C189.802 177.526 206.727 166.086 219.367 144.768C256.375 70.2847 197.898 -17.9907 124.13 17.7838L125.583 18.5394C164.474 12.9017 199.335 24.9029 204.153 59.5473C208.521 90.9536 181.761 122.899 138.794 159.491C123.403 171.773 107.023 170.654 101.509 169.277Z" fill="#571dff"/>
</svg>
