<svg width="267" height="200" viewBox="0 0 267 200" fill="none" xmlns="http://www.w3.org/2000/svg">
<path d="M253.65 0.0877447C252.513 -0.0292482 251.367 -0.0292482 250.229 0.0877447H16.6042C15.1069 0.110777 13.6195 0.334914 12.182 0.754118L132.749 120.618L253.65 0.0877447Z" fill="black"/>
<path d="M265.999 11.666L144.514 132.446C141.387 135.549 137.158 137.291 132.749 137.291C128.34 137.291 124.111 135.549 120.984 132.446L0.584063 12.5823C0.213929 13.9404 0.0176778 15.3398 0 16.7471V183.341C0 187.759 1.75814 191.996 4.88766 195.121C8.01717 198.245 12.2617 200 16.6875 200H250.312C254.738 200 258.983 198.245 262.112 195.121C265.242 191.996 267 187.759 267 183.341V16.7471C266.934 15.0117 266.596 13.2973 265.999 11.666ZM28.1184 183.341H16.5206V171.429L77.1797 111.372L88.9444 123.117L28.1184 183.341ZM250.146 183.341H238.464L177.638 123.117L189.403 111.372L250.062 171.429L250.146 183.341Z" fill="black"/>
</svg>
