<svg width="200" height="200" viewBox="0 0 200 200" fill="none" xmlns="http://www.w3.org/2000/svg">
<path d="M189 0H11C8.08262 0 5.28473 1.15893 3.22183 3.22183C1.15893 5.28473 0 8.08262 0 11V189C0 191.917 1.15893 194.715 3.22183 196.778C5.28473 198.841 8.08262 200 11 200H106.8V122.5H80.8V92.5H106.8V70C106.261 64.7176 106.885 59.3813 108.627 54.3654C110.369 49.3495 113.188 44.7755 116.885 40.9641C120.582 37.1528 125.068 34.1964 130.028 32.3024C134.989 30.4083 140.304 29.6225 145.6 30C153.383 29.9463 161.163 30.3469 168.9 31.2V58.2H153C140.4 58.2 138 64.2 138 72.9V92.2H168L164.1 122.2H138V200H189C190.445 200 191.875 199.715 193.21 199.163C194.544 198.61 195.757 197.8 196.778 196.778C197.8 195.757 198.61 194.544 199.163 193.21C199.715 191.875 200 190.445 200 189V11C200 9.55546 199.715 8.12506 199.163 6.79048C198.61 5.4559 197.8 4.24327 196.778 3.22183C195.757 2.20038 194.544 1.39013 193.21 0.837326C191.875 0.284524 190.445 0 189 0Z" fill="black"/>
</svg>
