<svg width="200" height="201" viewBox="0 0 200 201" fill="none" xmlns="http://www.w3.org/2000/svg">
<path d="M100 0C86.8678 0 73.8642 2.65079 61.7317 7.80103C49.5991 12.9513 38.5752 20.5001 29.2893 30.0165C10.5357 49.2357 0 75.3026 0 102.483C0 147.78 28.7 186.211 68.4 199.841C73.4 200.661 75 197.484 75 194.717V177.398C47.3 183.547 41.4 163.665 41.4 163.665C36.8 151.777 30.3 148.6 30.3 148.6C21.2 142.246 31 142.451 31 142.451C41 143.168 46.3 153.007 46.3 153.007C55 168.584 69.7 163.972 75.4 161.513C76.3 154.851 78.9 150.342 81.7 147.78C59.5 145.218 36.2 136.404 36.2 97.3586C36.2 85.983 40 76.862 46.5 69.5858C45.5 67.0237 42 56.3655 47.5 42.5303C47.5 42.5303 55.9 39.7633 75 52.9836C82.9 50.7289 91.5 49.6016 100 49.6016C108.5 49.6016 117.1 50.7289 125 52.9836C144.1 39.7633 152.5 42.5303 152.5 42.5303C158 56.3655 154.5 67.0237 153.5 69.5858C160 76.862 163.8 85.983 163.8 97.3586C163.8 136.507 140.4 145.116 118.1 147.678C121.7 150.855 125 157.106 125 166.637V194.717C125 197.484 126.6 200.764 131.7 199.841C171.4 186.109 200 147.78 200 102.483C200 89.0245 197.413 75.698 192.388 63.2643C187.362 50.8305 179.997 39.5329 170.711 30.0165C161.425 20.5001 150.401 12.9513 138.268 7.80103C126.136 2.65079 113.132 0 100 0Z" fill="black"/>
</svg>
