<svg width="530" height="295" viewBox="0 0 530 295" fill="none" xmlns="http://www.w3.org/2000/svg">
<path d="M247.247 141.206H253.247V135.206V112.233H281.521V167.425H199V58.5199L223.986 40.1966V135.206V141.206H229.986H247.247Z" stroke="black" stroke-width="12"/>
<path d="M281.726 61.4384V82.5616H253.041V18.6282L268.039 7.453L337 57.7092V167.63H310.575V73.9726V70.9579L308.157 69.1585L291.307 56.6243L281.726 49.4968V61.4384Z" stroke="black" stroke-width="12"/>
<path d="M258.341 275.951H243.607L241.169 283H233.378L246.681 245.953H255.32L268.623 283H260.779L258.341 275.951ZM256.327 270.015L250.974 254.539L245.621 270.015H256.327ZM314.776 283H307.356L290.555 257.613V283H283.135V245.953H290.555L307.356 271.393V245.953H314.776V283ZM354.333 275.951H339.599L337.161 283H329.37L342.673 245.953H351.312L364.615 283H356.771L354.333 275.951ZM352.319 270.015L346.966 254.539L341.613 270.015H352.319ZM386.548 277.117H398.738V283H379.128V246.006H386.548V277.117ZM442.409 246.006L429.901 270.121V283H422.481V270.121L409.92 246.006H418.294L426.244 262.913L434.141 246.006H442.409ZM469.001 283.371C466.422 283.371 464.09 282.929 462.005 282.046C459.956 281.163 458.33 279.891 457.129 278.23C455.928 276.569 455.309 274.608 455.274 272.347H463.224C463.33 273.866 463.86 275.068 464.814 275.951C465.803 276.834 467.146 277.276 468.842 277.276C470.573 277.276 471.934 276.87 472.923 276.057C473.912 275.209 474.407 274.114 474.407 272.771C474.407 271.676 474.071 270.775 473.4 270.068C472.729 269.361 471.881 268.814 470.856 268.425C469.867 268.001 468.489 267.542 466.722 267.047C464.319 266.34 462.358 265.651 460.839 264.98C459.355 264.273 458.065 263.231 456.97 261.853C455.91 260.44 455.38 258.567 455.38 256.235C455.38 254.044 455.928 252.136 457.023 250.511C458.118 248.886 459.655 247.649 461.634 246.801C463.613 245.918 465.874 245.476 468.418 245.476C472.234 245.476 475.326 246.412 477.693 248.285C480.096 250.122 481.421 252.702 481.668 256.023H473.506C473.435 254.751 472.888 253.709 471.863 252.896C470.874 252.048 469.549 251.624 467.888 251.624C466.439 251.624 465.273 251.995 464.39 252.737C463.542 253.479 463.118 254.557 463.118 255.97C463.118 256.959 463.436 257.79 464.072 258.461C464.743 259.097 465.556 259.627 466.51 260.051C467.499 260.44 468.877 260.899 470.644 261.429C473.047 262.136 475.008 262.842 476.527 263.549C478.046 264.256 479.354 265.316 480.449 266.729C481.544 268.142 482.092 269.997 482.092 272.294C482.092 274.273 481.58 276.11 480.555 277.806C479.53 279.502 478.029 280.862 476.05 281.887C474.071 282.876 471.722 283.371 469.001 283.371ZM505.485 251.995V261.27H517.94V267.153H505.485V276.958H519.53V283H498.065V245.953H519.53V251.995H505.485Z" fill="black"/>
<path d="M34.344 245.006V282H26.924V266.259H11.077V282H3.657V245.006H11.077V260.217H26.924V245.006H34.344ZM73.8712 274.951H59.1372L56.6992 282H48.9082L62.2112 244.953H70.8502L84.1532 282H76.3092L73.8712 274.951ZM71.8572 269.015L66.5042 253.539L61.1512 269.015H71.8572ZM148.115 245.006L137.78 282H129.035L122.092 255.659L114.831 282L106.139 282.053L96.1747 245.006H104.125L110.644 273.732L118.17 245.006H126.438L133.54 273.573L140.112 245.006H148.115ZM169.92 245.006V282H162.5V245.006H169.92ZM194.211 245.006V282H186.791V245.006H194.211Z" fill="black"/>
</svg>
