<svg width="558" height="336" viewBox="0 0 558 336" fill="none" xmlns="http://www.w3.org/2000/svg">
<path d="M312.5 191.406L323.04 0H360.684L345.626 141.592H348.638L405.856 0H443.5L355.665 191.406H312.5Z" fill="white"/>
<path d="M158 191.406L208.5 0H242.5L224 74.5869L278 0H313.5L248 91.2753L264 191.406H228.5L215 109.667L192.5 191.406H158Z" fill="white"/>
<path d="M521.359 31.7392C521.359 39.1438 518.85 50.9238 518.85 50.9238H554.478C554.478 50.9238 557.209 39.2586 556.987 31.7392C556.851 27.1229 557.155 24.438 555.482 19.9592C553.309 14.143 552.062 10.1917 545.446 6.15975C539.062 2.26977 533.344 1.85646 524.871 0.774598C516.208 -0.331564 510.992 -0.182136 502.29 0.774598C494.156 1.66881 489.374 2.40697 482.218 5.15003C473.434 8.51687 469.273 11.6255 463.651 17.2666C457.379 23.5592 456.806 28.1817 453.614 35.4415C450.602 42.2925 449.169 46.2159 447.593 53.2798C445.848 61.0966 443.967 65.6452 445.585 73.4742C446.676 78.7498 447.582 81.8272 451.105 86.6005C455.792 92.9505 461.34 95.2969 468.669 100.4C476.753 106.029 483.723 107.468 490.748 113.863C495.198 117.913 496.448 120.979 497.272 125.979C497.897 129.777 496.918 131.944 496.268 135.74C495.199 141.989 494.212 145.489 491.752 151.559C489.296 157.616 489.243 161.993 483.723 166.705C481.169 168.885 478.694 169.716 474.69 170.407C471.274 170.997 468.877 171.375 465.658 170.407C461.392 169.124 459.795 166.779 459.134 163.675C458.131 158.963 458.641 155.665 459.134 150.549C459.747 144.187 462.647 134.394 462.647 134.394H426.517C426.517 134.394 424.706 142.579 424.008 147.857C422.881 156.371 423.004 169.734 423.004 169.734C423.004 169.734 424.496 183.267 433.04 188.582C439.153 192.384 444.447 193.17 452.611 194.304C460.67 195.423 465.526 195.02 473.687 194.304C480.897 193.671 485.109 193.259 491.752 191.274C499.202 189.048 503.151 187.133 508.813 183.197C516.73 177.693 518.618 173.129 522.864 166.031C527.679 157.984 528.446 153.005 530.893 144.491C532.954 137.318 534.817 133.284 534.908 125.979C534.976 120.434 535.07 117.195 532.9 111.843C530.99 107.13 529.254 104.533 525.373 100.4C519.834 94.5012 514.922 91.9651 506.806 87.6102C494.261 80.8787 484.11 76.5878 482.218 66.0696C481.771 63.5902 481.922 62.1642 482.218 59.6747C482.629 56.2056 483.692 54.3341 484.727 50.9238C487.01 43.3936 487.737 39.4804 491.25 31.7392C493.036 27.8028 493.559 24.9466 498.275 22.3152C502.137 20.1607 505.337 18.8556 510.319 19.2861C514.058 19.6091 516.352 20.4214 518.85 22.3152C522.542 25.1155 521.359 28.0007 521.359 31.7392Z" fill="white"/>
<path d="M145 335.657L147.098 283.988H154.59L151.593 322.21H152.193L163.581 283.988H171.074L153.591 335.657H145Z" fill="white"/>
<path d="M243.94 335.657L253.391 283.988H259.754L256.292 304.122L266.397 283.988H273.04L260.783 308.627L263.777 335.657H257.134L254.607 313.592L250.397 335.657H243.94Z" fill="white"/>
<path d="M240.631 283.988L230.36 335.657H237.55L247.82 283.988H240.631Z" fill="white"/>
<path d="M296.891 283.988L286.62 335.657H293.81L298.492 312.102H306.02L301.17 335.657H307.96L317.66 283.988H310.87L306.99 306.132H299.678L304.08 283.988H296.891Z" fill="white"/>
<path d="M221.231 283.988L210.96 335.657H218.149H225.51L228.42 329.198H219.69L228.42 283.988H221.231Z" fill="white"/>
<path d="M351.211 283.988L340.94 335.657H348.13H355.49L358.4 329.198H349.67L358.4 283.988H351.211Z" fill="white"/>
<path d="M174.671 283.988L164.4 335.657H171.59H180.577L181.86 329.596H172.794L176.04 312.59H183.8L184.77 306.132H177.01L180.577 290.446H187.68L189.62 283.988H181.86H174.671Z" fill="white"/>
<path d="M277.49 283.988L267.22 335.657H274.409H283.396L284.68 329.596H275.614L278.86 312.59H286.62L287.59 306.132H279.83L283.396 290.446H290.5L292.44 283.988H284.68H277.49Z" fill="white"/>
<path d="M195.691 329.254H197.309C197.309 329.254 198.308 328.129 198.831 327.331C199.89 325.717 200.107 324.614 200.733 322.807C201.512 320.56 202.256 316.925 202.256 316.925C202.955 314.006 203.312 312.361 203.873 309.415C204.376 306.773 205.014 302.628 205.014 302.628C205.014 302.628 205.467 299.931 205.68 298.194C205.863 296.713 206.049 295.884 206.061 294.393C206.068 293.544 205.966 292.221 205.966 292.221C205.966 292.221 205.49 290.232 204.444 289.87C203.564 289.713 201.553 289.87 200.258 289.87H199.877L192.076 329.322L195.691 329.254ZM183.8 335.657L194.074 283.988L199.55 283.988C201.331 283.988 207.298 283.987 207.488 283.988C207.964 283.99 209.449 284.036 211.008 286.522C211.461 287.245 211.769 290.232 211.769 290.232L211.864 295.209C211.864 295.209 211.733 299.132 211.484 301.634C211.165 304.833 210.767 306.603 210.247 309.778C209.759 312.751 209.503 314.422 208.915 317.379C208.471 319.613 208.319 320.89 207.678 323.08C207.205 324.695 206.999 325.634 206.251 327.152C205.856 327.954 205.576 328.376 205.11 329.143C204.314 330.449 203.909 331.218 202.922 332.4C201.77 333.778 199.877 335.567 199.55 335.567C199.224 335.567 183.8 335.657 183.8 335.657Z" fill="white"/>
<path d="M325.664 329.254C326.296 329.258 327.281 329.254 327.281 329.254C327.281 329.254 328.515 327.77 328.803 327.331C329.863 325.717 330.08 324.614 330.706 322.807C331.485 320.56 332.228 316.925 332.228 316.925C332.927 314.006 333.285 312.36 333.845 309.414C334.348 306.773 334.987 302.628 334.987 302.628C334.987 302.628 335.439 299.931 335.653 298.194C335.835 296.713 336.021 295.884 336.034 294.393C336.041 293.544 335.938 292.221 335.938 292.221C335.938 292.221 335.33 290.508 334.416 289.87C332.979 288.866 331.284 288.862 329.85 289.87C328.919 290.524 328.512 291.373 328.33 292.292C328.33 292.292 325.063 307.254 323.48 316.925C323.113 319.167 322.583 322.671 322.583 322.671L321.716 327.152C321.716 327.152 321.84 328.633 322.51 329.198C322.805 329.447 324.432 329.247 325.664 329.254ZM318.882 334.227C317.368 332.661 317.66 329.198 317.66 329.198C317.66 329.198 317.588 326.385 317.653 324.584C317.89 318.013 322.706 295.947 323.472 293.214C324.238 290.481 326.382 286.522 326.382 286.522C326.382 286.522 327.743 283.988 329.523 283.988C331.303 283.988 337.461 283.988 337.461 283.988C337.936 283.99 339.422 284.036 340.98 286.522C341.434 287.244 341.742 290.232 341.742 290.232L341.837 295.209C341.837 295.209 341.705 299.132 341.456 301.633C341.137 304.833 340.74 306.602 340.219 309.778C339.732 312.751 339.476 314.422 338.888 317.379C338.443 319.612 338.292 320.89 337.651 323.08C337.178 324.694 336.971 325.634 336.224 327.152C335.829 327.954 335.549 328.376 335.082 329.142C334.287 330.449 333.882 331.218 332.894 332.4C331.743 333.778 329.85 335.567 329.523 335.567C329.523 335.567 321.718 337.163 318.882 334.227Z" fill="white"/>
<path d="M372.231 329.254H373.849C373.849 329.254 374.848 328.129 375.371 327.331C376.43 325.717 376.647 324.614 377.274 322.807C378.052 320.56 378.796 316.925 378.796 316.925C379.495 314.006 379.852 312.361 380.413 309.415C380.916 306.773 381.555 302.628 381.555 302.628C381.555 302.628 382.007 299.931 382.22 298.194C382.403 296.713 382.589 295.884 382.601 294.393C382.608 293.544 382.506 292.221 382.506 292.221C382.506 292.221 382.03 290.232 380.984 289.87C380.104 289.713 378.093 289.87 376.798 289.87H376.417L368.616 329.322L372.231 329.254ZM360.34 335.657L370.614 283.988L376.091 283.988C377.871 283.988 383.838 283.987 384.028 283.988C384.504 283.99 385.989 284.036 387.548 286.522C388.001 287.245 388.309 290.232 388.309 290.232L388.404 295.209C388.404 295.209 388.273 299.132 388.024 301.634C387.705 304.833 387.307 306.603 386.787 309.778C386.299 312.751 386.043 314.422 385.455 317.379C385.011 319.613 384.859 320.89 384.218 323.08C383.746 324.695 383.539 325.634 382.791 327.152C382.396 327.954 382.116 328.376 381.65 329.143C380.854 330.449 380.449 331.218 379.462 332.4C378.31 333.778 376.417 335.567 376.091 335.567C375.764 335.567 360.34 335.657 360.34 335.657Z" fill="white"/>
<path d="M475.978 336L478.089 283.988H485.632L482.615 322.464H483.218L494.682 283.988H502.225L484.626 336H475.978Z" fill="white"/>
<path d="M418.059 292.454C418.059 294.429 417.593 297.571 417.593 297.571H424.202C424.202 297.571 424.708 294.459 424.667 292.454C424.642 291.222 424.698 290.506 424.388 289.312C423.985 287.76 423.754 286.706 422.526 285.631C421.342 284.593 420.282 284.483 418.71 284.194C417.103 283.899 416.136 283.939 414.522 284.194C413.013 284.433 412.126 284.63 410.798 285.361C409.169 286.259 408.397 287.089 407.355 288.593C406.191 290.272 406.085 291.505 405.493 293.441C404.934 295.268 404.668 296.315 404.376 298.199C404.052 300.284 403.704 301.497 404.004 303.586C404.206 304.993 404.374 305.814 405.028 307.087C405.897 308.78 406.926 309.406 408.285 310.767C409.785 312.269 411.078 312.653 412.381 314.358C413.206 315.439 413.438 316.257 413.591 317.59C413.707 318.603 413.525 319.181 413.405 320.194C413.206 321.86 413.023 322.794 412.567 324.413C412.111 326.029 412.102 327.196 411.078 328.453C410.604 329.034 410.145 329.256 409.402 329.44C408.769 329.598 408.324 329.699 407.727 329.44C406.936 329.098 406.639 328.473 406.517 327.645C406.331 326.388 406.425 325.508 406.517 324.144C406.631 322.447 407.168 319.835 407.168 319.835H400.467C400.467 319.835 400.131 322.018 400.001 323.426C399.792 325.697 399.815 329.261 399.815 329.261C399.815 329.261 400.092 332.871 401.677 334.288C402.811 335.303 403.793 335.512 405.307 335.814C406.802 336.113 407.702 336.005 409.216 335.814C410.554 335.646 411.335 335.536 412.567 335.006C413.949 334.413 414.681 333.902 415.732 332.852C417.2 331.384 417.55 330.166 418.338 328.273C419.231 326.127 419.373 324.799 419.827 322.528C420.209 320.615 420.555 319.539 420.572 317.59C420.584 316.111 420.602 315.247 420.199 313.82C419.845 312.563 419.523 311.87 418.803 310.767C417.776 309.194 416.865 308.518 415.359 307.356C413.032 305.561 411.15 304.416 410.798 301.611C410.716 300.949 410.744 300.569 410.798 299.905C410.875 298.98 411.072 298.48 411.264 297.571C411.687 295.562 411.822 294.518 412.474 292.454C412.805 291.404 412.902 290.642 413.777 289.94C414.493 289.365 415.087 289.017 416.011 289.132C416.704 289.218 417.13 289.435 417.593 289.94C418.278 290.687 418.059 291.456 418.059 292.454Z" fill="white"/>
<path d="M505.846 283.988L495.507 336H502.744L513.083 283.988H505.846Z" fill="white"/>
<path d="M431.635 283.988L421.296 336H428.533H437.58L438.872 329.9H429.746L433.013 312.78H440.825L441.801 306.279H433.99L437.58 290.489H444.731L446.684 283.988H438.872H431.635Z" fill="white"/>
<path d="M542.951 283.988L532.612 336H539.85H548.896L550.188 329.9H541.062L544.33 312.78H552.141L553.118 306.279H545.306L548.896 290.489H556.047L558 283.988H550.188H542.951Z" fill="white"/>
<path d="M519.919 329.499C518.866 329.889 518.673 329.77 517.966 329.499C516.701 329.013 516.435 326.511 516.435 326.511L517.966 316.496L522.848 291.418C523.031 290.494 523.544 289.16 524.801 288.632C526.239 288.027 526.922 287.862 527.731 288.632C528.707 289.561 528.391 297.36 528.391 297.36H534.566C534.566 297.36 535.022 288.431 534.566 287.703C532.997 285.201 531.768 283.99 531.289 283.988C531.289 283.988 525.228 283.988 523.436 283.988C521.644 283.988 520.895 285.846 520.895 285.846C520.895 285.846 517.787 289.596 517.016 292.348C516.245 295.099 511.397 317.311 511.158 323.926C511.093 325.739 511.165 328.57 511.165 328.57C511.165 328.57 510.871 332.057 512.395 333.633C515.25 336.589 523.107 334.982 523.107 334.982C523.436 334.982 525.342 333.181 526.501 331.794C526.923 331.03 529.742 327.401 529.683 326.511C529.515 323.926 529.683 320.211 529.683 320.211H523.825C523.825 320.211 523.449 325.067 522.383 326.692C522.093 327.134 521.318 328.98 519.919 329.499Z" fill="white"/>
<path d="M442.778 336L451.566 283.988H456.475C460.094 283.988 464.868 284.457 467.19 285.845C469.511 287.217 469.98 289.014 471.095 291.418C472.211 293.822 469.143 302.564 469.143 302.564C469.143 302.564 466.352 307.624 465.237 309.994C464.121 312.364 463.767 311.137 465.997 312.635C462.519 311.799 462.966 311.852 459.378 311.852C457.349 311.852 454.183 311.852 454.183 311.852L455.238 306.279C457.71 306.279 460.094 306.407 460.354 306.279C462.626 305.16 462.555 303.038 463.284 300.706C464.479 296.882 464.807 291.336 463.284 290.489C461.761 289.626 460.904 289.561 458.402 289.561L449.613 336H442.778ZM465.997 312.635C465.319 321.76 464.26 336 464.26 336L457.425 336C457.425 336 458.615 321.282 459.378 311.852C460.354 310.923 461.331 309.065 461.331 309.065C461.331 309.065 464.74 312.332 465.997 312.635Z" fill="white"/>
<path d="M145 274.625L154.513 222.613H160.918L157.433 242.881L167.606 222.613H174.294L161.954 247.416L164.969 274.625H158.281L155.738 252.413L151.499 274.625H145Z" fill="white"/>
<path d="M227.69 231.079C227.69 233.054 227.225 236.196 227.225 236.196H233.834C233.834 236.196 234.34 233.084 234.299 231.079C234.274 229.847 234.33 229.131 234.02 227.937C233.617 226.385 233.386 225.331 232.158 224.256C230.974 223.218 229.914 223.108 228.342 222.819C226.735 222.524 225.768 222.564 224.153 222.819C222.645 223.058 221.758 223.255 220.43 223.986C218.801 224.884 218.029 225.714 216.986 227.218C215.823 228.897 215.717 230.13 215.125 232.066C214.566 233.893 214.3 234.94 214.008 236.824C213.684 238.909 213.335 240.122 213.636 242.211C213.838 243.618 214.006 244.439 214.659 245.712C215.529 247.405 216.558 248.031 217.917 249.392C219.417 250.894 220.71 251.278 222.013 252.983C222.838 254.064 223.07 254.882 223.223 256.215C223.339 257.228 223.157 257.806 223.037 258.819C222.838 260.485 222.655 261.419 222.199 263.038C221.743 264.654 221.733 265.821 220.71 267.078C220.236 267.659 219.777 267.881 219.034 268.065C218.401 268.223 217.956 268.324 217.359 268.065C216.568 267.723 216.271 267.098 216.149 266.27C215.963 265.013 216.057 264.133 216.149 262.769C216.262 261.072 216.8 258.46 216.8 258.46H210.099C210.099 258.46 209.763 260.643 209.633 262.051C209.424 264.322 209.447 267.886 209.447 267.886C209.447 267.886 209.724 271.496 211.309 272.913C212.442 273.928 213.424 274.137 214.939 274.439C216.434 274.738 217.334 274.63 218.848 274.439C220.185 274.271 220.967 274.161 222.199 273.631C223.581 273.038 224.313 272.527 225.363 271.477C226.832 270.009 227.182 268.791 227.97 266.898C228.863 264.752 229.005 263.424 229.459 261.153C229.841 259.24 230.187 258.164 230.204 256.215C230.216 254.736 230.234 253.872 229.831 252.445C229.477 251.188 229.155 250.495 228.435 249.392C227.408 247.819 226.497 247.143 224.991 245.981C222.664 244.186 220.781 243.041 220.43 240.236C220.348 239.574 220.376 239.194 220.43 238.53C220.507 237.605 220.704 237.105 220.896 236.196C221.319 234.187 221.454 233.143 222.106 231.079C222.437 230.029 222.534 229.267 223.409 228.565C224.125 227.99 224.719 227.642 225.643 227.757C226.336 227.843 226.762 228.06 227.225 228.565C227.91 229.312 227.69 230.081 227.69 231.079Z" fill="white"/>
<path d="M323.383 231.079C323.383 233.054 322.917 236.196 322.917 236.196H329.526C329.526 236.196 330.032 233.084 329.991 231.079C329.966 229.847 330.023 229.131 329.712 227.937C329.309 226.385 329.078 225.331 327.851 224.256C326.667 223.218 325.606 223.108 324.034 222.819C322.428 222.524 321.46 222.564 319.846 222.819C318.337 223.058 317.45 223.255 316.123 223.986C314.494 224.884 313.722 225.714 312.679 227.218C311.516 228.897 311.409 230.13 310.817 232.066C310.258 233.893 309.993 234.94 309.7 236.824C309.377 238.909 309.028 240.122 309.328 242.211C309.53 243.618 309.698 244.439 310.352 245.712C311.221 247.405 312.25 248.031 313.61 249.392C315.109 250.894 316.402 251.278 317.705 252.983C318.53 254.064 318.762 254.882 318.915 256.215C319.031 257.228 318.849 257.806 318.729 258.819C318.53 260.485 318.348 261.419 317.891 263.038C317.436 264.654 317.426 265.821 316.402 267.078C315.928 267.659 315.469 267.881 314.727 268.065C314.093 268.223 313.648 268.324 313.051 268.065C312.26 267.723 311.964 267.098 311.841 266.27C311.655 265.013 311.75 264.133 311.841 262.769C311.955 261.072 312.493 258.46 312.493 258.46H305.791C305.791 258.46 305.455 260.643 305.326 262.051C305.117 264.322 305.139 267.886 305.139 267.886C305.139 267.886 305.416 271.496 307.001 272.913C308.135 273.928 309.117 274.137 310.631 274.439C312.126 274.738 313.027 274.63 314.54 274.439C315.878 274.271 316.659 274.161 317.891 273.631C319.273 273.038 320.006 272.527 321.056 271.477C322.524 270.009 322.874 268.791 323.662 266.898C324.555 264.752 324.697 263.424 325.151 261.153C325.534 259.24 325.879 258.164 325.896 256.215C325.909 254.736 325.926 253.872 325.524 252.445C325.169 251.188 324.847 250.495 324.127 249.392C323.1 247.819 322.189 247.143 320.684 245.981C318.357 244.186 316.474 243.041 316.123 240.236C316.04 239.574 316.068 239.194 316.123 238.53C316.199 237.605 316.396 237.105 316.588 236.196C317.012 234.187 317.147 233.143 317.798 231.079C318.129 230.029 318.226 229.267 319.101 228.565C319.818 227.99 320.411 227.642 321.335 227.757C322.029 227.843 322.454 228.06 322.917 228.565C323.602 229.312 323.383 230.081 323.383 231.079Z" fill="white"/>
<path d="M206.114 222.613L195.775 274.625H203.013L213.352 222.613H206.114Z" fill="white"/>
<path d="M284.231 222.613L273.892 274.625H281.129L287.141 244.382L290.491 274.625H297.326L307.091 222.613H300.256L293.421 254.192L291.468 222.613H284.231Z" fill="white"/>
<path d="M356.488 222.613L346.149 274.625H353.387L359.398 244.382L362.749 274.625H369.584L379.349 222.613H372.514L365.678 254.192L363.726 222.613H356.488Z" fill="white"/>
<path d="M264.701 222.613L254.362 274.625H261.6H270.646L271.938 268.525H262.812L266.08 251.405H273.891L274.868 244.904H267.056L270.646 229.114H277.797L279.75 222.613H271.938H264.701Z" fill="white"/>
<path d="M336.959 222.613L326.62 274.625H333.857H342.904L344.196 268.525H335.07L338.338 251.405H346.149L347.126 244.904H339.314L342.904 229.114H350.055L352.008 222.613H344.196H336.959Z" fill="white"/>
<path d="M254.362 222.613H247.125H239.715L238.739 229.66H245.724L236.786 274.625H244.023L252.961 229.66H258.624L260.221 222.613H254.362Z" fill="white"/>
<path d="M170.388 274.625L179.176 222.613H184.085C187.703 222.613 192.477 223.082 194.799 224.47C197.121 225.842 197.589 227.639 198.705 230.043C199.82 232.447 196.752 241.189 196.752 241.189C196.752 241.189 193.962 246.249 192.846 248.619C191.73 250.989 191.377 249.762 193.607 251.26C190.128 250.424 190.576 250.477 186.987 250.477C184.959 250.477 181.793 250.477 181.793 250.477L182.847 244.904C185.32 244.904 187.703 245.032 187.964 244.904C190.235 243.785 190.164 241.663 190.893 239.331C192.089 235.507 192.416 229.961 190.893 229.114C189.37 228.251 188.514 228.186 186.011 228.186L177.223 274.625H170.388ZM193.607 251.26C192.928 260.385 191.87 274.625 191.87 274.625L185.034 274.625C185.034 274.625 186.225 259.907 186.987 250.477C187.964 249.548 188.94 247.69 188.94 247.69C188.94 247.69 192.35 250.957 193.607 251.26Z" fill="white"/>
<path d="M23 116.796V23H27.4737V116.796C27.4737 116.796 34.0493 139.054 42.6842 150.741C49.5793 160.073 54.3806 165.026 64.1579 171.287C71.9036 176.246 77.4143 180.114 84.7368 182.006C88.0571 182.864 92.4606 181.785 96.3684 182.899C102.545 184.661 108 194.512 108 194.512V316H104.421V196.299C104.421 196.299 100.842 189.152 96.3684 187.366C91.8947 185.579 87.6967 187.32 83.8421 186.473C77.0877 184.987 71.4372 180.915 64.1579 176.646C52.2195 169.646 46.2698 163.767 38.2105 152.527C29.3704 140.199 23 116.796 23 116.796Z" fill="url(#paint0_linear_176_367)"/>
<path d="M16.7743 84.6052C18.5656 87.2899 20.042 87.3415 22.1482 89.0799C34.2086 99.0338 60.3139 118.613 60.3139 118.613C60.3139 118.613 63.1667 120.109 64.2437 122.192C65.3672 124.366 65.1393 128.457 65.1393 128.457V172.309C65.1393 172.309 65.8826 179.677 62.4524 180.363C57.9742 181.258 56.7045 179.064 53.0481 178.125C48.6507 176.996 46.3538 175.586 41.8525 174.993C37.6912 174.445 34.8055 173.015 31.1047 174.993C28.2613 176.513 27.3109 178.449 25.7308 181.258C23.8737 184.559 24.0932 186.937 23.0438 190.576L14.0874 221.635L10.5048 234.059C10.5048 234.059 9.36906 237.665 10.5048 239.428C12.1248 241.944 14.6977 241.764 17.6707 242.113C20.6438 242.463 22.9048 242.205 25.7308 241.218C28.5325 240.24 29.6319 238.423 31.1047 235.848C34.6881 229.584 36.4794 217.95 36.4794 217.95C36.4794 217.95 38.2707 205.421 40.9568 199.156C41.6456 197.55 42.8672 196.983 44.5394 196.472C47.2383 195.646 49.8903 197.475 52.6011 198.261C55.3118 199.048 58.8706 200.051 58.8706 200.051C58.8706 200.051 66.5 202.5 72.3045 204.526C73.2383 204.852 76.5 206 74 207C72.9619 207.415 67.6027 204.441 64.2437 206.316C60.7169 208.284 59.2984 213.56 57.2775 217.055L19.501 282.385C18.0864 284.831 16.6509 285.931 15.8794 288.649C15.0206 291.676 14.4497 293.901 15.8786 296.704C17.1187 299.136 18.7457 300.094 21.2525 301.178C24.7832 302.706 25.836 301.927 29.3142 300.284C33.9254 298.105 37.668 289.895 37.668 289.895L86.6357 205.709C86.6357 205.709 91.0968 200.543 92.0088 196.472C92.62 193.743 92.1285 189.312 92.1285 189.312C92.1285 189.312 92.6873 147.928 92.0088 147.25C91.1132 146.355 87.6729 144.604 88.4262 142.776C89.1053 141.128 91.4214 141.85 92.9045 142.776C100.07 147.25 107.235 153.515 112.609 157.99C113.415 158.661 113.022 159.711 112.609 160.674C109.922 166.939 103.652 172.308 98.2784 179.468C96.2631 182.153 95.3571 185.381 97.3827 188.417C99.174 191.102 99.174 191.102 101.861 192.892C104.48 194.637 107.503 195.8 109.922 193.787C120.67 184.837 134.104 160.674 134.104 160.674C134.104 160.674 136.12 155.036 134.104 152.62C129.626 147.25 126.365 146.62 121.406 142.776L40.9568 80.4083C34.2932 75.2424 34.6873 74.7611 30.209 72.0762C27.5097 70.4578 25.0416 70.8372 22.1482 72.0762C19.4202 73.2444 17.8766 74.6924 16.7743 77.4458C15.7351 80.0418 15.2221 82.2789 16.7743 84.6052Z" fill="url(#paint1_linear_176_367)"/>
<path d="M92 105.5L94.85 109.58C94.85 109.58 97.6978 107.64 99.2 106.391C100.293 105.483 101.75 103.783 101.75 103.783L103.875 100.739L106 97.6957L95.8 89C95.8 89 94.1 90.8494 94.1 91.6087C94.1 92.368 94.95 93.3478 94.95 93.3478C94.95 93.3478 94.4756 93.9292 94.1 94.2174C93.2602 94.8617 92.5458 94.7474 91.55 95.087C90.5542 95.4265 88.5 96 88.5 96L90 99L99.2 98.5652C99.2 98.5652 99.3091 99.6344 99.2 100.304C98.7306 103.186 92 105.5 92 105.5Z" fill="url(#paint2_linear_176_367)"/>
<path d="M76.4206 87.0209C77.8604 83.2866 83.4438 78 83.4438 78L86.955 81.6084C86.955 81.6084 83.4486 84.9559 82.5653 87.0209C81.1858 90.246 82.5653 96.0418 82.5653 96.0418H88.71L91.3434 98.7481L88.71 99.6502L84.3209 100.552C84.3209 100.552 84.1546 101.673 84.3209 102.356C84.6721 103.8 85.6647 104.349 86.9369 105.053L86.9544 105.063C89.0672 106.232 93.099 105.063 93.099 105.063L94.8546 109.573C94.8546 109.573 88.852 110.534 85.1987 109.573C84.1485 109.297 82.5653 108.671 82.5653 108.671C82.5653 108.671 77.8604 104.287 76.4206 100.552C74.5265 95.6395 74.5265 91.9336 76.4206 87.0209Z" fill="url(#paint3_linear_176_367)"/>
<path d="M79.1684 76.2051C79.1684 76.2051 78.7895 74.5421 79.1684 73.5896C79.8725 71.8192 81.8878 72.2592 83.6338 71.4166L84.8782 70.811C84.8782 70.811 86.7991 69.7184 88.1254 69.2308C92.7066 67.5465 96.0513 67.6336 100.665 69.2308C106.03 71.0879 109.141 73.739 111.414 78.8205C113.648 83.815 113.406 87.6788 111.414 92.7692C110.857 94.1921 110.77 95.2217 109.622 96.2564C108.158 97.5771 104.71 97.6362 104.71 97.6362L79.1684 76.2051Z" fill="url(#paint4_linear_176_367)"/>
<defs>
<linearGradient id="paint0_linear_176_367" x1="26.389" y1="41.3921" x2="130.046" y2="74.8423" gradientUnits="userSpaceOnUse">
<stop stop-color="#F29608"/>
<stop offset="1" stop-color="#F4E105"/>
</linearGradient>
<linearGradient id="paint1_linear_176_367" x1="14.9838" y1="85.5002" x2="138.531" y2="159.867" gradientUnits="userSpaceOnUse">
<stop stop-color="#F29608"/>
<stop offset="1" stop-color="#F4E105"/>
</linearGradient>
<linearGradient id="paint2_linear_176_367" x1="89.6439" y1="91.0158" x2="100.694" y2="101.887" gradientUnits="userSpaceOnUse">
<stop stop-color="#F4D705"/>
<stop offset="1" stop-color="#F4E105"/>
</linearGradient>
<linearGradient id="paint3_linear_176_367" x1="76.0366" y1="80.0087" x2="95.3054" y2="97.4238" gradientUnits="userSpaceOnUse">
<stop stop-color="#F29608"/>
<stop offset="1" stop-color="#F4E105"/>
</linearGradient>
<linearGradient id="paint4_linear_176_367" x1="80.3556" y1="69.8831" x2="98.036" y2="92.1726" gradientUnits="userSpaceOnUse">
<stop stop-color="#F29608"/>
<stop offset="1" stop-color="#F4E105"/>
</linearGradient>
</defs>
</svg>
