<svg width="145" height="309" viewBox="0 0 145 309" fill="none" xmlns="http://www.w3.org/2000/svg">
<path d="M23 102.796V9H27.4737V102.796C27.4737 102.796 34.0493 125.054 42.6842 136.741C49.5793 146.073 54.3806 151.026 64.1579 157.287C71.9036 162.246 77.4143 166.114 84.7368 168.006C88.0571 168.864 92.4606 167.785 96.3684 168.899C102.545 170.661 108 180.512 108 180.512V302H104.421V182.299C104.421 182.299 100.842 175.152 96.3684 173.366C91.8947 171.579 87.6967 173.32 83.8421 172.473C77.0877 170.987 71.4372 166.915 64.1579 162.646C52.2195 155.646 46.2698 149.767 38.2105 138.527C29.3704 126.199 23 102.796 23 102.796Z" fill="url(#paint0_linear_192_18)"/>
<path d="M16.7743 70.6052C18.5656 73.2899 20.042 73.3415 22.1482 75.0799C34.2086 85.0338 60.3139 104.613 60.3139 104.613C60.3139 104.613 63.1667 106.109 64.2437 108.192C65.3672 110.366 65.1393 114.457 65.1393 114.457V158.309C65.1393 158.309 65.8826 165.677 62.4524 166.363C57.9742 167.258 56.7045 165.064 53.0481 164.125C48.6507 162.996 46.3538 161.586 41.8525 160.993C37.6912 160.445 34.8055 159.015 31.1047 160.993C28.2613 162.513 27.3109 164.449 25.7308 167.258C23.8737 170.559 24.0932 172.937 23.0438 176.576L14.0874 207.635L10.5048 220.059C10.5048 220.059 9.36906 223.665 10.5048 225.428C12.1248 227.944 14.6977 227.764 17.6707 228.113C20.6438 228.463 22.9048 228.205 25.7308 227.218C28.5325 226.24 29.6319 224.423 31.1047 221.848C34.6881 215.584 36.4794 203.95 36.4794 203.95C36.4794 203.95 38.2707 191.421 40.9568 185.156C41.6456 183.55 42.8672 182.983 44.5394 182.472C47.2383 181.646 49.8903 183.475 52.6011 184.261C55.3118 185.048 58.8706 186.051 58.8706 186.051C58.8706 186.051 66.5 188.5 72.3045 190.526C73.2383 190.852 76.5 192 74 193C72.9619 193.415 67.6027 190.441 64.2437 192.316C60.7169 194.284 59.2984 199.56 57.2775 203.055L19.501 268.385C18.0864 270.831 16.6509 271.931 15.8794 274.649C15.0206 277.676 14.4497 279.901 15.8786 282.704C17.1187 285.136 18.7457 286.094 21.2525 287.178C24.7832 288.706 25.836 287.927 29.3142 286.284C33.9254 284.105 37.668 275.895 37.668 275.895L86.6357 191.709C86.6357 191.709 91.0968 186.543 92.0088 182.472C92.62 179.743 92.1285 175.312 92.1285 175.312C92.1285 175.312 92.6873 133.928 92.0088 133.25C91.1132 132.355 87.6729 130.604 88.4262 128.776C89.1053 127.128 91.4214 127.85 92.9045 128.776C100.07 133.25 107.235 139.515 112.609 143.99C113.415 144.661 113.022 145.711 112.609 146.674C109.922 152.939 103.652 158.308 98.2784 165.468C96.2631 168.153 95.3571 171.381 97.3827 174.417C99.174 177.102 99.174 177.102 101.861 178.892C104.48 180.637 107.503 181.8 109.922 179.787C120.67 170.837 134.104 146.674 134.104 146.674C134.104 146.674 136.12 141.036 134.104 138.62C129.626 133.25 126.365 132.62 121.406 128.776L40.9568 66.4083C34.2932 61.2424 34.6873 60.7611 30.209 58.0762C27.5097 56.4578 25.0416 56.8372 22.1482 58.0762C19.4202 59.2444 17.8766 60.6924 16.7743 63.4458C15.7351 66.0418 15.2221 68.2789 16.7743 70.6052Z" fill="url(#paint1_linear_192_18)"/>
<path d="M92 91.5L94.85 95.58C94.85 95.58 97.6978 93.6399 99.2 92.3913C100.293 91.4828 101.75 89.7826 101.75 89.7826L103.875 86.7391L106 83.6957L95.8 75C95.8 75 94.1 76.8494 94.1 77.6087C94.1 78.368 94.95 79.3478 94.95 79.3478C94.95 79.3478 94.4756 79.9292 94.1 80.2174C93.2602 80.8617 92.5458 80.7474 91.55 81.087C90.5542 81.4265 88.5 82 88.5 82L90 85L99.2 84.5652C99.2 84.5652 99.3091 85.6344 99.2 86.3043C98.7306 89.1858 92 91.5 92 91.5Z" fill="url(#paint2_linear_192_18)"/>
<path d="M76.4206 73.0209C77.8604 69.2866 83.4438 64 83.4438 64L86.955 67.6084C86.955 67.6084 83.4486 70.9559 82.5653 73.0209C81.1858 76.246 82.5653 82.0418 82.5653 82.0418H88.71L91.3434 84.7481L88.71 85.6502L84.3209 86.5523C84.3209 86.5523 84.1546 87.6729 84.3209 88.3564C84.6721 89.7998 85.6647 90.3491 86.9369 91.053L86.9544 91.0627C89.0672 92.2318 93.099 91.0627 93.099 91.0627L94.8546 95.5732C94.8546 95.5732 88.852 96.5336 85.1987 95.5732C84.1485 95.2971 82.5653 94.6711 82.5653 94.6711C82.5653 94.6711 77.8604 90.2865 76.4206 86.5523C74.5265 81.6395 74.5265 77.9336 76.4206 73.0209Z" fill="url(#paint3_linear_192_18)"/>
<path d="M79.1684 62.2051C79.1684 62.2051 78.7895 60.5421 79.1684 59.5896C79.8725 57.8192 81.8878 58.2592 83.6338 57.4166L84.8782 56.811C84.8782 56.811 86.7991 55.7184 88.1254 55.2308C92.7066 53.5465 96.0513 53.6336 100.665 55.2308C106.03 57.0879 109.141 59.739 111.414 64.8205C113.648 69.815 113.406 73.6788 111.414 78.7692C110.857 80.1921 110.77 81.2217 109.622 82.2564C108.158 83.5771 104.71 83.6362 104.71 83.6362L79.1684 62.2051Z" fill="url(#paint4_linear_192_18)"/>
<defs>
<linearGradient id="paint0_linear_192_18" x1="26.389" y1="27.3921" x2="130.046" y2="60.8423" gradientUnits="userSpaceOnUse">
<stop stop-color="#F29608"/>
<stop offset="1" stop-color="#F4E105"/>
</linearGradient>
<linearGradient id="paint1_linear_192_18" x1="14.9838" y1="71.5002" x2="138.531" y2="145.867" gradientUnits="userSpaceOnUse">
<stop stop-color="#F29608"/>
<stop offset="1" stop-color="#F4E105"/>
</linearGradient>
<linearGradient id="paint2_linear_192_18" x1="89.6439" y1="77.0158" x2="100.694" y2="87.8872" gradientUnits="userSpaceOnUse">
<stop stop-color="#F4D705"/>
<stop offset="1" stop-color="#F4E105"/>
</linearGradient>
<linearGradient id="paint3_linear_192_18" x1="76.0366" y1="66.0087" x2="95.3054" y2="83.4238" gradientUnits="userSpaceOnUse">
<stop stop-color="#F29608"/>
<stop offset="1" stop-color="#F4E105"/>
</linearGradient>
<linearGradient id="paint4_linear_192_18" x1="80.3556" y1="55.8831" x2="98.036" y2="78.1726" gradientUnits="userSpaceOnUse">
<stop stop-color="#F29608"/>
<stop offset="1" stop-color="#F4E105"/>
</linearGradient>
</defs>
</svg>
