<?xml version="1.0" standalone="no"?>
<!DOCTYPE svg PUBLIC "-//W3C//DTD SVG 20010904//EN"
 "http://www.w3.org/TR/2001/REC-SVG-20010904/DTD/svg10.dtd">
<svg version="1.0" xmlns="http://www.w3.org/2000/svg"
 width="300.000000pt" height="300.000000pt" viewBox="0 0 300.000000 300.000000"
 preserveAspectRatio="xMidYMid meet">
<metadata>
Created by potrace 1.10, written by Peter Selinger 2001-2011
</metadata>
<g transform="translate(0.000000,300.000000) scale(0.100000,-0.100000)"
fill="#000000" stroke="none">
<path d="M1300 2776 c-239 -43 -430 -130 -617 -280 -225 -182 -391 -460 -450
-753 -24 -123 -24 -377 0 -493 116 -545 547 -950 1098 -1031 112 -16 340 -6
445 20 258 64 441 166 625 350 255 255 379 552 379 906 0 218 -38 383 -136
580 -171 347 -489 597 -874 686 -112 26 -364 34 -470 15z m453 -46 c196 -43
350 -114 508 -235 257 -196 431 -500 479 -835 12 -83 9 -294 -5 -370 -41 -218
-122 -398 -263 -584 -43 -55 -185 -187 -259 -239 -81 -57 -229 -133 -308 -157
-22 -7 -47 -15 -55 -18 -21 -7 -25 -8 -110 -28 -93 -21 -363 -24 -460 -5 -490
97 -878 460 -998 932 -43 167 -48 357 -16 539 72 398 355 758 725 919 113 49
229 83 346 100 97 15 307 5 416 -19z"/>
<path d="M1254 2650 c-47 -11 -133 -43 -208 -79 -70 -34 -130 -61 -133 -61
-23 0 -155 -106 -233 -187 -171 -176 -230 -269 -295 -467 -49 -152 -58 -218
-53 -406 5 -166 7 -181 60 -340 19 -60 85 -193 126 -253 113 -168 329 -361
400 -359 19 0 31 -6 37 -21 24 -53 248 -128 440 -148 204 -21 464 29 635 123
70 39 80 47 91 75 6 17 16 23 38 23 52 0 229 165 287 268 15 26 35 56 45 67
21 25 80 142 108 215 67 177 88 403 54 581 -14 79 -50 212 -63 238 -4 9 -22
48 -40 86 -148 323 -468 574 -825 648 -106 22 -369 21 -471 -3z m438 -25 c92
-16 232 -62 313 -102 141 -71 308 -212 404 -342 209 -282 279 -659 185 -989
-25 -88 -121 -302 -135 -302 -5 0 -6 7 -3 14 7 18 -22 225 -37 263 -7 18 -13
23 -20 16 -7 -7 -5 -36 5 -91 26 -139 31 -238 13 -265 -31 -48 -124 -146 -190
-202 l-67 -58 -56 53 c-35 34 -59 49 -65 43 -5 -5 -7 -17 -3 -26 4 -12 13 -15
33 -11 25 6 25 6 6 -9 -16 -13 -18 -18 -7 -28 9 -10 15 -10 24 -1 7 7 16 12
22 12 5 0 2 -6 -8 -13 -15 -11 -17 -17 -7 -35 11 -20 6 -24 -79 -67 -180 -91
-323 -125 -520 -125 -181 0 -316 29 -482 103 -42 19 -56 30 -52 41 7 19 -29
39 -44 24 -8 -8 -29 3 -77 37 -253 180 -427 458 -475 757 -18 112 -8 350 19
452 116 437 474 772 909 850 103 19 290 19 394 1z"/>
<path d="M1104 2537 c-16 -27 -19 -51 -19 -154 0 -84 4 -126 13 -134 10 -10
12 12 12 112 0 68 5 141 11 162 14 50 8 55 -17 14z"/>
<path d="M1750 2536 c0 -4 7 -21 16 -39 11 -21 19 -74 25 -162 4 -71 8 -131 8
-133 1 -2 7 -2 14 1 9 3 11 33 8 120 -4 130 -3 131 62 104 18 -8 64 -27 102
-44 39 -16 121 -65 183 -108 97 -67 125 -93 188 -174 88 -113 126 -187 155
-302 55 -216 59 -305 19 -412 -19 -51 -73 -127 -83 -117 -3 3 -2 50 1 105 4
55 4 116 1 135 -4 23 -7 7 -8 -49 0 -47 -8 -113 -17 -147 -8 -35 -14 -77 -12
-94 l3 -32 53 51 c88 85 130 208 118 346 -7 78 -63 298 -93 366 -22 50 -156
230 -199 270 -67 61 -257 178 -336 208 -46 18 -96 37 -112 43 -17 7 -45 25
-63 41 -18 16 -33 26 -33 23z"/>
<path d="M944 2343 c-56 -84 -116 -209 -111 -231 2 -11 10 -2 22 28 10 25 40
87 66 138 25 50 45 92 44 92 -1 0 -11 -12 -21 -27z"/>
<path d="M930 2253 c-31 -66 -70 -159 -70 -168 0 -3 4 -5 9 -5 5 0 19 26 31
58 12 31 30 75 40 97 44 101 37 114 -10 18z"/>
<path d="M1017 2234 c-13 -13 5 -24 41 -24 56 -1 112 -31 164 -88 43 -48 78
-67 78 -41 0 23 -115 119 -160 133 -59 19 -115 28 -123 20z"/>
<path d="M1875 2224 c-11 -9 -38 -24 -60 -34 -45 -21 -115 -84 -115 -105 0
-31 21 -23 55 22 34 45 118 103 150 103 8 0 15 7 15 15 0 19 -20 19 -45 -1z"/>
<path d="M2052 2165 c18 -25 35 -45 40 -45 14 0 9 10 -22 43 -16 18 -30 35
-30 40 0 4 -4 7 -10 7 -5 0 5 -20 22 -45z"/>
<path d="M1086 2164 c-3 -9 -6 -35 -6 -58 0 -23 -9 -77 -20 -120 -24 -88 -21
-121 5 -62 22 51 45 159 45 214 0 42 -12 56 -24 26z"/>
<path d="M2024 2158 c9 -15 16 -34 16 -43 0 -8 5 -15 10 -15 17 0 10 24 -17
55 -24 28 -25 29 -9 3z"/>
<path d="M1820 2136 c0 -34 65 -236 84 -261 15 -19 15 -19 16 8 0 15 -7 44
-16 65 -8 20 -26 75 -38 121 -22 84 -46 118 -46 67z"/>
<path d="M2137 2123 c-9 -9 12 -33 29 -33 17 0 18 12 2 28 -14 14 -22 15 -31
5z"/>
<path d="M537 2050 c-20 -41 -50 -101 -68 -133 -42 -77 -30 -84 17 -10 51 79
96 179 92 200 -3 12 -17 -9 -41 -57z"/>
<path d="M2096 2105 c-26 -20 -7 -43 24 -29 18 8 19 12 8 26 -12 15 -15 15
-32 3z"/>
<path d="M780 2065 c-6 -14 -10 -27 -10 -28 0 -1 13 -2 28 -1 32 1 52 10 52
25 0 13 -34 11 -50 -3 -12 -11 -12 -10 -2 4 9 11 10 18 2 23 -5 3 -15 -6 -20
-20z"/>
<path d="M648 2074 c-19 -18 3 -134 25 -134 5 0 6 8 2 18 -4 9 -10 41 -14 70
-3 30 -9 50 -13 46z"/>
<path d="M683 2035 c3 -27 12 -66 21 -85 11 -24 14 -27 10 -10 -3 14 -8 43
-11 65 -9 65 -24 88 -20 30z"/>
<path d="M2046 2061 c-15 -16 -15 -19 -1 -31 21 -18 61 16 44 37 -15 17 -23
17 -43 -6z"/>
<path d="M2136 2062 c-4 -6 20 -64 52 -129 33 -65 70 -147 83 -182 l23 -64 19
44 c28 64 58 152 53 156 -2 2 -16 -23 -32 -57 -15 -33 -31 -60 -35 -60 -5 0
-42 68 -82 151 -41 83 -77 146 -81 141z"/>
<path d="M851 2046 c-9 -10 -6 -17 14 -30 14 -9 31 -14 37 -10 8 5 9 2 5 -10
-7 -17 23 -56 43 -56 18 0 10 22 -22 59 -46 53 -63 64 -77 47z"/>
<path d="M1260 2041 c0 -10 12 -27 27 -36 36 -24 93 -82 93 -95 0 -5 -7 -10
-16 -10 -8 0 -29 -13 -45 -29 -23 -23 -29 -38 -29 -71 0 -42 33 -120 50 -120
13 0 13 6 -5 63 -17 57 -13 70 33 119 32 34 40 37 76 33 l41 -4 -37 11 c-29 9
-38 17 -38 34 0 19 7 24 43 29 44 7 97 2 116 -10 20 -12 12 -44 -11 -49 -13
-3 -32 -7 -43 -9 -11 -3 0 -5 26 -6 37 -1 52 -7 83 -36 35 -32 38 -38 32 -72
-3 -21 -9 -57 -12 -80 -5 -32 -11 -43 -25 -43 -18 0 -33 -16 -34 -35 0 -10
-85 -145 -91 -145 -2 0 -27 39 -56 86 -34 57 -61 89 -78 95 -14 5 -36 16 -50
25 -57 35 -166 84 -187 84 -13 0 -22 4 -20 9 3 13 -113 161 -127 161 -6 0 -17
-4 -25 -9 -11 -7 0 -26 46 -87 33 -44 73 -92 89 -108 40 -40 139 -85 202 -91
29 -3 62 -9 72 -15 20 -11 130 -196 130 -221 0 -8 11 6 23 31 66 132 100 182
135 197 19 8 44 12 56 9 29 -7 83 14 163 62 68 41 68 42 111 142 24 55 41 107
38 115 -3 9 0 15 8 15 17 0 30 30 18 42 -5 5 -17 -3 -27 -19 -10 -15 -24 -32
-31 -38 -7 -5 -32 -54 -57 -107 -24 -54 -46 -95 -50 -92 -11 12 -116 -27 -167
-61 -29 -19 -54 -35 -55 -35 -2 0 8 25 22 56 31 68 26 111 -18 148 -17 14 -36
26 -43 26 -9 0 -12 9 -8 25 2 14 8 22 13 19 5 -2 22 8 38 23 16 15 39 36 50
45 24 21 27 34 7 41 -17 7 -56 -19 -56 -38 0 -7 -12 -23 -26 -34 -24 -19 -26
-19 -44 -1 -39 39 -185 34 -206 -7 -10 -21 -12 -21 -39 23 -39 61 -85 86 -85
45z"/>
<path d="M2097 2028 c-2 -7 1 -20 8 -28 16 -21 75 -157 75 -175 0 -17 -28 -7
-92 32 -21 13 -38 19 -38 14 0 -9 180 -124 186 -119 4 4 -115 271 -125 281 -5
5 -11 3 -14 -5z"/>
<path d="M774 1985 c-7 -19 -14 -39 -14 -44 0 -6 -7 -14 -16 -19 -12 -7 -15
-17 -10 -37 9 -36 15 -28 47 60 27 74 22 107 -7 40z"/>
<path d="M815 1965 c-10 -27 -24 -65 -32 -84 -11 -29 -11 -32 3 -27 9 3 20 6
25 6 4 0 6 7 3 15 -3 8 2 34 11 59 9 24 15 52 13 62 -3 13 -10 2 -23 -31z"/>
<path d="M2381 1845 c-7 -33 -26 -86 -43 -119 l-29 -58 35 -127 c19 -69 38
-144 42 -166 12 -73 22 -71 29 6 4 41 5 86 3 99 l-5 25 -10 -25 c-10 -23 -12
-21 -28 35 -45 160 -45 139 -8 231 23 56 33 97 31 121 -3 35 -4 34 -17 -22z"/>
<path d="M700 1887 c0 -4 5 -15 11 -25 9 -14 2 -41 -34 -135 -26 -64 -55 -134
-66 -154 -11 -21 -31 -64 -45 -95 -14 -32 -29 -58 -33 -58 -16 0 -71 96 -92
160 -12 35 -21 85 -21 112 0 29 -4 48 -11 48 -8 0 -10 -24 -7 -78 5 -87 42
-181 98 -252 16 -21 30 -42 30 -46 0 -5 -27 -45 -59 -88 -51 -68 -66 -106 -42
-106 3 0 24 23 46 50 22 28 42 50 45 50 4 0 15 -6 25 -14 19 -14 19 -15 -4
-61 -30 -60 -32 -143 -4 -205 14 -32 52 -75 128 -145 60 -55 127 -118 150
-140 l42 -40 2 164 c1 130 -1 168 -13 186 -14 21 -13 24 14 44 16 11 35 21 42
21 9 0 25 51 46 148 42 185 42 183 53 153 9 -22 13 -23 62 -18 28 3 60 8 69
12 16 6 17 1 11 -56 -6 -63 -8 -66 -76 -136 -81 -82 -92 -99 -80 -116 5 -7 9
-92 9 -189 -1 -136 2 -178 12 -178 17 0 15 -26 -5 -56 -14 -21 -14 -27 -3 -34
19 -12 32 -2 29 23 -3 27 16 74 31 79 8 2 2 53 -19 167 -17 89 -31 166 -31
170 0 4 13 6 29 3 24 -3 37 4 70 37 37 37 41 39 41 18 0 -38 29 -139 56 -194
63 -131 210 -253 267 -221 15 8 17 42 17 348 l0 339 -41 78 c-68 129 -90 157
-132 167 -50 13 -82 -11 -121 -87 -23 -47 -33 -57 -55 -58 -14 0 -60 -12 -101
-27 -65 -24 -75 -30 -76 -52 -1 -14 -28 -84 -62 -157 -49 -108 -58 -134 -47
-143 11 -9 11 -14 -3 -29 -9 -9 -23 -17 -31 -17 -8 1 -16 -5 -18 -11 -3 -7 2
-13 11 -13 18 0 19 -18 16 -175 -1 -49 -6 -94 -10 -99 -18 -18 -232 185 -258
244 -16 38 -17 126 -1 168 l11 27 24 -30 c13 -16 27 -40 30 -52 4 -13 10 -23
15 -23 15 0 10 23 -12 55 -11 17 -27 42 -35 57 -12 24 -12 27 0 22 16 -6 65
-79 87 -126 7 -16 16 -28 21 -28 7 0 -17 52 -59 123 -16 29 -8 37 28 27 59
-17 94 -45 119 -95 24 -47 25 -48 28 -22 5 42 -28 89 -83 120 -42 24 -59 27
-105 24 -46 -4 -60 -1 -82 17 l-26 21 23 36 c20 31 30 36 85 47 133 24 243 99
294 200 23 45 76 213 76 237 -1 15 -40 -35 -40 -51 0 -25 -49 -155 -75 -199
-30 -53 -85 -97 -159 -130 -104 -46 -136 -21 -38 30 31 17 59 32 62 35 3 3 22
18 43 34 21 15 36 30 33 33 -2 3 -20 -6 -38 -20 -42 -31 -132 -77 -153 -77 -8
0 -25 -20 -37 -45 -12 -25 -28 -45 -35 -45 -20 0 -16 14 26 98 39 79 151 351
151 368 0 11 -39 62 -40 51z m642 -304 c52 -59 140 -245 124 -261 -3 -2 -17
15 -32 37 -14 23 -29 41 -31 41 -5 0 4 -15 31 -55 20 -28 21 -44 23 -310 1
-154 -2 -287 -7 -294 -14 -23 -62 4 -125 70 -59 62 -105 147 -129 241 -21 81
-31 97 -58 91 -13 -3 -30 -11 -38 -18 -25 -20 -40 -27 -40 -17 0 14 72 102 80
97 12 -8 43 72 43 113 0 23 -8 51 -19 66 -16 22 -26 26 -61 24 -61 -3 -61 6 0
22 71 18 91 33 126 95 37 66 56 74 76 35 9 -17 18 -30 21 -30 2 0 -2 13 -11
30 -8 16 -15 31 -15 35 0 12 28 4 42 -12z"/>
<path d="M763 1823 c-2 -10 -33 -90 -68 -178 -35 -88 -62 -161 -60 -163 2 -2
34 12 71 31 71 36 128 76 108 77 -6 0 -17 -7 -24 -14 -13 -17 -98 -52 -105
-44 -6 5 77 233 101 281 13 24 13 27 -2 27 -9 0 -18 -8 -21 -17z"/>
<path d="M2063 1807 c22 -18 69 -52 105 -77 l67 -45 33 -95 c45 -129 41 -141
-27 -89 -29 22 -55 38 -57 36 -3 -2 23 -29 57 -58 35 -30 75 -72 91 -93 15
-21 28 -36 28 -31 0 9 -85 290 -99 328 -6 15 -14 27 -19 27 -4 0 -52 29 -105
65 -105 70 -135 83 -74 32z"/>
<path d="M1956 1738 c17 -57 107 -275 131 -319 41 -75 121 -145 219 -190 48
-22 89 -38 91 -35 3 2 -15 42 -38 87 -43 82 -131 188 -193 232 l-31 21 31 -36
c18 -20 47 -51 66 -70 38 -37 111 -153 106 -168 -5 -14 -98 32 -142 70 -58 51
-89 104 -151 260 -32 80 -63 151 -68 158 -15 20 -29 14 -21 -10z"/>
<path d="M540 1689 c0 -3 11 -32 25 -65 18 -41 24 -49 21 -27 -4 26 -46 110
-46 92z"/>
<path d="M521 1647 c-1 -21 28 -81 36 -74 2 3 -4 25 -15 49 -11 24 -21 35 -21
25z"/>
<path d="M1651 1617 c-14 -7 -49 -53 -80 -107 l-56 -95 -5 -354 c-4 -290 -3
-357 9 -368 40 -41 205 86 264 203 46 90 74 224 48 224 -9 0 -23 -39 -52 -152
-12 -43 -14 -46 -30 -32 -15 13 -16 13 -12 -10 7 -33 -25 -84 -89 -141 -47
-42 -92 -65 -104 -52 -8 8 -11 396 -4 426 l6 25 22 -28 c33 -43 26 -22 -9 27
-30 40 -31 45 -27 122 4 69 10 91 42 155 51 100 73 129 102 136 29 7 58 -15
81 -61 20 -39 76 -92 93 -87 15 5 91 -17 105 -31 6 -6 -12 -8 -51 -4 -58 5
-62 4 -77 -23 -19 -31 -13 -124 8 -150 7 -8 16 -25 20 -38 3 -12 10 -20 14
-18 12 8 74 -61 67 -73 -9 -13 -66 27 -66 46 0 7 -4 13 -10 13 -5 0 -10 -10
-10 -23 0 -34 62 -90 100 -90 l31 0 -7 -179 c-6 -155 -5 -178 8 -173 9 4 19
-4 27 -21 9 -21 15 -24 24 -15 9 9 8 14 -3 22 -13 8 -13 11 1 22 14 11 14 26
-7 162 -12 83 -23 159 -25 171 -2 11 2 28 8 36 11 12 -1 28 -71 96 l-83 82 -5
63 -5 64 56 -14 c69 -16 101 -10 101 19 0 50 19 -6 50 -148 29 -137 34 -151
52 -146 28 7 93 -57 74 -72 -8 -6 -19 -36 -26 -66 -7 -30 -19 -66 -27 -79
l-15 -24 55 6 c31 3 75 14 99 25 62 27 134 102 98 102 -6 0 -15 -11 -19 -24
-10 -25 -47 -41 -55 -22 -3 7 -5 7 -5 -1 -1 -7 -10 -13 -21 -13 -11 0 -20 -6
-20 -13 0 -8 -13 -13 -35 -14 -39 -1 -44 11 -18 39 16 18 16 18 -1 12 -18 -7
-18 -6 0 21 14 22 16 29 6 33 -10 3 -8 10 8 27 l22 23 -24 7 c-36 11 -59 36
-53 56 4 11 -18 69 -54 145 -39 81 -59 134 -55 148 4 19 -4 24 -88 49 -51 15
-102 27 -113 27 -14 0 -25 13 -38 45 -21 51 -68 95 -100 95 -12 0 -33 -6 -46
-13z"/>
<path d="M2250 1133 c-45 -17 -67 -63 -29 -63 11 0 18 4 15 8 -3 5 8 16 23 25
23 13 35 15 58 7 25 -9 29 -15 25 -41 -4 -28 19 -69 38 -69 15 0 -13 106 -32
123 -19 16 -67 21 -98 10z"/>
<path d="M2210 1030 c0 -5 8 -14 18 -19 14 -7 21 -5 30 10 11 17 9 19 -18 19
-16 0 -30 -4 -30 -10z"/>
<path d="M721 1021 c-9 -6 -10 -11 -2 -15 6 -4 11 -12 11 -17 0 -5 -11 -3 -24
6 -23 15 -29 15 -71 0 -19 -7 -18 -8 5 -14 14 -4 30 -17 36 -30 9 -17 13 -19
17 -7 3 8 21 23 39 32 43 22 43 21 28 39 -14 17 -20 18 -39 6z"/>
<path d="M2265 1009 c-5 -8 -3 -15 4 -17 8 -3 22 -13 32 -23 24 -24 29 -24 29
0 0 11 6 21 13 24 19 7 3 17 -35 24 -24 3 -38 1 -43 -8z"/>
<path d="M974 598 c-4 -5 0 -14 7 -19 20 -13 29 -11 29 5 0 18 -27 29 -36 14z"/>
<path d="M950 565 c-7 -9 -11 -17 -9 -18 2 -1 12 -8 21 -15 14 -11 18 -10 27
7 9 16 8 22 -8 30 -14 8 -22 7 -31 -4z"/>
</g>
</svg>
