<svg width="200" height="200" viewBox="0 0 200 200" fill="none" xmlns="http://www.w3.org/2000/svg">
<path d="M99.9993 16.6666C89.0559 16.6666 78.2195 18.8221 68.1091 23.01C57.9986 27.1979 48.812 33.3362 41.0738 41.0744C25.4458 56.7024 16.666 77.8986 16.666 100C16.666 122.101 25.4458 143.297 41.0738 158.926C48.812 166.664 57.9986 172.802 68.1091 176.99C78.2195 181.178 89.0559 183.333 99.9993 183.333C122.101 183.333 143.297 174.554 158.925 158.926C174.553 143.297 183.333 122.101 183.333 100C183.333 90.3333 181.583 80.75 178.249 71.75L164.916 85.0833C166.083 90 166.666 95 166.666 100C166.666 117.681 159.642 134.638 147.14 147.14C134.637 159.643 117.68 166.667 99.9993 166.667C82.3182 166.667 65.3613 159.643 52.8589 147.14C40.3565 134.638 33.3327 117.681 33.3327 100C33.3327 82.3189 40.3565 65.3619 52.8589 52.8595C65.3613 40.3571 82.3182 33.3333 99.9993 33.3333C104.999 33.3333 109.999 33.9166 114.916 35.0833L128.333 21.6666C119.249 18.4166 109.666 16.6666 99.9993 16.6666ZM158.333 16.6666L124.999 50V62.5L103.749 83.75C102.499 83.3333 101.249 83.3333 99.9993 83.3333C95.5791 83.3333 91.3398 85.0892 88.2142 88.2148C85.0886 91.3405 83.3327 95.5797 83.3327 100C83.3327 104.42 85.0886 108.659 88.2142 111.785C91.3398 114.911 95.5791 116.667 99.9993 116.667C104.42 116.667 108.659 114.911 111.784 111.785C114.91 108.659 116.666 104.42 116.666 100C116.666 98.75 116.666 97.5 116.249 96.25L137.499 75H149.999L183.333 41.6666H158.333V16.6666ZM99.9993 50C86.7385 50 74.0208 55.2678 64.644 64.6446C55.2672 74.0214 49.9993 86.7391 49.9993 100C49.9993 113.261 55.2672 125.978 64.644 135.355C74.0208 144.732 86.7385 150 99.9993 150C113.26 150 125.978 144.732 135.355 135.355C144.732 125.978 149.999 113.261 149.999 100H133.333C133.333 108.841 129.821 117.319 123.57 123.57C117.318 129.821 108.84 133.333 99.9993 133.333C91.1588 133.333 82.6803 129.821 76.4291 123.57C70.1779 117.319 66.666 108.841 66.666 100C66.666 91.1594 70.1779 82.6809 76.4291 76.4297C82.6803 70.1785 91.1588 66.6666 99.9993 66.6666V50Z" fill="black"/>
</svg>
