<svg width="200" height="200" viewBox="0 0 200 200" fill="none" xmlns="http://www.w3.org/2000/svg">
<path d="M49.9994 150L30.8327 169.167C28.1938 171.805 25.1716 172.397 21.766 170.942C18.3605 169.486 16.6605 166.881 16.666 163.125V33.3333C16.666 28.75 18.2994 24.8277 21.566 21.5666C24.8327 18.3055 28.7549 16.6722 33.3327 16.6666H166.666C171.249 16.6666 175.174 18.3 178.441 21.5666C181.708 24.8333 183.338 28.7555 183.333 33.3333V133.333C183.333 137.917 181.702 141.842 178.441 145.108C175.18 148.375 171.255 150.006 166.666 150H49.9994ZM42.916 133.333H166.666V33.3333H33.3327V142.708L42.916 133.333ZM58.3327 116.667H108.333C110.694 116.667 112.674 115.867 114.274 114.267C115.874 112.667 116.672 110.689 116.666 108.333C116.66 105.978 115.86 104 114.266 102.4C112.672 100.8 110.694 100 108.333 100H58.3327C55.9716 100 53.9938 100.8 52.3994 102.4C50.8049 104 50.0049 105.978 49.9994 108.333C49.9938 110.689 50.7938 112.669 52.3994 114.275C54.0049 115.881 55.9827 116.678 58.3327 116.667ZM58.3327 91.6666H141.666C144.027 91.6666 146.008 90.8666 147.608 89.2666C149.208 87.6666 150.005 85.6888 149.999 83.3333C149.994 80.9777 149.194 79 147.599 77.4C146.005 75.8 144.027 75 141.666 75H58.3327C55.9716 75 53.9938 75.8 52.3994 77.4C50.8049 79 50.0049 80.9777 49.9994 83.3333C49.9938 85.6888 50.7938 87.6694 52.3994 89.275C54.0049 90.8805 55.9827 91.6777 58.3327 91.6666ZM58.3327 66.6666H141.666C144.027 66.6666 146.008 65.8666 147.608 64.2666C149.208 62.6666 150.005 60.6888 149.999 58.3333C149.994 55.9777 149.194 54 147.599 52.4C146.005 50.8 144.027 50 141.666 50H58.3327C55.9716 50 53.9938 50.8 52.3994 52.4C50.8049 54 50.0049 55.9777 49.9994 58.3333C49.9938 60.6888 50.7938 62.6694 52.3994 64.275C54.0049 65.8805 55.9827 66.6777 58.3327 66.6666Z" fill="black"/>
</svg>
