<svg width="200" height="200" viewBox="0 0 200 200" fill="none" xmlns="http://www.w3.org/2000/svg">
<path d="M33.3327 50.0001C37.753 50.0001 41.9922 48.2441 45.1178 45.1185C48.2434 41.9929 49.9993 37.7537 49.9993 33.3334C49.9993 28.9131 48.2434 24.6739 45.1178 21.5483C41.9922 18.4227 37.753 16.6667 33.3327 16.6667C28.9124 16.6667 24.6732 18.4227 21.5476 21.5483C18.422 24.6739 16.666 28.9131 16.666 33.3334C16.666 37.7537 18.422 41.9929 21.5476 45.1185C24.6732 48.2441 28.9124 50.0001 33.3327 50.0001ZM41.666 175C48.2964 175 54.6553 172.366 59.3437 167.678C64.0321 162.989 66.666 156.63 66.666 150C66.666 143.37 64.0321 137.011 59.3437 132.322C54.6553 127.634 48.2964 125 41.666 125C35.0356 125 28.6768 127.634 23.9883 132.322C19.2999 137.011 16.666 143.37 16.666 150C16.666 156.63 19.2999 162.989 23.9883 167.678C28.6768 172.366 35.0356 175 41.666 175ZM158.333 183.333C164.963 183.333 171.322 180.699 176.01 176.011C180.699 171.323 183.333 164.964 183.333 158.333C183.333 151.703 180.699 145.344 176.01 140.656C171.322 135.967 164.963 133.333 158.333 133.333C151.702 133.333 145.343 135.967 140.655 140.656C135.967 145.344 133.333 151.703 133.333 158.333C133.333 164.964 135.967 171.323 140.655 176.011C145.343 180.699 151.702 183.333 158.333 183.333ZM91.666 116.667C100.507 116.667 108.985 113.155 115.236 106.904C121.487 100.652 124.999 92.174 124.999 83.3334C124.999 74.4929 121.487 66.0144 115.236 59.7632C108.985 53.512 100.507 50.0001 91.666 50.0001C82.8255 50.0001 74.347 53.512 68.0958 59.7632C61.8446 66.0144 58.3327 74.4929 58.3327 83.3334C58.3327 92.174 61.8446 100.652 68.0958 106.904C74.347 113.155 82.8255 116.667 91.666 116.667ZM141.666 50.0001C146.086 50.0001 150.326 48.2441 153.451 45.1185C156.577 41.9929 158.333 37.7537 158.333 33.3334C158.333 28.9131 156.577 24.6739 153.451 21.5483C150.326 18.4227 146.086 16.6667 141.666 16.6667C137.246 16.6667 133.007 18.4227 129.881 21.5483C126.755 24.6739 124.999 28.9131 124.999 33.3334C124.999 37.7537 126.755 41.9929 129.881 45.1185C133.007 48.2441 137.246 50.0001 141.666 50.0001Z" stroke="black" stroke-width="16.6667" stroke-linecap="round" stroke-linejoin="round"/>
<path d="M45.832 45.8335L62.4987 62.5002M124.999 50.0002L116.665 58.3335M141.665 139.583L116.665 108.333M58.332 129.167L74.9987 112.5" stroke="black" stroke-width="16.6667" stroke-linecap="round" stroke-linejoin="round"/>
</svg>
