<svg width="200" height="200" viewBox="0 0 200 200" fill="none" xmlns="http://www.w3.org/2000/svg">
<path d="M25 52.0833C25 44.9004 27.8534 38.0116 32.9325 32.9325C38.0116 27.8534 44.9004 25 52.0833 25H147.917C155.1 25 161.988 27.8534 167.067 32.9325C172.147 38.0116 175 44.9004 175 52.0833V147.917C175 155.1 172.147 161.988 167.067 167.067C161.988 172.147 155.1 175 147.917 175H52.0833C44.9004 175 38.0116 172.147 32.9325 167.067C27.8534 161.988 25 155.1 25 147.917V52.0833ZM52.0833 37.5C48.2156 37.5 44.5063 39.0365 41.7714 41.7714C39.0365 44.5063 37.5 48.2156 37.5 52.0833V147.917C37.5 155.967 44.0333 162.5 52.0833 162.5H147.917C151.784 162.5 155.494 160.964 158.229 158.229C160.964 155.494 162.5 151.784 162.5 147.917V52.0833C162.5 48.2156 160.964 44.5063 158.229 41.7714C155.494 39.0365 151.784 37.5 147.917 37.5H52.0833ZM50 68.75C50 60.7 56.5333 54.1667 64.5833 54.1667H135.417C143.467 54.1667 150 60.7 150 68.75V81.25C150 85.1177 148.464 88.8271 145.729 91.562C142.994 94.2969 139.284 95.8333 135.417 95.8333H64.5833C60.7156 95.8333 57.0063 94.2969 54.2714 91.562C51.5365 88.8271 50 85.1177 50 81.25V68.75ZM64.5833 66.6667C64.0308 66.6667 63.5009 66.8862 63.1102 67.2769C62.7195 67.6676 62.5 68.1975 62.5 68.75V81.25C62.5 82.4 63.4333 83.3333 64.5833 83.3333H135.417C135.969 83.3333 136.499 83.1138 136.89 82.7231C137.281 82.3324 137.5 81.8025 137.5 81.25V68.75C137.5 68.1975 137.281 67.6676 136.89 67.2769C136.499 66.8862 135.969 66.6667 135.417 66.6667H64.5833ZM56.25 108.333C54.5924 108.333 53.0027 108.992 51.8306 110.164C50.6585 111.336 50 112.926 50 114.583C50 116.241 50.6585 117.831 51.8306 119.003C53.0027 120.175 54.5924 120.833 56.25 120.833H93.75C95.4076 120.833 96.9973 120.175 98.1694 119.003C99.3415 117.831 100 116.241 100 114.583C100 112.926 99.3415 111.336 98.1694 110.164C96.9973 108.992 95.4076 108.333 93.75 108.333H56.25ZM50 139.583C50 137.926 50.6585 136.336 51.8306 135.164C53.0027 133.992 54.5924 133.333 56.25 133.333H93.75C95.4076 133.333 96.9973 133.992 98.1694 135.164C99.3415 136.336 100 137.926 100 139.583C100 141.241 99.3415 142.831 98.1694 144.003C96.9973 145.175 95.4076 145.833 93.75 145.833H56.25C54.5924 145.833 53.0027 145.175 51.8306 144.003C50.6585 142.831 50 141.241 50 139.583ZM127.083 108.333C123.216 108.333 119.506 109.87 116.771 112.605C114.036 115.34 112.5 119.049 112.5 122.917V131.25C112.5 139.3 119.033 145.833 127.083 145.833H135.417C139.284 145.833 142.994 144.297 145.729 141.562C148.464 138.827 150 135.118 150 131.25V122.917C150 119.049 148.464 115.34 145.729 112.605C142.994 109.87 139.284 108.333 135.417 108.333H127.083ZM125 122.917C125 122.364 125.219 121.834 125.61 121.444C126.001 121.053 126.531 120.833 127.083 120.833H135.417C135.969 120.833 136.499 121.053 136.89 121.444C137.281 121.834 137.5 122.364 137.5 122.917V131.25C137.5 131.803 137.281 132.332 136.89 132.723C136.499 133.114 135.969 133.333 135.417 133.333H127.083C126.531 133.333 126.001 133.114 125.61 132.723C125.219 132.332 125 131.803 125 131.25V122.917Z" fill="black"/>
</svg>
