<svg width="200" height="200" viewBox="0 0 200 200" fill="none" xmlns="http://www.w3.org/2000/svg">
<path d="M161.871 38.1797C153.76 29.9889 144.111 23.4814 133.478 19.0309C122.845 14.5805 111.438 12.2749 99.9107 12.2465C88.3838 12.2181 76.9649 14.4676 66.31 18.8656C55.6551 23.2637 45.9742 29.7236 37.8235 37.8744C29.6727 46.0251 23.2128 55.706 18.8147 66.3609C14.4167 77.0158 12.1672 88.4347 12.1956 99.9616C12.2239 111.488 14.5296 122.896 18.98 133.529C23.4305 144.162 29.938 153.811 38.1288 161.922C46.2393 170.113 55.8883 176.62 66.5214 181.071C77.1545 185.521 88.5622 187.827 100.089 187.855C111.616 187.883 123.035 185.634 133.69 181.236C144.345 176.838 154.026 170.378 162.176 162.227C170.327 154.076 176.787 144.396 181.185 133.741C185.583 123.086 187.833 111.667 187.804 100.14C187.776 88.6131 185.47 77.2054 181.02 66.5723C176.569 55.9392 170.062 46.2902 161.871 38.1797ZM24.9999 100.051C24.9969 93.4129 25.877 86.8042 27.6171 80.3984C30.4842 86.5703 34.6483 91.9023 37.4803 98.2344C41.1405 106.375 50.9686 104.117 55.3085 111.25C59.16 117.582 55.0468 125.59 57.9296 132.215C60.0233 137.023 64.9608 138.074 68.3671 141.59C71.8475 145.137 71.7733 149.996 72.3046 154.621C72.9036 160.055 73.8759 165.442 75.2147 170.742C75.2147 170.781 75.2147 170.824 75.246 170.863C46.0155 160.598 24.9999 132.734 24.9999 100.051ZM99.9999 175.051C95.8114 175.05 91.6302 174.7 87.4999 174.004C87.5428 172.945 87.5624 171.957 87.6678 171.27C88.6171 165.059 91.7264 158.984 95.9218 154.336C100.066 149.75 105.746 146.648 109.246 141.445C112.676 136.367 113.703 129.531 112.289 123.598C110.207 114.832 98.2968 111.906 91.8749 107.152C88.1835 104.418 84.8983 100.191 80.0507 99.8477C77.8163 99.6914 75.9452 100.172 73.7303 99.6016C71.6991 99.0742 70.1053 97.9805 67.9413 98.2656C63.8983 98.7969 61.3475 103.117 57.0038 102.531C52.8827 101.98 48.6366 97.1562 47.6991 93.2305C46.496 88.1836 50.4882 86.5469 54.7655 86.0977C56.5507 85.9102 58.5546 85.707 60.2694 86.3633C62.5272 87.1992 63.5936 89.4102 65.621 90.5273C69.4218 92.6133 70.1913 89.2812 69.6093 85.9062C68.7382 80.8516 67.7225 78.793 72.2304 75.3125C75.3554 72.9141 78.0272 71.1797 77.5272 66.8711C77.2303 64.3398 75.8436 63.1953 77.1366 60.6758C78.1171 58.7578 80.8085 57.0273 82.5624 55.8828C87.0897 52.9297 101.957 53.1484 95.8827 44.8828C94.0975 42.457 90.8046 38.1211 87.6796 37.5273C83.7733 36.7891 82.0389 41.1484 79.3163 43.0703C76.5038 45.0586 71.0272 47.3164 68.2108 44.2422C64.4218 40.1055 70.7225 38.75 72.1171 35.8594C72.7616 34.5117 72.1171 32.6406 71.0311 30.8789C72.44 30.2852 73.8723 29.7344 75.328 29.2266C76.2403 29.9004 77.3226 30.3062 78.453 30.3984C81.0663 30.5703 83.5311 29.1562 85.8124 30.9375C88.3436 32.8906 90.1678 35.3594 93.5272 35.9687C96.7772 36.5586 100.219 34.6641 101.023 31.3359C101.512 29.3125 101.023 27.1758 100.555 25.0859C115.164 25.17 129.427 29.5452 141.57 37.668C140.789 37.3711 139.855 37.4062 138.703 37.9414C136.332 39.043 132.973 41.8477 132.695 44.6289C132.379 47.7852 137.035 48.2305 139.246 48.2305C142.566 48.2305 145.93 46.7461 144.859 42.9102C144.394 41.2461 143.762 39.5156 142.742 38.4688C145.193 40.1692 147.541 42.0136 149.773 43.9922C149.738 44.0273 149.703 44.0586 149.668 44.0977C147.418 46.4414 144.805 48.2969 143.266 51.1484C142.18 53.1562 140.957 54.1094 138.758 54.6289C137.547 54.9141 136.164 55.0195 135.148 55.832C132.32 58.0586 133.93 63.4102 136.609 65.0156C139.996 67.043 145.019 66.0898 147.574 63.1953C149.57 60.9297 150.746 56.9961 154.336 57C155.916 56.9967 157.435 57.6155 158.562 58.7227C160.047 60.2617 159.754 61.6992 160.07 63.6211C160.629 67.0352 163.641 65.1836 165.473 63.4609C166.808 65.8375 168.013 68.2852 169.082 70.793C167.066 73.6953 165.465 76.8594 160.617 73.4766C157.715 71.4492 155.93 68.5078 152.285 67.5937C149.101 66.8125 145.84 67.625 142.695 68.168C139.121 68.7891 134.883 69.0625 132.172 71.7695C129.551 74.3789 128.164 77.8711 125.375 80.4922C119.98 85.5703 117.703 91.1133 121.195 98.293C124.555 105.195 131.582 108.941 139.164 108.449C146.613 107.953 154.351 103.633 154.137 114.457C154.058 118.289 154.859 120.941 156.035 124.5C157.125 127.781 157.051 130.961 157.301 134.348C157.538 138.313 158.158 142.247 159.152 146.094C152.151 155.108 143.181 162.404 132.929 167.422C122.678 172.441 111.414 175.05 99.9999 175.051Z" fill="black"/>
</svg>
