<svg width="200" height="200" viewBox="0 0 200 200" fill="none" xmlns="http://www.w3.org/2000/svg">
<path d="M58.334 141.775L95.109 141.65L175.376 62.15C178.526 59 180.259 54.8166 180.259 50.3666C180.259 45.9166 178.526 41.7333 175.376 38.5833L162.159 25.3666C155.859 19.0666 144.867 19.1 138.617 25.3416L58.334 104.858V141.775ZM150.376 37.15L163.617 50.3416L150.309 63.525L137.092 50.3166L150.376 37.15ZM75.0007 111.808L125.251 62.0333L138.467 75.25L88.2256 125.008L75.0007 125.05V111.808Z" fill="black"/>
<path d="M41.6667 175H158.333C167.525 175 175 167.525 175 158.333V86.1L158.333 102.767V158.333H67.9833C67.7667 158.333 67.5417 158.417 67.325 158.417C67.05 158.417 66.775 158.342 66.4917 158.333H41.6667V41.6667H98.725L115.392 25H41.6667C32.475 25 25 32.475 25 41.6667V158.333C25 167.525 32.475 175 41.6667 175Z" fill="black"/>
</svg>
