<svg width="200" height="200" viewBox="0 0 200 200" fill="none" xmlns="http://www.w3.org/2000/svg">
<path d="M172.25 46.875C163.445 30.7578 151.109 21.875 137.5 21.875C123.891 21.875 111.555 30.7578 102.75 46.875C101.781 48.6562 100.859 50.5078 100 52.4297C99.1406 50.5078 98.2188 48.6562 97.25 46.875C88.4453 30.7578 76.1094 21.875 62.5 21.875C48.8906 21.875 36.5547 30.7578 27.75 46.875C19.9297 61.2344 15.625 80.0938 15.625 100C15.625 119.906 19.9297 138.766 27.75 153.125C36.5547 169.234 48.8906 178.125 62.5 178.125C76.1094 178.125 88.4453 169.234 97.25 153.125C98.2188 151.344 99.1406 149.492 100 147.57C100.859 149.492 101.781 151.344 102.75 153.125C111.555 169.258 123.891 178.125 137.5 178.125C151.109 178.125 163.445 169.234 172.25 153.125C180.062 138.789 184.375 119.93 184.375 100C184.375 80.0703 180.07 61.2344 172.25 46.875ZM118.75 90.625C120.604 90.625 122.417 91.1748 123.958 92.205C125.5 93.2351 126.702 94.6993 127.411 96.4123C128.121 98.1254 128.307 100.01 127.945 101.829C127.583 103.648 126.69 105.318 125.379 106.629C124.068 107.94 122.398 108.833 120.579 109.195C118.76 109.557 116.875 109.371 115.162 108.661C113.449 107.952 111.985 106.75 110.955 105.208C109.925 103.667 109.375 101.854 109.375 100C109.375 97.5136 110.363 95.129 112.121 93.3709C113.879 91.6127 116.264 90.625 118.75 90.625ZM43.75 90.625C45.6042 90.625 47.4168 91.1748 48.9585 92.205C50.5002 93.2351 51.7018 94.6993 52.4114 96.4123C53.1209 98.1254 53.3066 100.01 52.9449 101.829C52.5831 103.648 51.6902 105.318 50.3791 106.629C49.068 107.94 47.3975 108.833 45.579 109.195C43.7604 109.557 41.8754 109.371 40.1623 108.661C38.4493 107.952 36.9851 106.75 35.955 105.208C34.9248 103.667 34.375 101.854 34.375 100C34.375 97.5136 35.3627 95.129 37.1209 93.3709C38.879 91.6127 41.2636 90.625 43.75 90.625ZM62.5 159.375C53.0625 159.375 42.8672 147.094 37.7344 127.469C39.7097 127.906 41.7269 128.126 43.75 128.125C51.2092 128.125 58.3629 125.162 63.6374 119.887C68.9118 114.613 71.875 107.459 71.875 100C71.875 92.5408 68.9118 85.3871 63.6374 80.1126C58.3629 74.8382 51.2092 71.875 43.75 71.875C41.7269 71.8743 39.7097 72.0944 37.7344 72.5312C42.8672 52.9062 53.0625 40.625 62.5 40.625C75.7812 40.625 90.625 65.0078 90.625 100C90.625 134.992 75.7812 159.375 62.5 159.375ZM137.5 159.375C128.062 159.375 117.867 147.094 112.734 127.469C114.71 127.906 116.727 128.126 118.75 128.125C126.209 128.125 133.363 125.162 138.637 119.887C143.912 114.613 146.875 107.459 146.875 100C146.875 92.5408 143.912 85.3871 138.637 80.1126C133.363 74.8382 126.209 71.875 118.75 71.875C116.727 71.8743 114.71 72.0944 112.734 72.5312C117.867 52.9062 128.062 40.625 137.5 40.625C150.781 40.625 165.625 65.0078 165.625 100C165.625 134.992 150.781 159.375 137.5 159.375Z" fill="black"/>
</svg>
