<svg width="200" height="200" viewBox="0 0 200 200" fill="none" xmlns="http://www.w3.org/2000/svg">
<path d="M140 27.5C140 25.5109 140.79 23.6032 142.196 22.1967C143.603 20.7902 145.51 20 147.5 20H172.5C174.489 20 176.396 20.7902 177.803 22.1967C179.209 23.6032 180 25.5109 180 27.5V52.5C180 54.4891 179.209 56.3968 177.803 57.8033C176.396 59.2098 174.489 60 172.5 60C170.51 60 168.603 59.2098 167.196 57.8033C165.79 56.3968 165 54.4891 165 52.5V45.6L120.3 90.3C118.893 91.7045 116.987 92.4934 115 92.4934C113.012 92.4934 111.106 91.7045 109.7 90.3L84.9996 65.6L42.7996 107.8C42.113 108.537 41.285 109.128 40.365 109.538C39.445 109.948 38.4518 110.168 37.4448 110.186C36.4378 110.204 35.4375 110.018 34.5036 109.641C33.5697 109.264 32.7214 108.703 32.0092 107.99C31.297 107.278 30.7356 106.43 30.3584 105.496C29.9811 104.562 29.7959 103.562 29.8137 102.555C29.8314 101.548 30.0519 100.555 30.4618 99.6346C30.8717 98.7146 31.4627 97.8866 32.1996 97.2L79.6996 49.7C81.1058 48.2955 83.0121 47.5066 84.9996 47.5066C86.9871 47.5066 88.8933 48.2955 90.2996 49.7L115 74.4L154.4 35H147.5C145.51 35 143.603 34.2098 142.196 32.8033C140.79 31.3968 140 29.4891 140 27.5ZM37.4996 140C39.4887 140 41.3964 140.79 42.8029 142.197C44.2094 143.603 44.9996 145.511 44.9996 147.5V172.5C44.9996 174.489 44.2094 176.397 42.8029 177.803C41.3964 179.21 39.4887 180 37.4996 180C35.5105 180 33.6028 179.21 32.1963 177.803C30.7898 176.397 29.9996 174.489 29.9996 172.5V147.5C29.9996 145.511 30.7898 143.603 32.1963 142.197C33.6028 140.79 35.5105 140 37.4996 140ZM84.9996 117.5C84.9996 115.511 84.2094 113.603 82.8029 112.197C81.3964 110.79 79.4887 110 77.4996 110C75.5105 110 73.6028 110.79 72.1963 112.197C70.7898 113.603 69.9996 115.511 69.9996 117.5V172.5C69.9996 174.489 70.7898 176.397 72.1963 177.803C73.6028 179.21 75.5105 180 77.4996 180C79.4887 180 81.3964 179.21 82.8029 177.803C84.2094 176.397 84.9996 174.489 84.9996 172.5V117.5ZM117.5 130C119.489 130 121.396 130.79 122.803 132.197C124.209 133.603 125 135.511 125 137.5V172.5C125 174.489 124.209 176.397 122.803 177.803C121.396 179.21 119.489 180 117.5 180C115.51 180 113.603 179.21 112.196 177.803C110.79 176.397 110 174.489 110 172.5V137.5C110 135.511 110.79 133.603 112.196 132.197C113.603 130.79 115.51 130 117.5 130ZM165 97.5C165 95.5109 164.209 93.6032 162.803 92.1967C161.396 90.7902 159.489 90 157.5 90C155.51 90 153.603 90.7902 152.196 92.1967C150.79 93.6032 150 95.5109 150 97.5V172.5C150 174.489 150.79 176.397 152.196 177.803C153.603 179.21 155.51 180 157.5 180C159.489 180 161.396 179.21 162.803 177.803C164.209 176.397 165 174.489 165 172.5V97.5Z" fill="black"/>
</svg>
