<svg width="200" height="200" viewBox="0 0 200 200" fill="none" xmlns="http://www.w3.org/2000/svg">
<path d="M198.671 84.3046L178.734 44.414C177.999 42.9457 176.983 41.6366 175.742 40.5612C174.502 39.4859 173.062 38.6654 171.504 38.1467C169.946 37.628 168.302 37.4212 166.664 37.5381C165.027 37.655 163.428 38.0933 161.96 38.828L142.531 48.539L101.601 37.7108C100.551 37.4375 99.4481 37.4375 98.3979 37.7108L57.4682 48.539L38.0385 38.828C36.5704 38.0933 34.9719 37.655 33.3344 37.5381C31.6968 37.4212 30.0523 37.628 28.4947 38.1467C26.9371 38.6654 25.497 39.4859 24.2565 40.5612C23.016 41.6366 21.9995 42.9457 21.265 44.414L1.32754 84.2968C0.592821 85.7649 0.154494 87.3633 0.0375919 89.0009C-0.0793105 90.6384 0.127501 92.2829 0.646215 93.8405C1.16493 95.3981 1.98539 96.8383 3.06073 98.0787C4.13608 99.3192 5.44525 100.336 6.91348 101.07L28.0072 111.625L71.3588 142.586C71.9979 143.04 72.7159 143.371 73.476 143.562L123.476 156.062C124.523 156.325 125.62 156.312 126.661 156.024C127.701 155.737 128.65 155.185 129.413 154.422L160.663 123.172L172.445 111.391L193.085 101.07C196.049 99.5868 198.301 96.9876 199.349 93.8437C200.396 90.6999 200.153 87.2688 198.671 84.3046ZM155.788 110.375L128.906 88.8436C127.701 87.8792 126.183 87.3943 124.642 87.4822C123.102 87.5702 121.649 88.2249 120.562 89.3202C106.648 103.336 91.14 101.562 81.2494 95.3124L115.031 62.4999H139.882L161.14 105.008L155.788 110.375ZM123.078 143.078L77.6713 131.726L39.2338 104.273L61.1088 60.5233L99.9994 50.2186L107.656 52.2421L72.4994 86.3671L72.4369 86.4374C71.1135 87.7608 70.1042 89.3644 69.4834 91.13C68.8626 92.8956 68.6462 94.7781 68.8502 96.6385C69.0541 98.4989 69.6732 100.29 70.6618 101.879C71.6504 103.468 72.9832 104.815 74.5619 105.82C90.6244 116.078 110.007 114.414 125.273 101.914L146.874 119.266L123.078 143.078ZM102.984 170.266C102.646 171.616 101.867 172.816 100.77 173.673C99.6733 174.531 98.3215 174.998 96.9291 175C96.4155 175 95.9038 174.937 95.4057 174.812L62.8197 166.664C62.0584 166.476 61.3398 166.144 60.7025 165.687L40.1166 150.984C38.8508 149.99 38.0172 148.547 37.7893 146.954C37.5614 145.36 37.9568 143.741 38.8931 142.432C39.8294 141.123 41.2346 140.226 42.8159 139.927C44.3972 139.628 46.0329 139.951 47.3822 140.828L66.9994 154.844L98.4369 162.687C100.045 163.09 101.427 164.114 102.28 165.535C103.132 166.956 103.386 168.658 102.984 170.266Z" fill="black"/>
</svg>
