<svg width="200" height="200" viewBox="0 0 200 200" fill="none" xmlns="http://www.w3.org/2000/svg">
<path d="M56.8789 181.25H143.121C150.855 181.25 157.008 174.887 156.176 167.555C150.805 120.312 118.75 121.094 118.75 100C118.75 78.9062 151.215 80.0781 156.172 32.4453C156.953 25.1094 150.855 18.75 143.121 18.75H56.8789C49.1446 18.75 43.0625 25.1094 43.8281 32.4453C48.7852 80.0781 81.25 78.5156 81.25 100C81.25 121.484 49.1953 120.312 43.8281 167.555C42.9922 174.887 49.1446 181.25 56.8789 181.25Z" stroke="black" stroke-width="12.5" stroke-linecap="round" stroke-linejoin="round"/>
<path d="M134.101 168.75H66.0661C59.9724 168.75 58.2536 161.719 62.5271 157.359C72.8708 146.875 93.7497 139.367 93.7497 127.344V87.5C93.7497 79.7461 78.906 73.8281 69.7224 61.25C68.2067 59.1758 68.3591 56.25 72.2107 56.25H127.965C131.25 56.25 131.961 59.1523 130.465 61.2305C121.414 73.8281 106.25 79.707 106.25 87.5V127.344C106.25 139.27 128.011 145.703 137.656 157.371C141.543 162.074 140.183 168.75 134.101 168.75Z" fill="black"/>
</svg>
