<svg width="200" height="200" viewBox="0 0 200 200" fill="none" xmlns="http://www.w3.org/2000/svg">
<path d="M83.3327 133.333C97.2216 133.333 109.027 128.472 118.749 118.75C128.472 109.028 133.333 97.2223 133.333 83.3334C133.333 69.4445 128.472 57.639 118.749 47.9167C109.027 38.1945 97.2216 33.3334 83.3327 33.3334C69.4438 33.3334 57.6382 38.1945 47.916 47.9167C38.1938 57.639 33.3327 69.4445 33.3327 83.3334C33.3327 97.2223 38.1938 109.028 47.916 118.75C57.6382 128.472 69.4438 133.333 83.3327 133.333ZM83.3327 108.333C80.9716 108.333 78.9938 107.533 77.3993 105.933C75.8049 104.333 75.0049 102.356 74.9993 100V58.3334C74.9993 55.9723 75.7993 53.9945 77.3993 52.4001C78.9993 50.8056 80.9771 50.0056 83.3327 50.0001C85.6882 49.9945 87.6688 50.7945 89.2743 52.4001C90.8799 54.0056 91.6771 55.9834 91.666 58.3334V100C91.666 102.361 90.866 104.342 89.266 105.942C87.666 107.542 85.6882 108.339 83.3327 108.333ZM54.166 108.333C51.8049 108.333 49.8271 107.533 48.2327 105.933C46.6382 104.333 45.8382 102.356 45.8327 100V75.0001C45.8327 72.639 46.6327 70.6612 48.2327 69.0667C49.8327 67.4723 51.8105 66.6723 54.166 66.6667C56.5216 66.6612 58.5021 67.4612 60.1077 69.0667C61.7132 70.6723 62.5105 72.6501 62.4993 75.0001V100C62.4993 102.361 61.6993 104.342 60.0993 105.942C58.4993 107.542 56.5216 108.339 54.166 108.333ZM112.499 108.333C110.138 108.333 108.16 107.533 106.566 105.933C104.972 104.333 104.172 102.356 104.166 100V83.3334C104.166 80.9723 104.966 78.9945 106.566 77.4001C108.166 75.8056 110.144 75.0056 112.499 75.0001C114.855 74.9945 116.835 75.7945 118.441 77.4001C120.047 79.0056 120.844 80.9834 120.833 83.3334V100C120.833 102.361 120.033 104.342 118.433 105.942C116.833 107.542 114.855 108.339 112.499 108.333ZM83.3327 150C64.7216 150 48.9577 143.542 36.041 130.625C23.1243 117.708 16.666 101.945 16.666 83.3334C16.666 64.7223 23.1243 48.9584 36.041 36.0417C48.9577 23.1251 64.7216 16.6667 83.3327 16.6667C101.944 16.6667 117.708 23.1251 130.624 36.0417C143.541 48.9584 149.999 64.7223 149.999 83.3334C149.999 91.1112 148.785 98.4723 146.358 105.417C143.93 112.361 140.491 118.681 136.041 124.375L177.499 165.833C179.027 167.361 179.791 169.306 179.791 171.667C179.791 174.028 179.027 175.972 177.499 177.5C175.972 179.028 174.027 179.792 171.666 179.792C169.305 179.792 167.36 179.028 165.833 177.5L124.374 136.042C118.68 140.486 112.36 143.925 105.416 146.358C98.4716 148.792 91.1105 150.006 83.3327 150Z" fill="black"/>
</svg>
