<svg width="200" height="200" viewBox="0 0 200 200" fill="none" xmlns="http://www.w3.org/2000/svg">
<path d="M58.334 125C65.2784 125 71.1812 122.569 76.0423 117.708C80.9034 112.847 83.334 106.944 83.334 100C83.334 93.0556 80.9034 87.1528 76.0423 82.2917C71.1812 77.4306 65.2784 75 58.334 75C51.3895 75 45.4868 77.4306 40.6256 82.2917C35.7645 87.1528 33.334 93.0556 33.334 100C33.334 106.944 35.7645 112.847 40.6256 117.708C45.4868 122.569 51.3895 125 58.334 125ZM58.334 150C44.4451 150 32.6395 145.139 22.9173 135.417C13.1951 125.694 8.33398 113.889 8.33398 100C8.33398 86.1111 13.1951 74.3056 22.9173 64.5833C32.6395 54.8611 44.4451 50 58.334 50C69.584 50 79.4118 53.1944 87.8173 59.5833C96.2229 65.9722 102.09 73.8889 105.417 83.3333H175.209L191.667 99.7917L162.501 133.125L141.667 116.667L125.001 133.333L108.334 116.667H105.417C101.945 126.667 95.9034 134.722 87.2923 140.833C78.6812 146.944 69.0284 150 58.334 150Z" fill="black"/>
</svg>
