<svg width="200" height="200" viewBox="0 0 200 200" fill="none" xmlns="http://www.w3.org/2000/svg">
<path d="M100.001 141.667C95.5804 141.667 91.3411 139.911 88.2155 136.785C85.0899 133.66 83.334 129.42 83.334 125C83.334 115.75 90.7506 108.333 100.001 108.333C104.421 108.333 108.66 110.089 111.786 113.215C114.911 116.341 116.667 120.58 116.667 125C116.667 129.42 114.911 133.66 111.786 136.785C108.66 139.911 104.421 141.667 100.001 141.667ZM150.001 166.667V83.3334H50.0007V166.667H150.001ZM150.001 66.6667C154.421 66.6667 158.66 68.4227 161.786 71.5483C164.911 74.6739 166.667 78.9131 166.667 83.3334V166.667C166.667 171.087 164.911 175.326 161.786 178.452C158.66 181.577 154.421 183.333 150.001 183.333H50.0007C45.5804 183.333 41.3411 181.577 38.2155 178.452C35.0899 175.326 33.334 171.087 33.334 166.667V83.3334C33.334 74.0834 40.7507 66.6667 50.0007 66.6667H58.334V50C58.334 38.9494 62.7239 28.3513 70.5379 20.5373C78.3519 12.7232 88.95 8.33337 100.001 8.33337C105.472 8.33337 110.891 9.41111 115.946 11.5051C121.001 13.599 125.594 16.6681 129.463 20.5373C133.333 24.4064 136.402 28.9997 138.496 34.0549C140.59 39.1101 141.667 44.5283 141.667 50V66.6667H150.001ZM100.001 25C93.3702 25 87.0114 27.634 82.323 32.3224C77.6346 37.0108 75.0006 43.3696 75.0006 50V66.6667H125.001V50C125.001 43.3696 122.367 37.0108 117.678 32.3224C112.99 27.634 106.631 25 100.001 25Z" fill="black"/>
</svg>
