<svg width="200" height="200" viewBox="0 0 200 200" fill="none" xmlns="http://www.w3.org/2000/svg">
<path d="M187.5 200H0L37.5 87.5H87.5V61.9141C83.8542 61.1328 80.5013 59.7982 77.4414 57.9102C74.3815 56.0221 71.7448 53.7435 69.5312 51.0742C67.3177 48.4049 65.5924 45.3451 64.3555 41.8945C63.1185 38.444 62.5 34.8958 62.5 31.25C62.5 26.9531 63.3138 22.9167 64.9414 19.1406C66.569 15.3646 68.7826 12.0768 71.582 9.27734C74.3815 6.47786 77.7018 4.23177 81.543 2.53906C85.3841 0.846354 89.4531 0 93.75 0C98.0469 0 102.083 0.813802 105.859 2.44141C109.635 4.06901 112.923 6.3151 115.723 9.17969C118.522 12.0443 120.768 15.3646 122.461 19.1406C124.154 22.9167 125 26.9531 125 31.25C125 34.9609 124.382 38.5091 123.145 41.8945C121.908 45.2799 120.182 48.3073 117.969 50.9766C115.755 53.6458 113.118 55.957 110.059 57.9102C106.999 59.8633 103.646 61.1979 100 61.9141V87.5H150L187.5 200ZM75 31.25C75 33.8542 75.4883 36.2956 76.4648 38.5742C77.4414 40.8529 78.776 42.8385 80.4688 44.5312C82.1615 46.224 84.1471 47.5586 86.4258 48.5352C88.7044 49.5117 91.1458 50 93.75 50C96.3542 50 98.7956 49.5117 101.074 48.5352C103.353 47.5586 105.339 46.224 107.031 44.5312C108.724 42.8385 110.059 40.8529 111.035 38.5742C112.012 36.2956 112.5 33.8542 112.5 31.25C112.5 28.6458 112.012 26.2044 111.035 23.9258C110.059 21.6471 108.724 19.6615 107.031 17.9688C105.339 16.276 103.353 14.9414 101.074 13.9648C98.7956 12.9883 96.3542 12.5 93.75 12.5C91.1458 12.5 88.7044 12.9883 86.4258 13.9648C84.1471 14.9414 82.1615 16.276 80.4688 17.9688C78.776 19.6615 77.4414 21.6471 76.4648 23.9258C75.4883 26.2044 75 28.6458 75 31.25ZM17.3828 187.5H170.117L141.016 100H100V146.875C100 147.461 99.7721 147.949 99.3164 148.34C98.8607 148.73 98.2747 149.056 97.5586 149.316C96.8424 149.577 96.1589 149.74 95.5078 149.805C94.8568 149.87 94.2708 149.935 93.75 150C93.2943 150 92.7409 149.967 92.0898 149.902C91.4388 149.837 90.7552 149.674 90.0391 149.414C89.3229 149.154 88.737 148.828 88.2812 148.438C87.8255 148.047 87.5651 147.526 87.5 146.875V100H46.4844L17.3828 187.5Z" fill="black"/>
</svg>
