<svg width="200" height="200" viewBox="0 0 200 200" fill="none" xmlns="http://www.w3.org/2000/svg">
<path d="M99.9993 183.333C88.6105 183.333 77.8466 181.145 67.7077 176.767C57.5688 172.389 48.716 166.417 41.1493 158.85C33.5827 151.283 27.6105 142.431 23.2327 132.292C18.8549 122.153 16.666 111.389 16.666 100C16.666 88.4723 18.9243 77.639 23.441 67.5001C27.9577 57.3612 34.0688 48.5417 41.7743 41.0417C49.4799 33.5417 58.4716 27.6056 68.7493 23.2334C79.0271 18.8612 89.9993 16.6723 101.666 16.6667C112.777 16.6667 123.263 18.5779 133.124 22.4001C142.985 26.2223 151.633 31.5001 159.066 38.2334C166.499 44.9667 172.402 52.9529 176.774 62.1917C181.147 71.4306 183.333 81.3945 183.333 92.0834C183.333 108.056 178.472 120.314 168.749 128.858C159.027 137.403 147.222 141.672 133.333 141.667H117.916C116.666 141.667 115.799 142.014 115.316 142.708C114.833 143.403 114.588 144.167 114.583 145C114.583 146.667 115.624 149.064 117.708 152.192C119.791 155.32 120.833 158.895 120.833 162.917C120.833 169.861 118.924 175 115.108 178.333C111.291 181.667 106.255 183.333 99.9993 183.333ZM54.166 108.333C57.7771 108.333 60.7632 107.153 63.1243 104.792C65.4855 102.431 66.666 99.4445 66.666 95.8334C66.666 92.2223 65.4855 89.2362 63.1243 86.8751C60.7632 84.514 57.7771 83.3334 54.166 83.3334C50.5549 83.3334 47.5688 84.514 45.2077 86.8751C42.8466 89.2362 41.666 92.2223 41.666 95.8334C41.666 99.4445 42.8466 102.431 45.2077 104.792C47.5688 107.153 50.5549 108.333 54.166 108.333ZM79.166 75.0001C82.7771 75.0001 85.7632 73.8195 88.1243 71.4584C90.4855 69.0973 91.666 66.1112 91.666 62.5001C91.666 58.889 90.4855 55.9029 88.1243 53.5417C85.7632 51.1806 82.7771 50.0001 79.166 50.0001C75.5549 50.0001 72.5688 51.1806 70.2077 53.5417C67.8466 55.9029 66.666 58.889 66.666 62.5001C66.666 66.1112 67.8466 69.0973 70.2077 71.4584C72.5688 73.8195 75.5549 75.0001 79.166 75.0001ZM120.833 75.0001C124.444 75.0001 127.43 73.8195 129.791 71.4584C132.152 69.0973 133.333 66.1112 133.333 62.5001C133.333 58.889 132.152 55.9029 129.791 53.5417C127.43 51.1806 124.444 50.0001 120.833 50.0001C117.222 50.0001 114.235 51.1806 111.874 53.5417C109.513 55.9029 108.333 58.889 108.333 62.5001C108.333 66.1112 109.513 69.0973 111.874 71.4584C114.235 73.8195 117.222 75.0001 120.833 75.0001ZM145.833 108.333C149.444 108.333 152.43 107.153 154.791 104.792C157.152 102.431 158.333 99.4445 158.333 95.8334C158.333 92.2223 157.152 89.2362 154.791 86.8751C152.43 84.514 149.444 83.3334 145.833 83.3334C142.222 83.3334 139.235 84.514 136.874 86.8751C134.513 89.2362 133.333 92.2223 133.333 95.8334C133.333 99.4445 134.513 102.431 136.874 104.792C139.235 107.153 142.222 108.333 145.833 108.333ZM99.9993 166.667C101.249 166.667 102.258 166.32 103.024 165.625C103.791 164.931 104.172 164.028 104.166 162.917C104.166 160.972 103.124 158.681 101.041 156.042C98.9577 153.403 97.916 149.445 97.916 144.167C97.916 138.333 99.9299 133.681 103.958 130.208C107.985 126.736 112.916 125 118.749 125H133.333C142.499 125 150.347 122.328 156.874 116.983C163.402 111.639 166.666 103.339 166.666 92.0834C166.666 75.2779 160.244 61.2834 147.399 50.1001C134.555 38.9167 119.31 33.3279 101.666 33.3334C82.7771 33.3334 66.666 39.7917 53.3327 52.7084C39.9993 65.6251 33.3327 81.389 33.3327 100C33.3327 118.472 39.8271 134.203 52.816 147.192C65.8049 160.181 81.5327 166.672 99.9993 166.667Z" fill="black"/>
</svg>
