<svg width="200" height="200" viewBox="0 0 200 200" fill="none" xmlns="http://www.w3.org/2000/svg">
<path d="M83.3325 141.667H116.666L133.841 86.7C136.255 78.9781 136.76 70.7856 135.312 62.8257C133.863 54.8657 130.504 47.3762 125.524 41.0001L103.941 13.3751C103.473 12.7759 102.875 12.2912 102.192 11.9579C101.509 11.6246 100.759 11.4513 99.9992 11.4513C99.2392 11.4513 98.4892 11.6246 97.8062 11.9579C97.1232 12.2912 96.5251 12.7759 96.0575 13.3751L74.4742 41.0001C69.494 47.3762 66.1354 54.8657 64.6868 62.8257C63.2382 70.7856 63.7429 78.9781 66.1575 86.7L83.3325 141.667ZM83.3325 141.667L58.3325 158.333C58.3325 158.333 41.6659 125 70.8325 104.167M83.3325 166.667C83.3325 183.333 99.9992 191.667 99.9992 191.667C99.9992 191.667 116.666 183.333 116.666 166.667M132.758 104.167C161.924 125 145.258 158.333 145.258 158.333L120.258 141.667" stroke="black" stroke-width="12.5" stroke-linecap="round" stroke-linejoin="round"/>
<path d="M99.9987 91.6667C95.5784 91.6667 91.3392 89.9108 88.2136 86.7851C85.088 83.6595 83.332 79.4203 83.332 75C83.332 70.5798 85.088 66.3405 88.2136 63.2149C91.3392 60.0893 95.5784 58.3334 99.9987 58.3334C104.419 58.3334 108.658 60.0893 111.784 63.2149C114.909 66.3405 116.665 70.5798 116.665 75C116.665 79.4203 114.909 83.6595 111.784 86.7851C108.658 89.9108 104.419 91.6667 99.9987 91.6667Z" stroke="black" stroke-width="12.5" stroke-linecap="round" stroke-linejoin="round"/>
</svg>
