<svg width="200" height="200" viewBox="0 0 200 200" fill="none" xmlns="http://www.w3.org/2000/svg">
<g clip-path="url(#clip0_865_125)">
<path d="M58.334 141.667C24.7506 106.617 24.7506 50.9833 58.334 16.6666L183.334 141.667C149.017 175.25 93.384 175.25 58.334 141.667ZM58.334 141.667C30.8756 141.667 8.33398 166.25 8.33398 191.667H108.334C108.334 182.175 105.251 174.717 100.001 166.667M125.001 74.9999L158.334 41.6666M170.834 8.33325C165.309 8.33325 160.01 10.5282 156.103 14.4352C152.196 18.3422 150.001 23.6412 150.001 29.1666C150.001 34.6919 152.196 39.991 156.103 43.898C160.01 47.805 165.309 49.9999 170.834 49.9999C176.359 49.9999 181.658 47.805 185.565 43.898C189.472 39.991 191.667 34.6919 191.667 29.1666C191.667 23.6412 189.472 18.3422 185.565 14.4352C181.658 10.5282 176.359 8.33325 170.834 8.33325Z" stroke="black" stroke-width="16.6667"/>
</g>
<defs>
<clipPath id="clip0_865_125">
<rect width="200" height="200" fill="white"/>
</clipPath>
</defs>
</svg>
