<svg width="200" height="200" viewBox="0 0 200 200" fill="none" xmlns="http://www.w3.org/2000/svg">
<path d="M163.333 175L110.833 122.5C106.667 125.833 101.875 128.472 96.4583 130.417C91.0417 132.361 85.2778 133.333 79.1667 133.333C64.0278 133.333 51.2167 128.089 40.7333 117.6C30.25 107.111 25.0056 94.3  79.1667C24.9944 64.0333 30.2389 51.2222 40.7333 40.7333C51.2278 30.2444 64.0389 25 79.1667 25C94.2944 25 107.108 30.2444 117.608 40.7333C128.108 51.2222 133.35 64.0333 133.333 79.1667C133.333 85.2778 132.361 91.0417 130.417 96.4583C128.472 101.875 125.833 106.667 122.5 110.833L175 163.333L163.333 175ZM79.1667 116.667C89.5833 116.667 98.4389 113.022 105.733 105.733C113.028 98.4444 116.672 89.5889 116.667 79.1667C116.661 68.7444 113.017 59.8917 105.733 52.6083C98.45 45.325 89.5944 41.6778 79.1667 41.6667C68.7389 41.6556 59.8861 45.3028 52.6083 52.6083C45.3306 59.9139 41.6833 68.7667 41.6667 79.1667C41.65 89.5667 45.2972 98.4222 52.6083 105.733C59.9194 113.044 68.7722 116.689 79.1667 116.667Z" fill="black"/>
</svg>
