<svg width="200" height="200" viewBox="0 0 200 200" fill="none" xmlns="http://www.w3.org/2000/svg">
<path d="M100.001 183.333C80.6951 178.472 64.7562 167.394 52.184 150.1C39.6118 132.806 33.3284 113.606 33.334 92.5V41.6666L100.001 16.6666L166.667 41.6666V92.5C166.667 113.611 160.384 132.814 147.817 150.108C135.251 167.403 119.312 178.478 100.001 183.333ZM100.001 165.833C113.473 161.667 124.723 153.436 133.751 141.142C142.778 128.847 148.056 115.133 149.584 100H100.001V34.375L50.0007 53.125V96.25C50.0007 97.2222 50.1395 98.4722 50.4173 100H100.001V165.833Z" fill="black"/>
</svg>
