<svg width="200" height="200" viewBox="0 0 200 200" fill="none" xmlns="http://www.w3.org/2000/svg">
<path d="M158.333 33.3333C162.538 33.3319 166.588 34.92 169.671 37.7791C172.754 40.6381 174.643 44.557 174.958 48.7499L175 49.9999V83.3333C175.001 87.5381 173.413 91.588 170.554 94.6711C167.695 97.7543 163.776 99.6429 159.583 99.9582L158.333 99.9999H41.6667C37.4619 100.001 33.4119 98.4132 30.3288 95.5541C27.2456 92.695 25.357 88.7762 25.0417 84.5832L25 83.3333V49.9999C24.9987 45.7951 26.5867 41.7452 29.4458 38.662C32.3049 35.5788 36.2237 33.6903 40.4167 33.3749L41.6667 33.3333H158.333ZM158.333 49.9999H41.6667V83.3333H158.333V49.9999ZM83.3333 58.3333C85.4573 58.3356 87.5003 59.1489 89.0447 60.607C90.5892 62.0651 91.5186 64.0579 91.6431 66.1782C91.7676 68.2986 91.0777 70.3864 89.7145 72.0152C88.3512 73.644 86.4175 74.6907 84.3083 74.9416L83.3333 74.9999H66.6667C64.5427 74.9976 62.4997 74.1843 60.9553 72.7262C59.4108 71.2681 58.4814 69.2753 58.3569 67.155C58.2324 65.0346 58.9223 62.9468 60.2855 61.318C61.6488 59.6892 63.5825 58.6424 65.6917 58.3916L66.6667 58.3333H83.3333ZM158.333 108.333C162.538 108.332 166.588 109.92 169.671 112.779C172.754 115.638 174.643 119.557 174.958 123.75L175 125V158.333C175.001 162.538 173.413 166.588 170.554 169.671C167.695 172.754 163.776 174.643 159.583 174.958L158.333 175H41.6667C37.4619 175.001 33.4119 173.413 30.3288 170.554C27.2456 167.695 25.357 163.776 25.0417 159.583L25 158.333V125C24.9987 120.795 26.5867 116.745 29.4458 113.662C32.3049 110.579 36.2237 108.69 40.4167 108.375L41.6667 108.333H158.333ZM158.333 125H41.6667V158.333H158.333V125ZM83.3333 133.333C85.5435 133.333 87.6631 134.211 89.2259 135.774C90.7887 137.337 91.6667 139.456 91.6667 141.667C91.6667 143.877 90.7887 145.996 89.2259 147.559C87.6631 149.122 85.5435 150 83.3333 150H66.6667C64.4565 150 62.3369 149.122 60.7741 147.559C59.2113 145.996 58.3333 143.877 58.3333 141.667C58.3333 139.456 59.2113 137.337 60.7741 135.774C62.3369 134.211 64.4565 133.333 66.6667 133.333H83.3333Z" fill="black"/>
</svg>
