<svg width="200" height="200" viewBox="0 0 200 200" fill="none" xmlns="http://www.w3.org/2000/svg">
<path d="M165.916 129.25H128.166C125.956 129.25 123.836 130.128 122.273 131.691C120.711 133.254 119.833 135.373 119.833 137.583C119.833 139.794 120.711 141.913 122.273 143.476C123.836 145.039 125.956 145.917 128.166 145.917H148.166C138.974 155.523 127.119 162.161 114.126 164.978C101.132 167.796 87.5928 166.663 75.2475 161.727C62.9022 156.791 52.3149 148.276 44.8459 137.277C37.377 126.277 33.3675 113.296 33.3327 100C33.3327 97.7899 32.4547 95.6703 30.8919 94.1075C29.3291 92.5447 27.2095 91.6667 24.9993 91.6667C22.7892 91.6667 20.6696 92.5447 19.1068 94.1075C17.544 95.6703 16.666 97.7899 16.666 100C16.7101 116.273 21.5179 132.178 30.496 145.75C39.4742 159.323 52.2299 169.97 67.1889 176.377C82.1478 182.784 98.6554 184.671 114.674 181.805C130.694 178.94 145.523 171.446 157.333 160.25V175C157.333 177.21 158.211 179.33 159.773 180.893C161.336 182.455 163.456 183.333 165.666 183.333C167.876 183.333 169.996 182.455 171.559 180.893C173.121 179.33 173.999 177.21 173.999 175V137.5C173.979 135.347 173.126 133.286 171.619 131.748C170.112 130.21 168.068 129.315 165.916 129.25ZM99.9993 16.6667C78.6359 16.7277 58.1118 24.991 42.666 39.7501V25.0001C42.666 22.7899 41.788 20.6703 40.2252 19.1075C38.6624 17.5447 36.5428 16.6667 34.3327 16.6667C32.1225 16.6667 30.0029 17.5447 28.4401 19.1075C26.8773 20.6703 25.9993 22.7899 25.9993 25.0001V62.5001C25.9993 64.7102 26.8773 66.8298 28.4401 68.3926C30.0029 69.9554 32.1225 70.8334 34.3327 70.8334H71.8327C74.0428 70.8334 76.1624 69.9554 77.7252 68.3926C79.288 66.8298 80.166 64.7102 80.166 62.5001C80.166 60.2899 79.288 58.1703 77.7252 56.6075C76.1624 55.0447 74.0428 54.1667 71.8327 54.1667H51.8327C61.0199 44.5657 72.8668 37.9292 85.8527 35.1093C98.8386 32.2894 112.371 33.4146 124.713 38.3406C137.055 43.2666 147.643 51.7685 155.118 62.7551C162.593 73.7417 166.615 86.7116 166.666 100C166.666 102.21 167.544 104.33 169.107 105.893C170.67 107.455 172.789 108.333 174.999 108.333C177.209 108.333 179.329 107.455 180.892 105.893C182.455 104.33 183.333 102.21 183.333 100C183.333 89.0566 181.177 78.2203 176.989 68.1098C172.801 57.9993 166.663 48.8127 158.925 41.0745C151.187 33.3363 142 27.198 131.89 23.0101C121.779 18.8222 110.943 16.6667 99.9993 16.6667Z" fill="black"/>
</svg>
