<svg width="200" height="200" viewBox="0 0 200 200" fill="none" xmlns="http://www.w3.org/2000/svg">
<path d="M31.3509 68.9001C40.6809 61.6501 48.4209 66.6501 58.7509 78.6101C59.9109 79.9601 61.4709 78.3801 62.3609 77.6101C63.2509 76.8401 76.8709 64.5601 77.5409 64.0001C78.2009 63.4101 79.0009 62.3101 77.9509 61.0801C75.4213 57.9518 72.9443 54.7813 70.5209 51.5701C52.4409 27.9201 119.981 11.8801 109.611 11.6301C104.331 11.4901 83.1509 11.2401 79.9809 11.5901C67.1509 12.9401 51.0409 24.9301 42.9309 30.5201C32.3209 37.7801 28.3609 42.0401 27.7109 42.6301C24.7109 45.2501 27.2309 51.3001 21.7909 56.0701C16.0409 61.1001 12.4509 57.2901 9.12093 60.2101C7.47093 61.6701 2.85093 65.1301 1.53093 66.2801C0.200927 67.4501 -0.0390732 69.4201 1.32093 70.9901C1.32093 70.9901 13.9609 84.9501 15.0209 86.1901C16.0709 87.4101 18.9309 88.47 20.6909 86.9C22.4609 85.34 27.0109 81.3701 27.7709 80.6701C28.5509 80.0101 27.2709 72.0601 31.3509 68.9001ZM88.4309 74.0701C87.2309 72.6801 85.7409 72.6401 84.4609 73.7801L70.1209 86.3001C69.5695 86.8037 69.2337 87.5008 69.1834 88.2459C69.1331 88.991 69.3722 89.7268 69.8509 90.3L152.791 184.69C154.731 186.92 158.091 187.15 160.301 185.22L170.001 177.09C171.069 176.15 171.722 174.826 171.82 173.407C171.917 171.988 171.45 170.587 170.521 169.51L88.4309 74.0701ZM199.021 33.9001C198.281 28.9601 195.721 29.9901 194.391 32.0801C193.061 34.1901 187.181 43.1001 184.761 47.1401C182.361 51.1401 176.441 59.0501 165.421 51.2401C153.941 43.1301 157.931 37.4701 159.931 33.6601C161.941 29.8301 168.111 19.0901 169.001 17.7601C169.891 16.4101 168.851 12.4901 165.291 14.1301C161.721 15.7701 140.061 24.3801 137.061 36.7301C133.991 49.2901 139.631 60.5201 128.561 71.6701L115.131 85.6701L128.621 101.33L145.161 85.6301C149.101 81.6701 157.521 77.8201 165.141 79.5601C181.471 83.2501 190.381 77.1201 195.751 66.9801C200.571 57.9201 199.771 38.8401 199.021 33.9001ZM27.3909 170.53C26.3955 171.54 25.8375 172.902 25.8375 174.32C25.8375 175.738 26.3955 177.1 27.3909 178.11L36.9009 187.41C38.9809 189.5 42.2809 188.62 44.3609 186.53L93.4309 138.29L78.4009 121.15L27.3909 170.53Z" fill="black"/>
</svg>
