<svg width="200" height="200" viewBox="0 0 200 200" fill="none" xmlns="http://www.w3.org/2000/svg">
<path d="M100.001 45.8333C97.5284 45.8333 95.1116 46.5664 93.056 47.94C91.0004 49.3135 89.3982 51.2657 88.4522 53.5498C87.5061 55.8339 87.2585 58.3472 87.7408 60.772C88.2231 63.1967 89.4137 65.424 91.1618 67.1722C92.91 68.9203 95.1373 70.1108 97.562 70.5931C99.9868 71.0755 102.5 70.8279 104.784 69.8818C107.068 68.9357 109.021 67.3336 110.394 65.278C111.768 63.2223 112.501 60.8056 112.501 58.3333C112.501 55.0181 111.184 51.8387 108.839 49.4945C106.495 47.1503 103.316 45.8333 100.001 45.8333ZM183.334 70.8333H178.834C187.07 61.6813 191.64 49.8122 191.667 37.5C191.667 35.2899 190.789 33.1702 189.227 31.6074C187.664 30.0446 185.544 29.1667 183.334 29.1667H148.501C146.781 24.3038 143.6 20.0917 139.393 17.1078C135.186 14.124 130.159 12.5145 125.001 12.5H75.0006C69.8428 12.5145 64.8156 14.124 60.6084 17.1078C56.4012 20.0917 53.2199 24.3038 51.5006 29.1667H16.6673C14.4572 29.1667 12.3376 30.0446 10.7748 31.6074C9.21196 33.1702 8.33398 35.2899 8.33398 37.5C8.36178 49.8122 12.9314 61.6813 21.1673 70.8333H16.6673C14.4572 70.8333 12.3376 71.7113 10.7748 73.2741C9.21196 74.8369 8.33398 76.9565 8.33398 79.1667C8.36178 91.4789 12.9314 103.348 21.1673 112.5H16.6673C14.4572 112.5 12.3376 113.378 10.7748 114.941C9.21196 116.504 8.33398 118.623 8.33398 120.833C8.35586 132.866 12.7161 144.487 20.6146 153.564C28.5131 162.641 39.42 168.565 51.334 170.25C52.9638 175.249 56.1282 179.606 60.377 182.703C64.6259 185.8 69.743 187.479 75.0006 187.5H125.001C130.258 187.479 135.375 185.8 139.624 182.703C143.873 179.606 147.037 175.249 148.667 170.25C160.581 168.565 171.488 162.641 179.387 153.564C187.285 144.487 191.645 132.866 191.667 120.833C191.667 118.623 190.789 116.504 189.227 114.941C187.664 113.378 185.544 112.5 183.334 112.5H178.834C187.07 103.348 191.64 91.4789 191.667 79.1667C191.667 76.9565 190.789 74.8369 189.227 73.2741C187.664 71.7113 185.544 70.8333 183.334 70.8333ZM50.0006 153.083C44.243 151.593 38.989 148.589 34.7835 144.384C30.5781 140.178 27.5744 134.924 26.084 129.167H50.0006V153.083ZM50.0006 111.417C44.243 109.926 38.989 106.923 34.7835 102.717C30.5781 98.5117 27.5744 93.2576 26.084 87.5H50.0006V111.417ZM50.0006 69.75C44.284 68.333 39.0308 65.4624 34.7507 61.4167C30.7049 57.1365 27.8343 51.8833 26.4173 46.1667H50.0006V69.75ZM133.334 162.5C133.334 164.71 132.456 166.83 130.893 168.393C129.33 169.955 127.211 170.833 125.001 170.833H75.0006C72.7905 170.833 70.6709 169.955 69.1081 168.393C67.5453 166.83 66.6673 164.71 66.6673 162.5V37.5C66.6673 35.2899 67.5453 33.1702 69.1081 31.6074C70.6709 30.0446 72.7905 29.1667 75.0006 29.1667H125.001C127.211 29.1667 129.33 30.0446 130.893 31.6074C132.456 33.1702 133.334 35.2899 133.334 37.5V162.5ZM165.251 144.417C160.971 148.462 155.717 151.333 150.001 152.75V129.167H173.917C172.405 134.918 169.417 140.174 165.251 144.417ZM165.251 102.75C160.971 106.796 155.717 109.666 150.001 111.083V87.5H173.917C172.405 93.2509 169.417 98.5075 165.251 102.75ZM165.251 61.0833C160.971 65.1291 155.717 67.9997 150.001 69.4167V45.8333H173.917C172.405 51.5842 169.417 56.8408 165.251 61.0833ZM100.001 129.167C97.5284 129.167 95.1116 129.9 93.056 131.273C91.0004 132.647 89.3982 134.599 88.4522 136.883C87.5061 139.167 87.2585 141.681 87.7408 144.105C88.2231 146.53 89.4137 148.757 91.1618 150.505C92.91 152.254 95.1373 153.444 97.562 153.926C99.9868 154.409 102.5 154.161 104.784 153.215C107.068 152.269 109.021 150.667 110.394 148.611C111.768 146.556 112.501 144.139 112.501 141.667C112.501 138.351 111.184 135.172 108.839 132.828C106.495 130.484 103.316 129.167 100.001 129.167ZM100.001 87.5C97.5284 87.5 95.1116 88.2331 93.056 89.6066C91.0004 90.9801 89.3982 92.9324 88.4522 95.2165C87.5061 97.5005 87.2585 100.014 87.7408 102.439C88.2231 104.863 89.4137 107.091 91.1618 108.839C92.91 110.587 95.1373 111.777 97.562 112.26C99.9868 112.742 102.5 112.495 104.784 111.548C107.068 110.602 109.021 109 110.394 106.945C111.768 104.889 112.501 102.472 112.501 100C112.501 96.6848 111.184 93.5054 108.839 91.1612C106.495 88.817 103.316 87.5 100.001 87.5Z" fill="black"/>
</svg>
