<svg width="200" height="200" viewBox="0 0 200 200" fill="none" xmlns="http://www.w3.org/2000/svg">
<path d="M25 25H175V61.5417H158.333V41.6667H41.6667V116.667H77.775V133.333H25V25Z" fill="black"/>
<path d="M105.7 85.7251C112.983 93.4334 119.191 100 133.333 100H150C154.42 100 158.659 101.756 161.785 104.882C164.91 108.007 166.666 112.246 166.666 116.667V125C166.666 127.926 165.896 130.8 164.433 133.333C162.971 135.867 160.867 137.971 158.333 139.433V183.333H133.333V116.667C111.525 116.667 100.366 104.583 92.9997 96.6251C92.0009 95.528 90.9813 94.45 89.9414 93.3917L101.725 81.6084C103.108 82.9973 104.433 84.3695 105.7 85.7251ZM158.333 79.1667C158.333 82.482 157.016 85.6614 154.672 88.0056C152.328 90.3498 149.148 91.6667 145.833 91.6667C142.518 91.6667 139.338 90.3498 136.994 88.0056C134.65 85.6614 133.333 82.482 133.333 79.1667C133.333 75.8515 134.65 72.6721 136.994 70.3279C139.338 67.9837 142.518 66.6667 145.833 66.6667C149.148 66.6667 152.328 67.9837 154.672 70.3279C157.016 72.6721 158.333 75.8515 158.333 79.1667Z" fill="black"/>
</svg>
