<svg width="200" height="200" viewBox="0 0 200 200" fill="none" xmlns="http://www.w3.org/2000/svg">
<path d="M116.667 120.833C116.667 114.203 119.301 107.844 123.99 103.156C128.678 98.4672 135.037 95.8333 141.667 95.8333C148.298 95.8333 154.657 98.4672 159.345 103.156C164.033 107.844 166.667 114.203 166.667 120.833C166.667 127.464 164.033 133.823 159.345 138.511C154.657 143.199 148.298 145.833 141.667 145.833C135.037 145.833 128.678 143.199 123.99 138.511C119.301 133.823 116.667 127.464 116.667 120.833ZM33.334 79.1666C33.334 82.4497 33.9806 85.7006 35.237 88.7337C36.4934 91.7669 38.3349 94.5228 40.6563 96.8443C42.9778 99.1658 45.7338 101.007 48.7669 102.264C51.8 103.52 55.0509 104.167 58.334 104.167C61.617 104.167 64.8679 103.52 67.9011 102.264C70.9342 101.007 73.6902 99.1658 76.0117 96.8443C78.3331 94.5228 80.1746 91.7669 81.431 88.7337C82.6873 85.7006 83.334 82.4497 83.334 79.1666C83.334 72.5362 80.7001 66.1774 76.0117 61.489C71.3232 56.8005 64.9644 54.1666 58.334 54.1666C51.7036 54.1666 45.3447 56.8005 40.6563 61.489C35.9679 66.1774 33.334 72.5362 33.334 79.1666Z" stroke="black" stroke-width="12.5"/>
<path d="M141.326 75V16.6666M57.9922 125V183.333M141.326 183.333V166.667M57.9922 16.6666V33.3333" stroke="black" stroke-width="12.5" stroke-linecap="round"/>
</svg>
